Workaround SemiRound Italic.ufo
<glyph name="Exclamation_Mark" format="1">
  <advance width="288"/>
  <unicode hex="0021"/>
  <outline>
    <contour>
      <point x="177" y="99" type="line" smooth="yes"/>
      <point x="181" y="129"/>
      <point x="146" y="153"/>
      <point x="99" y="153" type="curve" smooth="yes"/>
      <point x="52" y="153"/>
      <point x="11" y="129"/>
      <point x="7" y="99" type="curve" smooth="yes"/>
      <point x="0" y="48" type="line" smooth="yes"/>
      <point x="-4" y="19"/>
      <point x="31" y="-5"/>
      <point x="78" y="-5" type="curve" smooth="yes"/>
      <point x="125" y="-5"/>
      <point x="166" y="19"/>
      <point x="170" y="48" type="curve" smooth="yes"/>
    </contour>
    <contour>
      <point x="288" y="952" type="line" smooth="yes"/>
      <point x="291" y="981"/>
      <point x="257" y="1005"/>
      <point x="210" y="1005" type="curve" smooth="yes"/>
      <point x="163" y="1005"/>
      <point x="121" y="981"/>
      <point x="118" y="952" type="curve" smooth="yes"/>
      <point x="39" y="346" type="line" smooth="yes"/>
      <point x="35" y="316"/>
      <point x="70" y="293"/>
      <point x="117" y="293" type="curve" smooth="yes"/>
      <point x="164" y="293"/>
      <point x="205" y="316"/>
      <point x="209" y="346" type="curve" smooth="yes"/>
    </contour>
  </outline>
</glyph>
<glyph name="exclam" format="1">
  <advance width="435"/>
  <unicode hex="0021"/>
  <outline>
    <contour>
      <point x="191" y="118" type="line" smooth="yes"/>
      <point x="195" y="147"/>
      <point x="157" y="170"/>
      <point x="107" y="170" type="curve" smooth="yes"/>
      <point x="57" y="170"/>
      <point x="13" y="147"/>
      <point x="9" y="118" type="curve" smooth="yes"/>
      <point x="0" y="48" type="line" smooth="yes"/>
      <point x="-4" y="19"/>
      <point x="34" y="-5"/>
      <point x="84" y="-5" type="curve" smooth="yes"/>
      <point x="135" y="-5"/>
      <point x="178" y="19"/>
      <point x="182" y="48" type="curve" smooth="yes"/>
    </contour>
    <contour>
      <point x="300" y="952" type="line" smooth="yes"/>
      <point x="303" y="981"/>
      <point x="266" y="1005"/>
      <point x="216" y="1005" type="curve" smooth="yes"/>
      <point x="165" y="1005"/>
      <point x="122" y="981"/>
      <point x="118" y="952" type="curve" smooth="yes"/>
      <point x="51" y="346" type="line" smooth="yes"/>
      <point x="48" y="321"/>
      <point x="80" y="300"/>
      <point x="124" y="300" type="curve" smooth="yes"/>
      <point x="168" y="300"/>
      <point x="206" y="321"/>
      <point x="209" y="346" type="curve" smooth="yes"/>
    </contour>
  </outline>
</glyph>
<glyph name="quotedbl" format="1">
  <advance width="569"/>
  <unicode hex="0022"/>
  <outline>
    <contour>
      <point x="169" y="952" type="line"/>
      <point x="175" y="971"/>
      <point x="162" y="987"/>
      <point x="135" y="997" type="curve" smooth="yes"/>
      <point x="108" y="1007"/>
      <point x="76" y="1007"/>
      <point x="46" y="997" type="curve" smooth="yes"/>
      <point x="17" y="987"/>
      <point x="0" y="971"/>
      <point x="0" y="952" type="curve" smooth="yes"/>
      <point x="1" y="753" type="line" smooth="yes"/>
      <point x="1" y="735"/>
      <point x="25" y="722"/>
      <point x="55" y="722" type="curve" smooth="yes"/>
      <point x="85" y="722"/>
      <point x="112" y="735"/>
      <point x="117" y="753" type="curve" smooth="yes"/>
    </contour>
    <contour>
      <point x="433" y="952" type="line" smooth="yes"/>
      <point x="438" y="971"/>
      <point x="425" y="987"/>
      <point x="399" y="997" type="curve" smooth="yes"/>
      <point x="372" y="1007"/>
      <point x="339" y="1007"/>
      <point x="310" y="997" type="curve" smooth="yes"/>
      <point x="280" y="987"/>
      <point x="263" y="971"/>
      <point x="264" y="952" type="curve" smooth="yes"/>
      <point x="265" y="753" type="line" smooth="yes"/>
      <point x="265" y="735"/>
      <point x="288" y="722"/>
      <point x="318" y="722" type="curve" smooth="yes"/>
      <point x="349" y="722"/>
      <point x="375" y="735"/>
      <point x="380" y="753" type="curve" smooth="yes"/>
    </contour>
  </outline>
</glyph>
<glyph name="numbersign" format="1">
  <advance width="1141"/>
  <unicode hex="0023"/>
  <outline>
    <contour>
      <point x="636" y="621" type="line"/>
      <point x="556" y="379" type="line"/>
      <point x="369" y="379" type="line"/>
      <point x="449" y="621" type="line"/>
    </contour>
    <contour>
      <point x="806" y="621" type="line"/>
      <point x="945" y="621" type="line" smooth="yes"/>
      <point x="957" y="621"/>
      <point x="979" y="657"/>
      <point x="994" y="700" type="curve" smooth="yes"/>
      <point x="1008" y="743"/>
      <point x="1009" y="779"/>
      <point x="997" y="779" type="curve" smooth="yes"/>
      <point x="858" y="779" type="line"/>
      <point x="926" y="983" type="line" smooth="yes"/>
      <point x="930" y="995"/>
      <point x="895" y="1005"/>
      <point x="848" y="1005" type="curve" smooth="yes"/>
      <point x="801" y="1005"/>
      <point x="760" y="995"/>
      <point x="756" y="983" type="curve" smooth="yes"/>
      <point x="688" y="779" type="line"/>
      <point x="501" y="779" type="line"/>
      <point x="569" y="983" type="line" smooth="yes"/>
      <point x="573" y="995"/>
      <point x="538" y="1005"/>
      <point x="491" y="1005" type="curve" smooth="yes"/>
      <point x="444" y="1005"/>
      <point x="403" y="995"/>
      <point x="399" y="983" type="curve" smooth="yes"/>
      <point x="331" y="779" type="line"/>
      <point x="193" y="779" type="line" smooth="yes"/>
      <point x="180" y="779"/>
      <point x="158" y="743"/>
      <point x="144" y="700" type="curve" smooth="yes"/>
      <point x="129" y="657"/>
      <point x="128" y="621"/>
      <point x="141" y="621" type="curve" smooth="yes"/>
      <point x="279" y="621" type="line"/>
      <point x="199" y="379" type="line"/>
      <point x="61" y="379" type="line" smooth="yes"/>
      <point x="48" y="379"/>
      <point x="26" y="343"/>
      <point x="12" y="300" type="curve" smooth="yes"/>
      <point x="-3" y="257"/>
      <point x="-4" y="221"/>
      <point x="9" y="221" type="curve" smooth="yes"/>
      <point x="147" y="221" type="line"/>
      <point x="80" y="17" type="line" smooth="yes"/>
      <point x="76" y="5"/>
      <point x="111" y="-5"/>
      <point x="158" y="-5" type="curve" smooth="yes"/>
      <point x="205" y="-5"/>
      <point x="246" y="5"/>
      <point x="250" y="17" type="curve" smooth="yes"/>
      <point x="317" y="221" type="line"/>
      <point x="504" y="221" type="line"/>
      <point x="437" y="17" type="line" smooth="yes"/>
      <point x="433" y="5"/>
      <point x="468" y="-5"/>
      <point x="515" y="-5" type="curve" smooth="yes"/>
      <point x="562" y="-5"/>
      <point x="603" y="5"/>
      <point x="607" y="17" type="curve" smooth="yes"/>
      <point x="674" y="221" type="line"/>
      <point x="813" y="221" type="line" smooth="yes"/>
      <point x="825" y="221"/>
      <point x="847" y="257"/>
      <point x="862" y="300" type="curve" smooth="yes"/>
      <point x="876" y="343"/>
      <point x="877" y="379"/>
      <point x="865" y="379" type="curve" smooth="yes"/>
      <point x="726" y="379" type="line"/>
    </contour>
  </outline>
</glyph>
<glyph name="dollar" format="1">
  <advance width="819"/>
  <unicode hex="0024"/>
  <outline>
    <contour>
      <point x="372" y="5" type="line"/>
      <point x="531" y="41"/>
      <point x="662" y="163"/>
      <point x="681" y="310" type="curve" smooth="yes"/>
      <point x="701" y="466"/>
      <point x="587" y="549"/>
      <point x="449" y="603" type="curve"/>
      <point x="480" y="838" type="line"/>
      <point x="500" y="833"/>
      <point x="517" y="825"/>
      <point x="533" y="815" type="curve"/>
      <point x="541" y="807"/>
      <point x="576" y="824"/>
      <point x="613" y="854" type="curve" smooth="yes"/>
      <point x="649" y="885"/>
      <point x="673" y="916"/>
      <point x="667" y="926" type="curve"/>
      <point x="621" y="964"/>
      <point x="566" y="989"/>
      <point x="501" y="999" type="curve"/>
      <point x="509" y="1060" type="line" smooth="yes"/>
      <point x="510" y="1068"/>
      <point x="484" y="1075"/>
      <point x="451" y="1075" type="curve" smooth="yes"/>
      <point x="418" y="1075"/>
      <point x="391" y="1068"/>
      <point x="390" y="1060" type="curve" smooth="yes"/>
      <point x="382" y="1002" type="line"/>
      <point x="231" y="984"/>
      <point x="101" y="872"/>
      <point x="84" y="736" type="curve" smooth="yes"/>
      <point x="65" y="595"/>
      <point x="186" y="523"/>
      <point x="314" y="477" type="curve"/>
      <point x="272" y="153" type="line"/>
      <point x="218" y="157"/>
      <point x="172" y="172"/>
      <point x="135" y="198" type="curve"/>
      <point x="127" y="207"/>
      <point x="92" y="189"/>
      <point x="55" y="159" type="curve" smooth="yes"/>
      <point x="19" y="129"/>
      <point x="-5" y="97"/>
      <point x="1" y="88" type="curve"/>
      <point x="67" y="31"/>
      <point x="150" y="1"/>
      <point x="251" y="-4" type="curve"/>
      <point x="244" y="-60" type="line" smooth="yes"/>
      <point x="243" y="-68"/>
      <point x="269" y="-75"/>
      <point x="302" y="-75" type="curve" smooth="yes"/>
      <point x="334" y="-75"/>
      <point x="362" y="-68"/>
      <point x="363" y="-60" type="curve" smooth="yes"/>
    </contour>
    <contour>
      <point x="361" y="842" type="curve"/>
      <point x="336" y="647" type="line"/>
      <point x="293" y="667"/>
      <point x="253" y="696"/>
      <point x="258" y="736" type="curve" smooth="yes"/>
      <point x="264" y="785"/>
      <point x="307" y="826"/>
    </contour>
    <contour>
      <point x="393" y="173" type="curve"/>
      <point x="427" y="429" type="line"/>
      <point x="474" y="402"/>
      <point x="512" y="363"/>
      <point x="505" y="310" type="curve" smooth="yes"/>
      <point x="498" y="251"/>
      <point x="453" y="200"/>
    </contour>
  </outline>
</glyph>
<glyph name="percent" format="1">
  <advance width="960"/>
  <unicode hex="0025"/>
  <outline>
    <contour>
      <point x="140" y="803" type="curve" smooth="yes"/>
      <point x="145" y="845"/>
      <point x="185" y="879"/>
      <point x="229" y="879" type="curve" smooth="yes"/>
      <point x="273" y="879"/>
      <point x="304" y="845"/>
      <point x="298" y="803" type="curve" smooth="yes"/>
      <point x="293" y="762"/>
      <point x="253" y="728"/>
      <point x="209" y="728" type="curve" smooth="yes"/>
      <point x="166" y="728"/>
      <point x="135" y="762"/>
    </contour>
    <contour>
      <point x="2" y="803" type="curve" smooth="yes"/>
      <point x="-13" y="692"/>
      <point x="73" y="602"/>
      <point x="193" y="602" type="curve" smooth="yes"/>
      <point x="313" y="602"/>
      <point x="422" y="692"/>
      <point x="437" y="803" type="curve" smooth="yes"/>
      <point x="451" y="915"/>
      <point x="365" y="1005"/>
      <point x="245" y="1005" type="curve" smooth="yes"/>
      <point x="125" y="1005"/>
      <point x="16" y="915"/>
    </contour>
    <contour>
      <point x="526" y="197" type="curve" smooth="yes"/>
      <point x="531" y="238"/>
      <point x="571" y="272"/>
      <point x="615" y="272" type="curve" smooth="yes"/>
      <point x="659" y="272"/>
      <point x="690" y="238"/>
      <point x="684" y="197" type="curve" smooth="yes"/>
      <point x="679" y="155"/>
      <point x="639" y="121"/>
      <point x="595" y="121" type="curve" smooth="yes"/>
      <point x="552" y="121"/>
      <point x="520" y="155"/>
    </contour>
    <contour>
      <point x="387" y="197" type="curve" smooth="yes"/>
      <point x="373" y="85"/>
      <point x="459" y="-5"/>
      <point x="579" y="-5" type="curve" smooth="yes"/>
      <point x="699" y="-5"/>
      <point x="808" y="85"/>
      <point x="823" y="197" type="curve" smooth="yes"/>
      <point x="837" y="308"/>
      <point x="751" y="398"/>
      <point x="631" y="398" type="curve" smooth="yes"/>
      <point x="511" y="398"/>
      <point x="402" y="308"/>
    </contour>
    <contour>
      <point x="820" y="914" type="line" smooth="yes"/>
      <point x="824" y="919"/>
      <point x="819" y="930"/>
      <point x="805" y="944" type="curve"/>
      <point x="792" y="959"/>
      <point x="774" y="972"/>
      <point x="756" y="980" type="curve" smooth="yes"/>
      <point x="738" y="989"/>
      <point x="725" y="991"/>
      <point x="721" y="986" type="curve" smooth="yes"/>
      <point x="4" y="86" type="line" smooth="yes"/>
      <point x="-2" y="78"/>
      <point x="15" y="56"/>
      <point x="42" y="36" type="curve" smooth="yes"/>
      <point x="70" y="16"/>
      <point x="97" y="6"/>
      <point x="103" y="14" type="curve" smooth="yes"/>
    </contour>
  </outline>
</glyph>
<glyph name="ampersand" format="1">
  <advance width="917"/>
  <unicode hex="0026"/>
  <outline>
    <contour>
      <point x="331" y="611" type="curve"/>
      <point x="317" y="630"/>
      <point x="305" y="650"/>
      <point x="292" y="670" type="curve" smooth="yes"/>
      <point x="279" y="690"/>
      <point x="275" y="711"/>
      <point x="278" y="736" type="curve" smooth="yes"/>
      <point x="286" y="797"/>
      <point x="345" y="847"/>
      <point x="409" y="847" type="curve" smooth="yes"/>
      <point x="472" y="847"/>
      <point x="518" y="797"/>
      <point x="510" y="736" type="curve" smooth="yes"/>
      <point x="499" y="654"/>
      <point x="392" y="640"/>
      <point x="342" y="616" type="curve"/>
      <point x="339" y="614"/>
      <point x="335" y="612"/>
    </contour>
    <contour>
      <point x="568" y="324" type="curve"/>
      <point x="517" y="376"/>
      <point x="469" y="430"/>
      <point x="422" y="487" type="curve"/>
      <point x="528" y="536"/>
      <point x="662" y="599"/>
      <point x="680" y="736" type="curve" smooth="yes"/>
      <point x="699" y="884"/>
      <point x="587" y="1005"/>
      <point x="429" y="1005" type="curve" smooth="yes"/>
      <point x="271" y="1005"/>
      <point x="128" y="884"/>
      <point x="108" y="736" type="curve" smooth="yes"/>
      <point x="101" y="676"/>
      <point x="111" y="626"/>
      <point x="142" y="578" type="curve" smooth="yes"/>
      <point x="152" y="562"/>
      <point x="162" y="547"/>
      <point x="173" y="532" type="curve"/>
      <point x="89" y="482"/>
      <point x="16" y="415"/>
      <point x="2" y="310" type="curve" smooth="yes"/>
      <point x="-20" y="136"/>
      <point x="112" y="-5"/>
      <point x="298" y="-5" type="curve" smooth="yes"/>
      <point x="389" y="-5"/>
      <point x="478" y="29"/>
      <point x="558" y="92" type="curve"/>
      <point x="591" y="60"/>
      <point x="625" y="28"/>
      <point x="659" y="-5" type="curve" smooth="yes"/>
      <point x="668" y="-13"/>
      <point x="701" y="8"/>
      <point x="734" y="41" type="curve" smooth="yes"/>
      <point x="767" y="75"/>
      <point x="788" y="109"/>
      <point x="779" y="116" type="curve"/>
      <point x="744" y="150"/>
      <point x="710" y="183"/>
      <point x="677" y="215" type="curve"/>
      <point x="715" y="265"/>
      <point x="749" y="323"/>
      <point x="779" y="389" type="curve"/>
      <point x="785" y="400"/>
      <point x="758" y="423"/>
      <point x="718" y="441" type="curve" smooth="yes"/>
      <point x="679" y="460"/>
      <point x="642" y="465"/>
      <point x="635" y="455" type="curve"/>
      <point x="615" y="406"/>
      <point x="593" y="362"/>
    </contour>
    <contour>
      <point x="256" y="417" type="curve"/>
      <point x="318" y="339"/>
      <point x="383" y="268"/>
      <point x="451" y="198" type="curve"/>
      <point x="409" y="168"/>
      <point x="364" y="153"/>
      <point x="318" y="153" type="curve" smooth="yes"/>
      <point x="226" y="153"/>
      <point x="161" y="223"/>
      <point x="172" y="310" type="curve" smooth="yes"/>
      <point x="179" y="362"/>
      <point x="214" y="394"/>
    </contour>
  </outline>
</glyph>
<glyph name="quotesingle" format="1">
  <advance width="305"/>
  <unicode hex="0027"/>
  <outline>
    <contour>
      <point x="170" y="983" type="line" smooth="yes"/>
      <point x="172" y="991"/>
      <point x="158" y="998"/>
      <point x="131" y="1002" type="curve" smooth="yes"/>
      <point x="104" y="1006"/>
      <point x="72" y="1006"/>
      <point x="44" y="1002" type="curve" smooth="yes"/>
      <point x="16" y="998"/>
      <point x="0" y="991"/>
      <point x="0" y="983" type="curve" smooth="yes"/>
      <point x="1" y="783" type="line" smooth="yes"/>
      <point x="1" y="775"/>
      <point x="26" y="769"/>
      <point x="57" y="769" type="curve" smooth="yes"/>
      <point x="88" y="769"/>
      <point x="115" y="775"/>
      <point x="117" y="783" type="curve" smooth="yes"/>
    </contour>
  </outline>
</glyph>
<glyph name="parenleft" format="1">
  <advance width="502"/>
  <unicode hex="0028"/>
  <outline>
    <contour>
      <point x="363" y="971" type="curve" smooth="yes"/>
      <point x="376" y="996"/>
      <point x="353" y="1030"/>
      <point x="313" y="1046" type="curve" smooth="yes"/>
      <point x="272" y="1062"/>
      <point x="228" y="1055"/>
      <point x="215" y="1029" type="curve" smooth="yes"/>
      <point x="1" y="606"/>
      <point x="-53" y="194"/>
      <point x="52" y="-229" type="curve" smooth="yes"/>
      <point x="58" y="-255"/>
      <point x="100" y="-262"/>
      <point x="144" y="-246" type="curve" smooth="yes"/>
      <point x="189" y="-230"/>
      <point x="220" y="-196"/>
      <point x="214" y="-171" type="curve" smooth="yes"/>
      <point x="119" y="213"/>
      <point x="168" y="587"/>
    </contour>
  </outline>
</glyph>
<glyph name="parenright" format="1">
  <advance width="502"/>
  <unicode hex="0029"/>
  <outline>
    <contour>
      <point x="152" y="971" type="curve" smooth="yes"/>
      <point x="247" y="587"/>
      <point x="199" y="213"/>
      <point x="4" y="-171" type="curve" smooth="yes"/>
      <point x="-9" y="-196"/>
      <point x="13" y="-230"/>
      <point x="54" y="-246" type="curve" smooth="yes"/>
      <point x="94" y="-262"/>
      <point x="138" y="-255"/>
      <point x="151" y="-229" type="curve" smooth="yes"/>
      <point x="366" y="194"/>
      <point x="419" y="606"/>
      <point x="314" y="1029" type="curve" smooth="yes"/>
      <point x="308" y="1055"/>
      <point x="267" y="1062"/>
      <point x="222" y="1046" type="curve" smooth="yes"/>
      <point x="177" y="1030"/>
      <point x="146" y="996"/>
    </contour>
  </outline>
</glyph>
<glyph name="asterisk" format="1">
  <advance width="593"/>
  <unicode hex="002A"/>
  <outline>
    <contour>
      <point x="319" y="975" type="line"/>
      <point x="321" y="995"/>
      <point x="295" y="1012"/>
      <point x="260" y="1012" type="curve" smooth="yes"/>
      <point x="224" y="1012"/>
      <point x="194" y="995"/>
      <point x="191" y="975" type="curve"/>
      <point x="186" y="870" type="line"/>
      <point x="105" y="926" type="line" smooth="yes"/>
      <point x="88" y="937"/>
      <point x="58" y="922"/>
      <point x="38" y="894" type="curve" smooth="yes"/>
      <point x="18" y="865"/>
      <point x="15" y="834"/>
      <point x="32" y="823" type="curve"/>
      <point x="119" y="775" type="line"/>
      <point x="20" y="726" type="line" smooth="yes"/>
      <point x="0" y="716"/>
      <point x="-6" y="684"/>
      <point x="7" y="655" type="curve" smooth="yes"/>
      <point x="20" y="627"/>
      <point x="46" y="612"/>
      <point x="66" y="623" type="curve" smooth="yes"/>
      <point x="161" y="679" type="line"/>
      <point x="139" y="575" type="line"/>
      <point x="136" y="554"/>
      <point x="163" y="538"/>
      <point x="198" y="538" type="curve" smooth="yes"/>
      <point x="233" y="538"/>
      <point x="264" y="554"/>
      <point x="267" y="575" type="curve"/>
      <point x="271" y="679" type="line"/>
      <point x="352" y="623" type="line"/>
      <point x="364" y="616"/>
      <point x="380" y="619"/>
      <point x="397" y="632" type="curve" smooth="yes"/>
      <point x="415" y="645"/>
      <point x="428" y="664"/>
      <point x="434" y="684" type="curve" smooth="yes"/>
      <point x="440" y="704"/>
      <point x="437" y="719"/>
      <point x="426" y="726" type="curve"/>
      <point x="339" y="775" type="line"/>
      <point x="438" y="823" type="line"/>
      <point x="458" y="834"/>
      <point x="464" y="865"/>
      <point x="451" y="894" type="curve" smooth="yes"/>
      <point x="438" y="922"/>
      <point x="412" y="937"/>
      <point x="392" y="926" type="curve" smooth="yes"/>
      <point x="296" y="870" type="line"/>
    </contour>
  </outline>
</glyph>
<glyph name="plus" format="1">
  <advance width="840"/>
  <unicode hex="002B"/>
  <outline>
    <contour>
      <point x="257" y="431" type="line"/>
      <point x="225" y="183" type="line" smooth="yes"/>
      <point x="223" y="171"/>
      <point x="260" y="162"/>
      <point x="307" y="162" type="curve" smooth="yes"/>
      <point x="354" y="162"/>
      <point x="393" y="171"/>
      <point x="395" y="183" type="curve" smooth="yes"/>
      <point x="427" y="431" type="line"/>
      <point x="669" y="431" type="line" smooth="yes"/>
      <point x="682" y="431"/>
      <point x="697" y="467"/>
      <point x="702" y="510" type="curve" smooth="yes"/>
      <point x="708" y="553"/>
      <point x="702" y="589"/>
      <point x="689" y="589" type="curve" smooth="yes"/>
      <point x="447" y="589" type="line"/>
      <point x="480" y="837" type="line" smooth="yes"/>
      <point x="481" y="849"/>
      <point x="444" y="858"/>
      <point x="397" y="858" type="curve" smooth="yes"/>
      <point x="351" y="858"/>
      <point x="311" y="849"/>
      <point x="310" y="837" type="curve" smooth="yes"/>
      <point x="277" y="589" type="line"/>
      <point x="35" y="589" type="line" smooth="yes"/>
      <point x="23" y="589"/>
      <point x="8" y="553"/>
      <point x="2" y="510" type="curve" smooth="yes"/>
      <point x="-3" y="467"/>
      <point x="2" y="431"/>
      <point x="15" y="431" type="curve" smooth="yes"/>
    </contour>
  </outline>
</glyph>
<glyph name="comma" format="1">
  <advance width="335"/>
  <unicode hex="002C"/>
  <outline>
    <contour>
      <point x="199" y="124" type="curve" smooth="yes"/>
      <point x="203" y="154"/>
      <point x="165" y="178"/>
      <point x="113" y="178" type="curve" smooth="yes"/>
      <point x="61" y="178"/>
      <point x="16" y="154"/>
      <point x="12" y="124" type="curve" smooth="yes"/>
      <point x="3" y="50" type="line" smooth="yes"/>
      <point x="0" y="30"/>
      <point x="16" y="13"/>
      <point x="41" y="3" type="curve"/>
      <point x="48" y="1"/>
      <point x="52" y="-8"/>
      <point x="51" y="-19" type="curve"/>
      <point x="51" y="-30"/>
      <point x="46" y="-40"/>
      <point x="38" y="-45" type="curve"/>
      <point x="11" y="-59" type="line" smooth="yes"/>
      <point x="1" y="-64"/>
      <point x="-3" y="-79"/>
      <point x="2" y="-93" type="curve"/>
      <point x="8" y="-107"/>
      <point x="20" y="-115"/>
      <point x="30" y="-110" type="curve" smooth="yes"/>
      <point x="127" y="-64"/>
      <point x="186" y="24"/>
    </contour>
  </outline>
</glyph>
<glyph name="hyphen" format="1">
  <advance width="590"/>
  <unicode hex="002D"/>
  <outline>
    <contour>
      <point x="419" y="431" type="line" smooth="yes"/>
      <point x="432" y="431"/>
      <point x="447" y="467"/>
      <point x="452" y="510" type="curve" smooth="yes"/>
      <point x="458" y="553"/>
      <point x="452" y="589"/>
      <point x="439" y="589" type="curve" smooth="yes"/>
      <point x="35" y="589" type="line" smooth="yes"/>
      <point x="23" y="589"/>
      <point x="8" y="553"/>
      <point x="2" y="510" type="curve" smooth="yes"/>
      <point x="-3" y="467"/>
      <point x="2" y="431"/>
      <point x="15" y="431" type="curve" smooth="yes"/>
    </contour>
  </outline>
</glyph>
<glyph name="period" format="1">
  <advance width="333"/>
  <unicode hex="002E"/>
  <outline>
    <contour>
      <point x="197" y="124" type="line" smooth="yes"/>
      <point x="201" y="154"/>
      <point x="162" y="178"/>
      <point x="110" y="178" type="curve" smooth="yes"/>
      <point x="59" y="178"/>
      <point x="14" y="154"/>
      <point x="10" y="124" type="curve" smooth="yes"/>
      <point x="0" y="50" type="line" smooth="yes"/>
      <point x="-4" y="20"/>
      <point x="35" y="-5"/>
      <point x="87" y="-5" type="curve" smooth="yes"/>
      <point x="138" y="-5"/>
      <point x="183" y="20"/>
      <point x="187" y="50" type="curve" smooth="yes"/>
    </contour>
  </outline>
</glyph>
<glyph name="slash" format="1">
  <advance width="790"/>
  <unicode hex="002F"/>
  <outline>
    <contour>
      <point x="652" y="1022" type="line" smooth="yes"/>
      <point x="664" y="1048"/>
      <point x="640" y="1080"/>
      <point x="598" y="1094" type="curve" smooth="yes"/>
      <point x="556" y="1109"/>
      <point x="513" y="1099"/>
      <point x="501" y="1073" type="curve" smooth="yes"/>
      <point x="3" y="-22" type="line" smooth="yes"/>
      <point x="-9" y="-48"/>
      <point x="15" y="-80"/>
      <point x="57" y="-94" type="curve" smooth="yes"/>
      <point x="99" y="-109"/>
      <point x="142" y="-99"/>
      <point x="154" y="-73" type="curve" smooth="yes"/>
    </contour>
  </outline>
</glyph>
<glyph name="Digit_One" format="1">
  <advance width="386"/>
  <unicode hex="0031"/>
  <outline>
    <contour>
      <point x="385" y="946" type="line" smooth="yes"/>
      <point x="388" y="971"/>
      <point x="368" y="992"/>
      <point x="333" y="1001" type="curve" smooth="yes"/>
      <point x="297" y="1010"/>
      <point x="257" y="1004"/>
      <point x="228" y="986" type="curve"/>
      <point x="15" y="785" type="line" smooth="yes"/>
      <point x="-8" y="763"/>
      <point x="-4" y="720"/>
      <point x="25" y="690" type="curve"/>
      <point x="25" y="690" type="line"/>
      <point x="54" y="660"/>
      <point x="96" y="654"/>
      <point x="119" y="675" type="curve" smooth="yes"/>
      <point x="189" y="741" type="line"/>
      <point x="99" y="48" type="line" smooth="yes"/>
      <point x="95" y="19"/>
      <point x="130" y="-5"/>
      <point x="177" y="-5" type="curve" smooth="yes"/>
      <point x="224" y="-5"/>
      <point x="265" y="19"/>
      <point x="269" y="48" type="curve" smooth="yes"/>
    </contour>
  </outline>
</glyph>
<glyph name="one" format="1">
  <advance width="546"/>
  <unicode hex="0031"/>
  <outline>
    <contour>
      <point x="411" y="981" type="line" smooth="yes"/>
      <point x="412" y="991"/>
      <point x="390" y="1000"/>
      <point x="353" y="1003" type="curve" smooth="yes"/>
      <point x="317" y="1007"/>
      <point x="277" y="1004"/>
      <point x="249" y="997" type="curve"/>
      <point x="3" y="773" type="line"/>
      <point x="-7" y="765"/>
      <point x="10" y="734"/>
      <point x="39" y="704" type="curve" smooth="yes"/>
      <point x="69" y="675"/>
      <point x="101" y="658"/>
      <point x="110" y="667" type="curve"/>
      <point x="212" y="759" type="line"/>
      <point x="115" y="17" type="line" smooth="yes"/>
      <point x="114" y="5"/>
      <point x="150" y="-5"/>
      <point x="197" y="-5" type="curve" smooth="yes"/>
      <point x="244" y="-5"/>
      <point x="284" y="5"/>
      <point x="285" y="17" type="curve" smooth="yes"/>
    </contour>
  </outline>
</glyph>
<glyph name="Digit_Two" format="1">
  <advance width="762"/>
  <unicode hex="0032"/>
  <outline>
    <contour>
      <point x="240" y="157" type="line"/>
      <point x="628" y="157" type="line" smooth="yes"/>
      <point x="660" y="157"/>
      <point x="681" y="122"/>
      <point x="675" y="79" type="curve"/>
      <point x="675" y="79" type="line"/>
      <point x="670" y="35"/>
      <point x="640" y="0"/>
      <point x="608" y="0" type="curve" smooth="yes"/>
      <point x="60" y="0" type="line" smooth="yes"/>
      <point x="20" y="0"/>
      <point x="-6" y="44"/>
      <point x="1" y="98" type="curve"/>
      <point x="1" y="98" type="line"/>
      <point x="5" y="129"/>
      <point x="19" y="157"/>
      <point x="38" y="175" type="curve" smooth="yes"/>
      <point x="557" y="670" type="line" smooth="yes"/>
      <point x="575" y="687"/>
      <point x="587" y="707"/>
      <point x="590" y="729" type="curve"/>
      <point x="590" y="729" type="line"/>
      <point x="598" y="792"/>
      <point x="529" y="843"/>
      <point x="436" y="843" type="curve"/>
      <point x="436" y="843" type="line"/>
      <point x="364" y="843"/>
      <point x="300" y="826"/>
      <point x="254" y="796" type="curve"/>
      <point x="250" y="794" type="line"/>
      <point x="230" y="770"/>
      <point x="186" y="772"/>
      <point x="153" y="799" type="curve"/>
      <point x="153" y="799" type="line"/>
      <point x="121" y="825"/>
      <point x="111" y="866"/>
      <point x="131" y="890" type="curve"/>
      <point x="128" y="888" type="line"/>
      <point x="213" y="961"/>
      <point x="328" y="1000"/>
      <point x="457" y="1000" type="curve"/>
      <point x="457" y="1000" type="line"/>
      <point x="644" y="1000"/>
      <point x="779" y="879"/>
      <point x="760" y="729" type="curve"/>
      <point x="760" y="729" type="line"/>
      <point x="753" y="677"/>
      <point x="728" y="628"/>
      <point x="691" y="587" type="curve"/>
    </contour>
  </outline>
</glyph>
<glyph name="two" format="1">
  <advance width="899"/>
  <unicode hex="0032"/>
  <outline>
    <contour>
      <point x="253" y="157" type="line"/>
      <point x="695" y="590" type="line"/>
      <point x="731" y="631"/>
      <point x="755" y="678"/>
      <point x="762" y="729" type="curve" smooth="yes"/>
      <point x="781" y="879"/>
      <point x="645" y="1000"/>
      <point x="458" y="1000" type="curve" smooth="yes"/>
      <point x="317" y="1000"/>
      <point x="189" y="951"/>
      <point x="109" y="870" type="curve"/>
      <point x="89" y="847"/>
      <point x="99" y="808"/>
      <point x="132" y="781" type="curve" smooth="yes"/>
      <point x="164" y="753"/>
      <point x="206" y="749"/>
      <point x="225" y="771" type="curve" smooth="yes"/>
      <point x="265" y="815"/>
      <point x="346" y="843"/>
      <point x="438" y="843" type="curve" smooth="yes"/>
      <point x="531" y="843"/>
      <point x="600" y="792"/>
      <point x="592" y="729" type="curve" smooth="yes"/>
      <point x="589" y="708"/>
      <point x="577" y="688"/>
      <point x="560" y="671" type="curve" smooth="yes"/>
      <point x="33" y="155" type="line" smooth="yes"/>
      <point x="17" y="140"/>
      <point x="5" y="115"/>
      <point x="1" y="86" type="curve" smooth="yes"/>
      <point x="-5" y="39"/>
      <point x="16" y="0"/>
      <point x="48" y="0" type="curve" smooth="yes"/>
      <point x="613" y="0" type="line" smooth="yes"/>
      <point x="643" y="0"/>
      <point x="671" y="35"/>
      <point x="677" y="79" type="curve" smooth="yes"/>
      <point x="683" y="122"/>
      <point x="663" y="157"/>
      <point x="634" y="157" type="curve" smooth="yes"/>
    </contour>
  </outline>
</glyph>
<glyph name="3" format="1">
  <advance width="790"/>
  <unicode hex="0033"/>
  <outline>
    <contour>
      <point x="473" y="547" type="curve"/>
      <point x="566" y="573"/>
      <point x="641" y="648"/>
      <point x="653" y="736" type="curve"/>
      <point x="653" y="736" type="line"/>
      <point x="672" y="884"/>
      <point x="550" y="1005"/>
      <point x="381" y="1005" type="curve"/>
      <point x="381" y="1005" type="line"/>
      <point x="296" y="1005"/>
      <point x="220" y="978"/>
      <point x="153" y="926" type="curve"/>
      <point x="154" y="925" type="line"/>
      <point x="131" y="903"/>
      <point x="136" y="861"/>
      <point x="164" y="831" type="curve"/>
      <point x="164" y="831" type="line"/>
      <point x="193" y="800"/>
      <point x="235" y="794"/>
      <point x="258" y="816" type="curve"/>
      <point x="259" y="815" type="line"/>
      <point x="289" y="837"/>
      <point x="322" y="847"/>
      <point x="360" y="847" type="curve"/>
      <point x="360" y="847" type="line"/>
      <point x="430" y="847"/>
      <point x="480" y="797"/>
      <point x="472" y="736" type="curve"/>
      <point x="472" y="736" type="line"/>
      <point x="464" y="674"/>
      <point x="401" y="624"/>
      <point x="331" y="624" type="curve"/>
      <point x="331" y="624" type="line"/>
      <point x="304" y="624"/>
      <point x="278" y="589"/>
      <point x="272" y="545" type="curve"/>
      <point x="272" y="545" type="line"/>
      <point x="267" y="502"/>
      <point x="284" y="467"/>
      <point x="311" y="467" type="curve"/>
      <point x="311" y="467" type="line"/>
      <point x="408" y="467"/>
      <point x="478" y="396"/>
      <point x="467" y="310" type="curve"/>
      <point x="467" y="310" type="line"/>
      <point x="456" y="223"/>
      <point x="367" y="153"/>
      <point x="270" y="153" type="curve"/>
      <point x="270" y="153" type="line"/>
      <point x="217" y="153"/>
      <point x="174" y="168"/>
      <point x="141" y="199" type="curve"/>
      <point x="140" y="198" type="line"/>
      <point x="122" y="220"/>
      <point x="78" y="213"/>
      <point x="42" y="183" type="curve"/>
      <point x="42" y="183" type="line"/>
      <point x="5" y="153"/>
      <point x="-10" y="110"/>
      <point x="7" y="88" type="curve"/>
      <point x="6" y="87" type="line"/>
      <point x="69" y="26"/>
      <point x="150" y="-5"/>
      <point x="249" y="-5" type="curve"/>
      <point x="249" y="-5" type="line"/>
      <point x="449" y="-5"/>
      <point x="629" y="136"/>
      <point x="651" y="310" type="curve"/>
      <point x="651" y="310" type="line"/>
      <point x="666" y="423"/>
      <point x="590" y="519"/>
    </contour>
  </outline>
</glyph>
<glyph name="three" format="1">
  <advance width="789"/>
  <unicode hex="0033"/>
  <outline>
    <contour>
      <point x="472" y="547" type="curve"/>
      <point x="566" y="573"/>
      <point x="640" y="648"/>
      <point x="652" y="736" type="curve" smooth="yes"/>
      <point x="671" y="884"/>
      <point x="549" y="1005"/>
      <point x="380" y="1005" type="curve" smooth="yes"/>
      <point x="295" y="1005"/>
      <point x="219" y="978"/>
      <point x="153" y="926" type="curve"/>
      <point x="132" y="905"/>
      <point x="138" y="864"/>
      <point x="167" y="833" type="curve" smooth="yes"/>
      <point x="195" y="803"/>
      <point x="236" y="795"/>
      <point x="258" y="815" type="curve"/>
      <point x="288" y="837"/>
      <point x="322" y="847"/>
      <point x="359" y="847" type="curve" smooth="yes"/>
      <point x="429" y="847"/>
      <point x="480" y="797"/>
      <point x="472" y="736" type="curve" smooth="yes"/>
      <point x="464" y="678"/>
      <point x="408" y="630"/>
      <point x="343" y="625" type="curve" smooth="yes"/>
      <point x="257" y="617" type="line" smooth="yes"/>
      <point x="235" y="615"/>
      <point x="214" y="584"/>
      <point x="209" y="545" type="curve" smooth="yes"/>
      <point x="204" y="507"/>
      <point x="217" y="476"/>
      <point x="239" y="474" type="curve" smooth="yes"/>
      <point x="327" y="466" type="line" smooth="yes"/>
      <point x="416" y="458"/>
      <point x="477" y="391"/>
      <point x="466" y="310" type="curve" smooth="yes"/>
      <point x="455" y="223"/>
      <point x="367" y="153"/>
      <point x="269" y="153" type="curve" smooth="yes"/>
      <point x="216" y="153"/>
      <point x="173" y="168"/>
      <point x="140" y="198" type="curve"/>
      <point x="123" y="218"/>
      <point x="80" y="210"/>
      <point x="43" y="180" type="curve" smooth="yes"/>
      <point x="7" y="150"/>
      <point x="-10" y="109"/>
      <point x="6" y="88" type="curve"/>
      <point x="68" y="26"/>
      <point x="149" y="-5"/>
      <point x="249" y="-5" type="curve" smooth="yes"/>
      <point x="448" y="-5"/>
      <point x="628" y="136"/>
      <point x="651" y="310" type="curve" smooth="yes"/>
      <point x="665" y="423"/>
      <point x="589" y="519"/>
    </contour>
  </outline>
</glyph>
<glyph name="Digit_Four" format="1">
  <advance width="722"/>
  <unicode hex="0034"/>
  <outline>
    <contour>
      <point x="469" y="701" type="line"/>
      <point x="430" y="399" type="line"/>
      <point x="227" y="399" type="line"/>
    </contour>
    <contour>
      <point x="580" y="241" type="line"/>
      <point x="654" y="241" type="line" smooth="yes"/>
      <point x="686" y="241"/>
      <point x="716" y="277"/>
      <point x="721" y="320" type="curve"/>
      <point x="721" y="320" type="line"/>
      <point x="727" y="363"/>
      <point x="706" y="399"/>
      <point x="674" y="399" type="curve" smooth="yes"/>
      <point x="600" y="399" type="line"/>
      <point x="671" y="944" type="line" smooth="yes"/>
      <point x="675" y="977"/>
      <point x="635" y="1005"/>
      <point x="581" y="1005" type="curve"/>
      <point x="581" y="1005" type="line"/>
      <point x="541" y="1005"/>
      <point x="504" y="989"/>
      <point x="486" y="967" type="curve" smooth="yes"/>
      <point x="26" y="393" type="line" smooth="yes"/>
      <point x="13" y="377"/>
      <point x="4" y="355"/>
      <point x="1" y="332" type="curve"/>
      <point x="1" y="332" type="line"/>
      <point x="-5" y="282"/>
      <point x="19" y="241"/>
      <point x="55" y="241" type="curve" smooth="yes"/>
      <point x="410" y="241" type="line"/>
      <point x="385" y="48" type="line" smooth="yes"/>
      <point x="381" y="19"/>
      <point x="416" y="-5"/>
      <point x="463" y="-5" type="curve" smooth="yes"/>
      <point x="510" y="-5"/>
      <point x="551" y="19"/>
      <point x="555" y="48" type="curve" smooth="yes"/>
    </contour>
  </outline>
</glyph>
<glyph name="four" format="1">
  <advance width="861"/>
  <unicode hex="0034"/>
  <outline>
    <contour>
      <point x="474" y="727" type="line"/>
      <point x="432" y="399" type="line"/>
      <point x="212" y="399" type="line"/>
    </contour>
    <contour>
      <point x="581" y="241" type="line"/>
      <point x="690" y="241" type="line" smooth="yes"/>
      <point x="702" y="241"/>
      <point x="717" y="277"/>
      <point x="723" y="320" type="curve" smooth="yes"/>
      <point x="729" y="363"/>
      <point x="723" y="399"/>
      <point x="710" y="399" type="curve" smooth="yes"/>
      <point x="602" y="399" type="line"/>
      <point x="677" y="980" type="line" smooth="yes"/>
      <point x="679" y="994"/>
      <point x="637" y="1005"/>
      <point x="583" y="1005" type="curve" smooth="yes"/>
      <point x="534" y="1005"/>
      <point x="493" y="996"/>
      <point x="484" y="984" type="curve" smooth="yes"/>
      <point x="29" y="415" type="line" smooth="yes"/>
      <point x="18" y="401"/>
      <point x="7" y="369"/>
      <point x="2" y="332" type="curve" smooth="yes"/>
      <point x="-4" y="282"/>
      <point x="3" y="241"/>
      <point x="17" y="241" type="curve" smooth="yes"/>
      <point x="411" y="241" type="line"/>
      <point x="382" y="17" type="line" smooth="yes"/>
      <point x="380" y="5"/>
      <point x="417" y="-5"/>
      <point x="464" y="-5" type="curve" smooth="yes"/>
      <point x="511" y="-5"/>
      <point x="550" y="5"/>
      <point x="552" y="17" type="curve" smooth="yes"/>
    </contour>
  </outline>
</glyph>
<glyph name="5" format="1">
  <advance width="867"/>
  <unicode hex="0035"/>
  <outline>
    <contour>
      <point x="323" y="843" type="line"/>
      <point x="663" y="843" type="line" smooth="yes"/>
      <point x="695" y="843"/>
      <point x="725" y="878"/>
      <point x="731" y="921" type="curve"/>
      <point x="731" y="921" type="line"/>
      <point x="736" y="965"/>
      <point x="715" y="1000"/>
      <point x="684" y="1000" type="curve" smooth="yes"/>
      <point x="243" y="1000" type="line" smooth="yes"/>
      <point x="214" y="1000"/>
      <point x="187" y="972"/>
      <point x="178" y="936" type="curve" smooth="yes"/>
      <point x="68" y="520" type="line" smooth="yes"/>
      <point x="62" y="498"/>
      <point x="68" y="471"/>
      <point x="87" y="449" type="curve"/>
      <point x="87" y="449" type="line"/>
      <point x="113" y="417"/>
      <point x="154" y="408"/>
      <point x="179" y="428" type="curve"/>
      <point x="179" y="428" type="line"/>
      <point x="219" y="454"/>
      <point x="262" y="467"/>
      <point x="311" y="467" type="curve"/>
      <point x="311" y="467" type="line"/>
      <point x="408" y="467"/>
      <point x="478" y="396"/>
      <point x="467" y="310" type="curve"/>
      <point x="467" y="310" type="line"/>
      <point x="456" y="223"/>
      <point x="367" y="153"/>
      <point x="270" y="153" type="curve"/>
      <point x="270" y="153" type="line"/>
      <point x="217" y="153"/>
      <point x="174" y="168"/>
      <point x="141" y="199" type="curve"/>
      <point x="140" y="198" type="line"/>
      <point x="122" y="220"/>
      <point x="78" y="213"/>
      <point x="42" y="183" type="curve"/>
      <point x="42" y="183" type="line"/>
      <point x="5" y="153"/>
      <point x="-10" y="110"/>
      <point x="7" y="88" type="curve"/>
      <point x="6" y="87" type="line"/>
      <point x="69" y="26"/>
      <point x="150" y="-5"/>
      <point x="249" y="-5" type="curve"/>
      <point x="249" y="-5" type="line"/>
      <point x="449" y="-5"/>
      <point x="629" y="136"/>
      <point x="651" y="310" type="curve"/>
      <point x="651" y="310" type="line"/>
      <point x="674" y="483"/>
      <point x="531" y="624"/>
      <point x="331" y="624" type="curve"/>
      <point x="331" y="624" type="line"/>
      <point x="308" y="624"/>
      <point x="286" y="622"/>
      <point x="264" y="619" type="curve"/>
    </contour>
  </outline>
</glyph>
<glyph name="five" format="1">
  <advance width="863"/>
  <unicode hex="0035"/>
  <outline>
    <contour>
      <point x="318" y="843" type="line"/>
      <point x="692" y="843" type="line" smooth="yes"/>
      <point x="705" y="843"/>
      <point x="720" y="878"/>
      <point x="725" y="921" type="curve" smooth="yes"/>
      <point x="731" y="965"/>
      <point x="725" y="1000"/>
      <point x="712" y="1000" type="curve" smooth="yes"/>
      <point x="202" y="1000" type="line" smooth="yes"/>
      <point x="193" y="1000"/>
      <point x="182" y="979"/>
      <point x="175" y="950" type="curve" smooth="yes"/>
      <point x="75" y="540" type="line"/>
      <point x="71" y="527"/>
      <point x="85" y="499"/>
      <point x="107" y="472" type="curve" smooth="yes"/>
      <point x="134" y="439"/>
      <point x="163" y="420"/>
      <point x="173" y="428" type="curve"/>
      <point x="214" y="454"/>
      <point x="257" y="467"/>
      <point x="305" y="467" type="curve" smooth="yes"/>
      <point x="407" y="467"/>
      <point x="481" y="396"/>
      <point x="470" y="310" type="curve" smooth="yes"/>
      <point x="459" y="223"/>
      <point x="367" y="153"/>
      <point x="264" y="153" type="curve" smooth="yes"/>
      <point x="212" y="153"/>
      <point x="168" y="168"/>
      <point x="135" y="198" type="curve"/>
      <point x="127" y="207"/>
      <point x="92" y="189"/>
      <point x="55" y="159" type="curve" smooth="yes"/>
      <point x="19" y="129"/>
      <point x="-5" y="97"/>
      <point x="1" y="88" type="curve"/>
      <point x="63" y="26"/>
      <point x="144" y="-5"/>
      <point x="244" y="-5" type="curve" smooth="yes"/>
      <point x="443" y="-5"/>
      <point x="623" y="136"/>
      <point x="646" y="310" type="curve" smooth="yes"/>
      <point x="668" y="483"/>
      <point x="525" y="624"/>
      <point x="326" y="624" type="curve" smooth="yes"/>
      <point x="304" y="624"/>
      <point x="284" y="623"/>
      <point x="264" y="620" type="curve"/>
    </contour>
  </outline>
</glyph>
<glyph name="6" format="1">
  <advance width="790"/>
  <unicode hex="0036"/>
  <outline>
    <contour>
      <point x="184" y="320" type="curve"/>
      <point x="196" y="413"/>
      <point x="270" y="488"/>
      <point x="349" y="488" type="curve"/>
      <point x="349" y="488" type="line"/>
      <point x="429" y="488"/>
      <point x="483" y="413"/>
      <point x="471" y="320" type="curve"/>
      <point x="471" y="320" type="line"/>
      <point x="459" y="228"/>
      <point x="385" y="153"/>
      <point x="306" y="153" type="curve"/>
      <point x="306" y="153" type="line"/>
      <point x="227" y="153"/>
      <point x="172" y="228"/>
    </contour>
    <contour>
      <point x="403" y="990" type="curve" smooth="yes"/>
      <point x="221" y="790"/>
      <point x="38" y="593"/>
      <point x="3" y="320" type="curve" smooth="yes"/>
      <point x="-21" y="141"/>
      <point x="106" y="-5"/>
      <point x="285" y="-5" type="curve"/>
      <point x="285" y="-5" type="line"/>
      <point x="465" y="-5"/>
      <point x="629" y="141"/>
      <point x="652" y="320" type="curve"/>
      <point x="652" y="320" type="line"/>
      <point x="674" y="485"/>
      <point x="558" y="619"/>
      <point x="392" y="619" type="curve"/>
      <point x="392" y="619" type="line"/>
      <point x="353" y="619"/>
      <point x="314" y="611"/>
      <point x="278" y="597" type="curve"/>
      <point x="278" y="597" type="line"/>
      <point x="344" y="702"/>
      <point x="432" y="796"/>
      <point x="518" y="891" type="curve" smooth="yes"/>
      <point x="539" y="914"/>
      <point x="531" y="956"/>
      <point x="499" y="983" type="curve"/>
      <point x="499" y="983" type="line"/>
      <point x="467" y="1011"/>
      <point x="424" y="1014"/>
    </contour>
  </outline>
</glyph>
<glyph name="Digit_Six" format="1">
  <advance width="655"/>
  <unicode hex="0036"/>
  <outline>
    <contour>
      <point x="184" y="320" type="curve"/>
      <point x="196" y="413"/>
      <point x="270" y="488"/>
      <point x="349" y="488" type="curve"/>
      <point x="349" y="488" type="line"/>
      <point x="429" y="488"/>
      <point x="483" y="413"/>
      <point x="471" y="320" type="curve"/>
      <point x="471" y="320" type="line"/>
      <point x="459" y="228"/>
      <point x="385" y="153"/>
      <point x="306" y="153" type="curve"/>
      <point x="306" y="153" type="line"/>
      <point x="227" y="153"/>
      <point x="172" y="228"/>
    </contour>
    <contour>
      <point x="403" y="990" type="curve" smooth="yes"/>
      <point x="221" y="790"/>
      <point x="38" y="593"/>
      <point x="3" y="320" type="curve" smooth="yes"/>
      <point x="-21" y="141"/>
      <point x="106" y="-5"/>
      <point x="285" y="-5" type="curve"/>
      <point x="285" y="-5" type="line"/>
      <point x="465" y="-5"/>
      <point x="629" y="141"/>
      <point x="652" y="320" type="curve"/>
      <point x="652" y="320" type="line"/>
      <point x="674" y="486"/>
      <point x="557" y="621"/>
      <point x="391" y="621" type="curve"/>
      <point x="391" y="621" type="line"/>
      <point x="353" y="621"/>
      <point x="315" y="614"/>
      <point x="280" y="600" type="curve"/>
      <point x="280" y="600" type="line"/>
      <point x="346" y="704"/>
      <point x="433" y="797"/>
      <point x="518" y="891" type="curve" smooth="yes"/>
      <point x="539" y="914"/>
      <point x="531" y="956"/>
      <point x="499" y="983" type="curve"/>
      <point x="499" y="983" type="line"/>
      <point x="467" y="1011"/>
      <point x="424" y="1014"/>
    </contour>
  </outline>
</glyph>
<glyph name="six" format="1">
  <advance width="790"/>
  <unicode hex="0036"/>
  <outline>
    <contour>
      <point x="177" y="320" type="curve" smooth="yes"/>
      <point x="189" y="413"/>
      <point x="266" y="488"/>
      <point x="349" y="488" type="curve" smooth="yes"/>
      <point x="432" y="488"/>
      <point x="490" y="413"/>
      <point x="478" y="320" type="curve" smooth="yes"/>
      <point x="466" y="228"/>
      <point x="389" y="153"/>
      <point x="306" y="153" type="curve" smooth="yes"/>
      <point x="223" y="153"/>
      <point x="165" y="228"/>
    </contour>
    <contour>
      <point x="405" y="1010" type="curve" smooth="yes"/>
      <point x="218" y="804"/>
      <point x="39" y="599"/>
      <point x="3" y="320" type="curve" smooth="yes"/>
      <point x="-21" y="141"/>
      <point x="106" y="-5"/>
      <point x="285" y="-5" type="curve" smooth="yes"/>
      <point x="465" y="-5"/>
      <point x="629" y="141"/>
      <point x="652" y="320" type="curve" smooth="yes"/>
      <point x="674" y="486"/>
      <point x="557" y="621"/>
      <point x="391" y="621" type="curve" smooth="yes"/>
      <point x="350" y="621"/>
      <point x="310" y="612"/>
      <point x="272" y="598" type="curve"/>
      <point x="339" y="710"/>
      <point x="429" y="810"/>
      <point x="520" y="911" type="curve" smooth="yes"/>
      <point x="529" y="921"/>
      <point x="510" y="950"/>
      <point x="478" y="978" type="curve" smooth="yes"/>
      <point x="447" y="1005"/>
      <point x="414" y="1020"/>
    </contour>
  </outline>
</glyph>
<glyph name="7" format="1">
  <advance width="881"/>
  <unicode hex="0037"/>
  <outline>
    <contour>
      <point x="516" y="847" type="line"/>
      <point x="406" y="699" type="line" smooth="yes"/>
      <point x="253" y="494"/>
      <point x="146" y="293"/>
      <point x="115" y="48" type="curve" smooth="yes"/>
      <point x="111" y="19"/>
      <point x="146" y="-5"/>
      <point x="193" y="-5" type="curve" smooth="yes"/>
      <point x="240" y="-5"/>
      <point x="281" y="19"/>
      <point x="285" y="48" type="curve" smooth="yes"/>
      <point x="312" y="261"/>
      <point x="402" y="435"/>
      <point x="534" y="613" type="curve" smooth="yes"/>
      <point x="724" y="869" type="line" smooth="yes"/>
      <point x="743" y="894"/>
      <point x="750" y="927"/>
      <point x="744" y="957" type="curve"/>
      <point x="744" y="957" type="line"/>
      <point x="738" y="987"/>
      <point x="719" y="1005"/>
      <point x="695" y="1005" type="curve" smooth="yes"/>
      <point x="69" y="1005" type="line" smooth="yes"/>
      <point x="37" y="1005"/>
      <point x="7" y="970"/>
      <point x="1" y="926" type="curve"/>
      <point x="1" y="926" type="line"/>
      <point x="-5" y="883"/>
      <point x="16" y="847"/>
      <point x="48" y="847" type="curve" smooth="yes"/>
    </contour>
  </outline>
</glyph>
<glyph name="seven" format="1">
  <advance width="836"/>
  <unicode hex="0037"/>
  <outline>
    <contour>
      <point x="486" y="847" type="line"/>
      <point x="347" y="627" type="line" smooth="yes"/>
      <point x="229" y="437"/>
      <point x="134" y="261"/>
      <point x="106" y="45" type="curve" smooth="yes"/>
      <point x="102" y="17"/>
      <point x="137" y="-5"/>
      <point x="184" y="-5" type="curve" smooth="yes"/>
      <point x="231" y="-5"/>
      <point x="272" y="17"/>
      <point x="276" y="45" type="curve" smooth="yes"/>
      <point x="300" y="234"/>
      <point x="381" y="387"/>
      <point x="485" y="554" type="curve" smooth="yes"/>
      <point x="681" y="867" type="line" smooth="yes"/>
      <point x="698" y="894"/>
      <point x="705" y="928"/>
      <point x="698" y="957" type="curve" smooth="yes"/>
      <point x="692" y="987"/>
      <point x="675" y="1005"/>
      <point x="652" y="1005" type="curve" smooth="yes"/>
      <point x="64" y="1005" type="line" smooth="yes"/>
      <point x="35" y="1005"/>
      <point x="7" y="970"/>
      <point x="1" y="926" type="curve" smooth="yes"/>
      <point x="-5" y="883"/>
      <point x="15" y="847"/>
      <point x="44" y="847" type="curve" smooth="yes"/>
    </contour>
  </outline>
</glyph>
<glyph name="eight" format="1">
  <advance width="817"/>
  <unicode hex="0038"/>
  <outline>
    <contour>
      <point x="318" y="153" type="curve" smooth="yes"/>
      <point x="229" y="153"/>
      <point x="166" y="223"/>
      <point x="177" y="310" type="curve" smooth="yes"/>
      <point x="189" y="396"/>
      <point x="270" y="467"/>
      <point x="359" y="467" type="curve" smooth="yes"/>
      <point x="448" y="467"/>
      <point x="511" y="396"/>
      <point x="500" y="310" type="curve" smooth="yes"/>
      <point x="489" y="223"/>
      <point x="407" y="153"/>
    </contour>
    <contour>
      <point x="379" y="624" type="curve" smooth="yes"/>
      <point x="317" y="624"/>
      <point x="274" y="674"/>
      <point x="282" y="736" type="curve" smooth="yes"/>
      <point x="290" y="797"/>
      <point x="347" y="847"/>
      <point x="409" y="847" type="curve" smooth="yes"/>
      <point x="471" y="847"/>
      <point x="514" y="797"/>
      <point x="506" y="736" type="curve" smooth="yes"/>
      <point x="498" y="674"/>
      <point x="442" y="624"/>
    </contour>
    <contour>
      <point x="429" y="1005" type="curve" smooth="yes"/>
      <point x="271" y="1005"/>
      <point x="128" y="884"/>
      <point x="108" y="736" type="curve" smooth="yes"/>
      <point x="98" y="655"/>
      <point x="136" y="585"/>
      <point x="202" y="549" type="curve"/>
      <point x="98" y="509"/>
      <point x="16" y="417"/>
      <point x="2" y="310" type="curve" smooth="yes"/>
      <point x="-20" y="136"/>
      <point x="112" y="-5"/>
      <point x="298" y="-5" type="curve" smooth="yes"/>
      <point x="483" y="-5"/>
      <point x="652" y="136"/>
      <point x="675" y="310" type="curve" smooth="yes"/>
      <point x="689" y="417"/>
      <point x="631" y="509"/>
      <point x="538" y="549" type="curve"/>
      <point x="613" y="585"/>
      <point x="669" y="655"/>
      <point x="680" y="736" type="curve" smooth="yes"/>
      <point x="699" y="884"/>
      <point x="587" y="1005"/>
    </contour>
  </outline>
</glyph>
<glyph name="9" format="1">
  <advance width="790"/>
  <unicode hex="0039"/>
  <outline>
    <contour>
      <point x="471" y="680" type="curve"/>
      <point x="471" y="680" type="line"/>
      <point x="459" y="587"/>
      <point x="385" y="512"/>
      <point x="306" y="512" type="curve"/>
      <point x="306" y="512" type="line"/>
      <point x="226" y="512"/>
      <point x="172" y="587"/>
      <point x="184" y="680" type="curve"/>
      <point x="184" y="680" type="line"/>
      <point x="196" y="772"/>
      <point x="270" y="847"/>
      <point x="349" y="847" type="curve"/>
      <point x="349" y="847" type="line"/>
      <point x="428" y="847"/>
      <point x="483" y="772"/>
    </contour>
    <contour>
      <point x="252" y="10" type="curve" smooth="yes"/>
      <point x="434" y="210"/>
      <point x="617" y="407"/>
      <point x="652" y="680" type="curve" smooth="yes"/>
      <point x="676" y="859"/>
      <point x="549" y="1005"/>
      <point x="370" y="1005" type="curve"/>
      <point x="370" y="1005" type="line"/>
      <point x="190" y="1005"/>
      <point x="26" y="859"/>
      <point x="2" y="680" type="curve"/>
      <point x="2" y="680" type="line"/>
      <point x="-19" y="515"/>
      <point x="97" y="381"/>
      <point x="263" y="381" type="curve"/>
      <point x="263" y="381" type="line"/>
      <point x="302" y="381"/>
      <point x="341" y="389"/>
      <point x="377" y="403" type="curve"/>
      <point x="377" y="403" type="line"/>
      <point x="311" y="298"/>
      <point x="223" y="204"/>
      <point x="137" y="109" type="curve" smooth="yes"/>
      <point x="116" y="86"/>
      <point x="124" y="44"/>
      <point x="156" y="17" type="curve"/>
      <point x="156" y="17" type="line"/>
      <point x="188" y="-11"/>
      <point x="231" y="-14"/>
    </contour>
  </outline>
</glyph>
<glyph name="Digit_Nine" format="1">
  <advance width="790"/>
  <unicode hex="0039"/>
  <outline>
    <contour>
      <point x="471" y="680" type="curve"/>
      <point x="471" y="680" type="line"/>
      <point x="459" y="587"/>
      <point x="385" y="512"/>
      <point x="306" y="512" type="curve"/>
      <point x="306" y="512" type="line"/>
      <point x="226" y="512"/>
      <point x="172" y="587"/>
      <point x="184" y="680" type="curve"/>
      <point x="184" y="680" type="line"/>
      <point x="196" y="772"/>
      <point x="270" y="847"/>
      <point x="349" y="847" type="curve"/>
      <point x="349" y="847" type="line"/>
      <point x="428" y="847"/>
      <point x="483" y="772"/>
    </contour>
    <contour>
      <point x="252" y="10" type="curve" smooth="yes"/>
      <point x="434" y="210"/>
      <point x="617" y="407"/>
      <point x="652" y="680" type="curve" smooth="yes"/>
      <point x="676" y="859"/>
      <point x="549" y="1005"/>
      <point x="370" y="1005" type="curve"/>
      <point x="370" y="1005" type="line"/>
      <point x="190" y="1005"/>
      <point x="26" y="859"/>
      <point x="2" y="680" type="curve"/>
      <point x="2" y="680" type="line"/>
      <point x="-19" y="514"/>
      <point x="98" y="379"/>
      <point x="264" y="379" type="curve"/>
      <point x="264" y="379" type="line"/>
      <point x="302" y="379"/>
      <point x="340" y="386"/>
      <point x="375" y="400" type="curve"/>
      <point x="375" y="400" type="line"/>
      <point x="309" y="296"/>
      <point x="222" y="203"/>
      <point x="137" y="109" type="curve" smooth="yes"/>
      <point x="116" y="86"/>
      <point x="124" y="44"/>
      <point x="156" y="17" type="curve"/>
      <point x="156" y="17" type="line"/>
      <point x="188" y="-11"/>
      <point x="231" y="-14"/>
    </contour>
  </outline>
</glyph>
<glyph name="nine" format="1">
  <advance width="790"/>
  <unicode hex="0039"/>
  <outline>
    <contour>
      <point x="478" y="680" type="curve" smooth="yes"/>
      <point x="466" y="587"/>
      <point x="389" y="512"/>
      <point x="306" y="512" type="curve" smooth="yes"/>
      <point x="223" y="512"/>
      <point x="165" y="587"/>
      <point x="177" y="680" type="curve" smooth="yes"/>
      <point x="189" y="772"/>
      <point x="266" y="847"/>
      <point x="349" y="847" type="curve" smooth="yes"/>
      <point x="432" y="847"/>
      <point x="490" y="772"/>
    </contour>
    <contour>
      <point x="250" y="-10" type="curve" smooth="yes"/>
      <point x="437" y="196"/>
      <point x="616" y="401"/>
      <point x="652" y="680" type="curve" smooth="yes"/>
      <point x="676" y="859"/>
      <point x="549" y="1005"/>
      <point x="370" y="1005" type="curve" smooth="yes"/>
      <point x="190" y="1005"/>
      <point x="26" y="859"/>
      <point x="2" y="680" type="curve" smooth="yes"/>
      <point x="-19" y="514"/>
      <point x="98" y="379"/>
      <point x="264" y="379" type="curve" smooth="yes"/>
      <point x="305" y="379"/>
      <point x="345" y="388"/>
      <point x="383" y="402" type="curve"/>
      <point x="316" y="290"/>
      <point x="226" y="190"/>
      <point x="135" y="89" type="curve" smooth="yes"/>
      <point x="126" y="79"/>
      <point x="145" y="50"/>
      <point x="177" y="22" type="curve" smooth="yes"/>
      <point x="208" y="-5"/>
      <point x="241" y="-20"/>
    </contour>
  </outline>
</glyph>
<glyph name="colon" format="1">
  <advance width="391"/>
  <unicode hex="003A"/>
  <outline>
    <contour>
      <point x="204" y="149" type="line" smooth="yes"/>
      <point x="206" y="162"/>
      <point x="165" y="173"/>
      <point x="114" y="173" type="curve" smooth="yes"/>
      <point x="62" y="173"/>
      <point x="19" y="162"/>
      <point x="17" y="149" type="curve" smooth="yes"/>
      <point x="0" y="19" type="line" smooth="yes"/>
      <point x="-2" y="6"/>
      <point x="39" y="-5"/>
      <point x="90" y="-5" type="curve" smooth="yes"/>
      <point x="142" y="-5"/>
      <point x="185" y="6"/>
      <point x="187" y="19" type="curve" smooth="yes"/>
    </contour>
    <contour>
      <point x="256" y="549" type="line" smooth="yes"/>
      <point x="258" y="562"/>
      <point x="217" y="573"/>
      <point x="166" y="573" type="curve" smooth="yes"/>
      <point x="114" y="573"/>
      <point x="71" y="562"/>
      <point x="69" y="549" type="curve" smooth="yes"/>
      <point x="52" y="419" type="line" smooth="yes"/>
      <point x="50" y="406"/>
      <point x="91" y="395"/>
      <point x="142" y="395" type="curve" smooth="yes"/>
      <point x="194" y="395"/>
      <point x="237" y="406"/>
      <point x="239" y="419" type="curve" smooth="yes"/>
    </contour>
  </outline>
</glyph>
<glyph name="semicolon" format="1">
  <advance width="387"/>
  <unicode hex="003B"/>
  <outline>
    <contour>
      <point x="199" y="124" type="curve" smooth="yes"/>
      <point x="203" y="154"/>
      <point x="165" y="178"/>
      <point x="113" y="178" type="curve" smooth="yes"/>
      <point x="61" y="178"/>
      <point x="16" y="154"/>
      <point x="12" y="124" type="curve" smooth="yes"/>
      <point x="3" y="50" type="line" smooth="yes"/>
      <point x="0" y="30"/>
      <point x="16" y="13"/>
      <point x="41" y="3" type="curve"/>
      <point x="48" y="1"/>
      <point x="52" y="-8"/>
      <point x="51" y="-19" type="curve"/>
      <point x="51" y="-30"/>
      <point x="46" y="-40"/>
      <point x="38" y="-45" type="curve"/>
      <point x="11" y="-59" type="line" smooth="yes"/>
      <point x="1" y="-64"/>
      <point x="-3" y="-79"/>
      <point x="2" y="-93" type="curve"/>
      <point x="8" y="-107"/>
      <point x="20" y="-115"/>
      <point x="30" y="-110" type="curve" smooth="yes"/>
      <point x="127" y="-64"/>
      <point x="186" y="24"/>
    </contour>
    <contour>
      <point x="251" y="524" type="line" smooth="yes"/>
      <point x="255" y="554"/>
      <point x="217" y="578"/>
      <point x="165" y="578" type="curve" smooth="yes"/>
      <point x="113" y="578"/>
      <point x="68" y="554"/>
      <point x="64" y="524" type="curve" smooth="yes"/>
      <point x="55" y="450" type="line" smooth="yes"/>
      <point x="51" y="420"/>
      <point x="90" y="395"/>
      <point x="141" y="395" type="curve" smooth="yes"/>
      <point x="193" y="395"/>
      <point x="238" y="420"/>
      <point x="242" y="450" type="curve" smooth="yes"/>
    </contour>
  </outline>
</glyph>
<glyph name="less" format="1">
  <advance width="765"/>
  <unicode hex="003C"/>
  <outline>
    <contour>
      <point x="472" y="208" type="line" smooth="yes"/>
      <point x="478" y="205"/>
      <point x="486" y="204"/>
      <point x="494" y="206" type="curve"/>
      <point x="526" y="212"/>
      <point x="561" y="250"/>
      <point x="573" y="291" type="curve" smooth="yes"/>
      <point x="581" y="320"/>
      <point x="574" y="344"/>
      <point x="558" y="352" type="curve" smooth="yes"/>
      <point x="235" y="510" type="line"/>
      <point x="599" y="668" type="line" smooth="yes"/>
      <point x="617" y="676"/>
      <point x="630" y="700"/>
      <point x="630" y="729" type="curve" smooth="yes"/>
      <point x="629" y="770"/>
      <point x="604" y="808"/>
      <point x="573" y="814" type="curve"/>
      <point x="565" y="816"/>
      <point x="557" y="815"/>
      <point x="550" y="812" type="curve" smooth="yes"/>
      <point x="55" y="596" type="line" smooth="yes"/>
      <point x="29" y="585"/>
      <point x="6" y="551"/>
      <point x="1" y="510" type="curve" smooth="yes"/>
      <point x="-4" y="469"/>
      <point x="9" y="435"/>
      <point x="33" y="424" type="curve" smooth="yes"/>
    </contour>
  </outline>
</glyph>
<glyph name="equal" format="1">
  <advance width="833"/>
  <unicode hex="003D"/>
  <outline>
    <contour>
      <point x="662" y="596" type="line" smooth="yes"/>
      <point x="675" y="596"/>
      <point x="689" y="632"/>
      <point x="695" y="675" type="curve" smooth="yes"/>
      <point x="701" y="718"/>
      <point x="695" y="754"/>
      <point x="682" y="754" type="curve" smooth="yes"/>
      <point x="78" y="754" type="line" smooth="yes"/>
      <point x="66" y="754"/>
      <point x="51" y="718"/>
      <point x="45" y="675" type="curve" smooth="yes"/>
      <point x="39" y="632"/>
      <point x="45" y="596"/>
      <point x="58" y="596" type="curve" smooth="yes"/>
    </contour>
    <contour>
      <point x="619" y="266" type="line" smooth="yes"/>
      <point x="632" y="266"/>
      <point x="647" y="302"/>
      <point x="652" y="345" type="curve" smooth="yes"/>
      <point x="658" y="388"/>
      <point x="652" y="424"/>
      <point x="639" y="424" type="curve" smooth="yes"/>
      <point x="35" y="424" type="line" smooth="yes"/>
      <point x="23" y="424"/>
      <point x="8" y="388"/>
      <point x="2" y="345" type="curve" smooth="yes"/>
      <point x="-3" y="302"/>
      <point x="2" y="266"/>
      <point x="15" y="266" type="curve" smooth="yes"/>
    </contour>
  </outline>
</glyph>
<glyph name="greater" format="1">
  <advance width="765"/>
  <unicode hex="003E"/>
  <outline>
    <contour>
      <point x="79" y="208" type="curve" smooth="yes"/>
      <point x="574" y="424" type="line" smooth="yes"/>
      <point x="601" y="435"/>
      <point x="623" y="469"/>
      <point x="629" y="510" type="curve" smooth="yes"/>
      <point x="634" y="551"/>
      <point x="620" y="585"/>
      <point x="597" y="596" type="curve" smooth="yes"/>
      <point x="158" y="812" type="line" smooth="yes"/>
      <point x="152" y="815"/>
      <point x="144" y="816"/>
      <point x="135" y="814" type="curve" smooth="yes"/>
      <point x="103" y="808"/>
      <point x="68" y="770"/>
      <point x="57" y="729" type="curve" smooth="yes"/>
      <point x="49" y="700"/>
      <point x="56" y="676"/>
      <point x="72" y="668" type="curve" smooth="yes"/>
      <point x="394" y="510" type="line"/>
      <point x="31" y="352" type="line" smooth="yes"/>
      <point x="12" y="344"/>
      <point x="0" y="320"/>
      <point x="0" y="291" type="curve" smooth="yes"/>
      <point x="1" y="250"/>
      <point x="26" y="212"/>
      <point x="56" y="206" type="curve" smooth="yes"/>
      <point x="65" y="204"/>
      <point x="72" y="205"/>
    </contour>
  </outline>
</glyph>
<glyph name="question" format="1">
  <advance width="723"/>
  <unicode hex="003F"/>
  <outline>
    <contour>
      <point x="299" y="149" type="line"/>
      <point x="300" y="162"/>
      <point x="260" y="173"/>
      <point x="208" y="173" type="curve" smooth="yes"/>
      <point x="156" y="173"/>
      <point x="113" y="162"/>
      <point x="112" y="149" type="curve"/>
      <point x="95" y="19" type="line" smooth="yes"/>
      <point x="93" y="6"/>
      <point x="133" y="-5"/>
      <point x="185" y="-5" type="curve" smooth="yes"/>
      <point x="237" y="-5"/>
      <point x="280" y="6"/>
      <point x="282" y="19" type="curve" smooth="yes"/>
    </contour>
    <contour>
      <point x="0" y="809" type="curve"/>
      <point x="-4" y="797"/>
      <point x="26" y="778"/>
      <point x="69" y="764" type="curve" smooth="yes"/>
      <point x="111" y="751"/>
      <point x="149" y="750"/>
      <point x="155" y="761" type="curve" smooth="yes"/>
      <point x="184" y="820"/>
      <point x="251" y="856"/>
      <point x="317" y="846" type="curve" smooth="yes"/>
      <point x="382" y="836"/>
      <point x="424" y="784"/>
      <point x="415" y="722" type="curve" smooth="yes"/>
      <point x="409" y="672"/>
      <point x="382" y="626"/>
      <point x="334" y="600" type="curve" smooth="yes"/>
      <point x="232" y="545"/>
      <point x="160" y="454"/>
      <point x="145" y="341" type="curve" smooth="yes"/>
      <point x="143" y="330"/>
      <point x="180" y="320"/>
      <point x="227" y="320" type="curve" smooth="yes"/>
      <point x="274" y="320"/>
      <point x="313" y="330"/>
      <point x="315" y="341" type="curve"/>
      <point x="321" y="391"/>
      <point x="348" y="437"/>
      <point x="396" y="463" type="curve" smooth="yes"/>
      <point x="498" y="518"/>
      <point x="571" y="609"/>
      <point x="585" y="722" type="curve" smooth="yes"/>
      <point x="604" y="862"/>
      <point x="511" y="979"/>
      <point x="364" y="1001" type="curve" smooth="yes"/>
      <point x="216" y="1023"/>
      <point x="64" y="943"/>
    </contour>
  </outline>
</glyph>
<glyph name="A" format="1">
  <advance width="1038"/>
  <unicode hex="0041"/>
  <outline>
    <contour>
      <point x="353" y="399" type="line"/>
      <point x="546" y="771" type="line"/>
      <point x="641" y="399" type="line"/>
    </contour>
    <contour>
      <point x="737" y="28" type="line"/>
      <point x="751" y="1"/>
      <point x="799" y="-12"/>
      <point x="844" y="-1" type="curve" smooth="yes"/>
      <point x="889" y="10"/>
      <point x="913" y="41"/>
      <point x="899" y="69" type="curve"/>
      <point x="669" y="964" type="line"/>
      <point x="655" y="989"/>
      <point x="619" y="1005"/>
      <point x="575" y="1005" type="curve" smooth="yes"/>
      <point x="530" y="1004"/>
      <point x="491" y="988"/>
      <point x="471" y="962" type="curve"/>
      <point x="9" y="68" type="line"/>
      <point x="-12" y="40"/>
      <point x="6" y="9"/>
      <point x="48" y="-1" type="curve" smooth="yes"/>
      <point x="91" y="-12"/>
      <point x="142" y="2"/>
      <point x="162" y="29" type="curve"/>
      <point x="272" y="241" type="line"/>
      <point x="682" y="241" type="line"/>
    </contour>
  </outline>
</glyph>
<glyph name="Latin_Capital_Letter_A" format="1">
  <advance width="1039"/>
  <unicode hex="0041"/>
  <outline>
    <contour>
      <point x="354" y="399" type="line"/>
      <point x="545" y="769" type="line"/>
      <point x="641" y="399" type="line"/>
    </contour>
    <contour>
      <point x="734" y="36" type="line" smooth="yes"/>
      <point x="741" y="7"/>
      <point x="785" y="-10"/>
      <point x="831" y="-3" type="curve" smooth="yes"/>
      <point x="878" y="4"/>
      <point x="910" y="32"/>
      <point x="902" y="61" type="curve" smooth="yes"/>
      <point x="673" y="954" type="line" smooth="yes"/>
      <point x="665" y="984"/>
      <point x="626" y="1005"/>
      <point x="576" y="1005" type="curve" smooth="yes"/>
      <point x="526" y="1005"/>
      <point x="482" y="984"/>
      <point x="466" y="954" type="curve" smooth="yes"/>
      <point x="5" y="61" type="line" smooth="yes"/>
      <point x="-5" y="42"/>
      <point x="1" y="23"/>
      <point x="22" y="10" type="curve" smooth="yes"/>
      <point x="43" y="-4"/>
      <point x="72" y="-8"/>
      <point x="103" y="-3" type="curve" smooth="yes"/>
      <point x="134" y="3"/>
      <point x="157" y="17"/>
      <point x="167" y="36" type="curve" smooth="yes"/>
      <point x="273" y="241" type="line"/>
      <point x="681" y="241" type="line"/>
    </contour>
  </outline>
</glyph>
<glyph name="B" format="1">
  <advance width="869"/>
  <unicode hex="0042"/>
  <outline>
    <contour>
      <point x="226" y="451" type="line"/>
      <point x="421" y="451" type="line" smooth="yes"/>
      <point x="507" y="451"/>
      <point x="567" y="386"/>
      <point x="557" y="304" type="curve" smooth="yes"/>
      <point x="546" y="223"/>
      <point x="468" y="157"/>
      <point x="383" y="157" type="curve" smooth="yes"/>
      <point x="187" y="157" type="line"/>
    </contour>
    <contour>
      <point x="276" y="843" type="line"/>
      <point x="445" y="843" type="line" smooth="yes"/>
      <point x="513" y="843"/>
      <point x="561" y="790"/>
      <point x="552" y="726" type="curve" smooth="yes"/>
      <point x="544" y="661"/>
      <point x="482" y="609"/>
      <point x="414" y="609" type="curve" smooth="yes"/>
      <point x="246" y="609" type="line"/>
    </contour>
    <contour>
      <point x="363" y="0" type="line" smooth="yes"/>
      <point x="544" y="0"/>
      <point x="709" y="136"/>
      <point x="731" y="304" type="curve" smooth="yes"/>
      <point x="746" y="418"/>
      <point x="673" y="512"/>
      <point x="561" y="536" type="curve"/>
      <point x="647" y="565"/>
      <point x="715" y="639"/>
      <point x="726" y="726" type="curve" smooth="yes"/>
      <point x="746" y="877"/>
      <point x="629" y="1000"/>
      <point x="465" y="1000" type="curve" smooth="yes"/>
      <point x="225" y="1000" type="line" smooth="yes"/>
      <point x="171" y="1000"/>
      <point x="125" y="989"/>
      <point x="124" y="976" type="curve"/>
      <point x="0" y="24" type="line" smooth="yes"/>
      <point x="-2" y="11"/>
      <point x="41" y="0"/>
      <point x="95" y="0" type="curve" smooth="yes"/>
    </contour>
  </outline>
</glyph>
<glyph name="Latin_Capital_Letter_B" format="1">
  <advance width="891"/>
  <unicode hex="0042"/>
  <outline>
    <contour>
      <point x="221" y="451" type="line"/>
      <point x="444" y="451" type="line" smooth="yes"/>
      <point x="525" y="451"/>
      <point x="583" y="386"/>
      <point x="572" y="304" type="curve"/>
      <point x="572" y="304" type="line"/>
      <point x="561" y="223"/>
      <point x="487" y="157"/>
      <point x="406" y="157" type="curve" smooth="yes"/>
      <point x="183" y="157" type="line"/>
    </contour>
    <contour>
      <point x="272" y="843" type="line"/>
      <point x="447" y="843" type="line" smooth="yes"/>
      <point x="512" y="843"/>
      <point x="558" y="790"/>
      <point x="549" y="726" type="curve"/>
      <point x="549" y="726" type="line"/>
      <point x="541" y="661"/>
      <point x="482" y="609"/>
      <point x="417" y="609" type="curve" smooth="yes"/>
      <point x="241" y="609" type="line"/>
    </contour>
    <contour>
      <point x="385" y="0" type="line" smooth="yes"/>
      <point x="567" y="0"/>
      <point x="732" y="136"/>
      <point x="754" y="304" type="curve"/>
      <point x="754" y="304" type="line"/>
      <point x="769" y="422"/>
      <point x="689" y="520"/>
      <point x="570" y="538" type="curve"/>
      <point x="570" y="538" type="line"/>
      <point x="653" y="569"/>
      <point x="718" y="642"/>
      <point x="729" y="726" type="curve"/>
      <point x="729" y="726" type="line"/>
      <point x="748" y="877"/>
      <point x="632" y="1000"/>
      <point x="468" y="1000" type="curve" smooth="yes"/>
      <point x="220" y="1000" type="line" smooth="yes"/>
      <point x="166" y="1000"/>
      <point x="119" y="973"/>
      <point x="114" y="939" type="curve" smooth="yes"/>
      <point x="0" y="61" type="line" smooth="yes"/>
      <point x="-4" y="27"/>
      <point x="36" y="0"/>
      <point x="90" y="0" type="curve" smooth="yes"/>
    </contour>
  </outline>
</glyph>
<glyph name="C" format="1">
  <advance width="947"/>
  <unicode hex="0043"/>
  <outline>
    <contour>
      <point x="398" y="0" type="line" smooth="yes"/>
      <point x="516" y="0"/>
      <point x="629" y="53"/>
      <point x="716" y="138" type="curve"/>
      <point x="724" y="148"/>
      <point x="709" y="180"/>
      <point x="681" y="210" type="curve" smooth="yes"/>
      <point x="653" y="241"/>
      <point x="622" y="259"/>
      <point x="612" y="251" type="curve"/>
      <point x="558" y="194"/>
      <point x="489" y="157"/>
      <point x="419" y="157" type="curve" smooth="yes"/>
      <point x="389" y="157" type="line" smooth="yes"/>
      <point x="243" y="157"/>
      <point x="160" y="298"/>
      <point x="183" y="472" type="curve" smooth="yes"/>
      <point x="190" y="528" type="line" smooth="yes"/>
      <point x="211" y="694"/>
      <point x="341" y="843"/>
      <point x="478" y="843" type="curve" smooth="yes"/>
      <point x="508" y="843" type="line" smooth="yes"/>
      <point x="583" y="843"/>
      <point x="642" y="808"/>
      <point x="679" y="751" type="curve"/>
      <point x="687" y="742"/>
      <point x="722" y="760"/>
      <point x="758" y="790" type="curve" smooth="yes"/>
      <point x="794" y="821"/>
      <point x="818" y="853"/>
      <point x="811" y="862" type="curve" smooth="yes"/>
      <point x="745" y="947"/>
      <point x="646" y="1000"/>
      <point x="528" y="1000" type="curve" smooth="yes"/>
      <point x="498" y="1000" type="line" smooth="yes"/>
      <point x="263" y="1000"/>
      <point x="46" y="788"/>
      <point x="12" y="528" type="curve" smooth="yes"/>
      <point x="4" y="472" type="line" smooth="yes"/>
      <point x="-29" y="212"/>
      <point x="133" y="0"/>
      <point x="368" y="0" type="curve" smooth="yes"/>
    </contour>
  </outline>
</glyph>
<glyph name="D" format="1">
  <advance width="959"/>
  <unicode hex="0044"/>
  <outline>
    <contour>
      <point x="326" y="0" type="line" smooth="yes"/>
      <point x="561" y="0"/>
      <point x="778" y="212"/>
      <point x="812" y="472" type="curve" smooth="yes"/>
      <point x="820" y="528" type="line" smooth="yes"/>
      <point x="853" y="788"/>
      <point x="691" y="1000"/>
      <point x="456" y="1000" type="curve" smooth="yes"/>
      <point x="221" y="1000" type="line" smooth="yes"/>
      <point x="167" y="1000"/>
      <point x="120" y="975"/>
      <point x="116" y="943" type="curve" smooth="yes"/>
      <point x="0" y="57" type="line" smooth="yes"/>
      <point x="-4" y="25"/>
      <point x="37" y="0"/>
      <point x="91" y="0" type="curve" smooth="yes"/>
    </contour>
    <contour>
      <point x="272" y="843" type="line"/>
      <point x="455" y="843" type="line" smooth="yes"/>
      <point x="593" y="843"/>
      <point x="672" y="702"/>
      <point x="650" y="528" type="curve" smooth="yes"/>
      <point x="642" y="472" type="line" smooth="yes"/>
      <point x="621" y="306"/>
      <point x="496" y="157"/>
      <point x="366" y="157" type="curve" smooth="yes"/>
      <point x="183" y="157" type="line"/>
    </contour>
  </outline>
</glyph>
<glyph name="Latin_Capital_Letter_D" format="1">
  <advance width="1004"/>
  <unicode hex="0044"/>
  <outline>
    <contour>
      <point x="371" y="0" type="line" smooth="yes"/>
      <point x="606" y="0"/>
      <point x="823" y="212"/>
      <point x="857" y="472" type="curve" smooth="yes"/>
      <point x="864" y="528" type="line" smooth="yes"/>
      <point x="898" y="788"/>
      <point x="736" y="1000"/>
      <point x="501" y="1000" type="curve" smooth="yes"/>
      <point x="220" y="1000" type="line" smooth="yes"/>
      <point x="166" y="1000"/>
      <point x="119" y="973"/>
      <point x="114" y="939" type="curve" smooth="yes"/>
      <point x="0" y="61" type="line" smooth="yes"/>
      <point x="-4" y="27"/>
      <point x="36" y="0"/>
      <point x="90" y="0" type="curve" smooth="yes"/>
    </contour>
    <contour>
      <point x="272" y="843" type="line"/>
      <point x="500" y="843" type="line" smooth="yes"/>
      <point x="638" y="843"/>
      <point x="717" y="702"/>
      <point x="694" y="528" type="curve" smooth="yes"/>
      <point x="687" y="472" type="line" smooth="yes"/>
      <point x="665" y="306"/>
      <point x="541" y="157"/>
      <point x="411" y="157" type="curve" smooth="yes"/>
      <point x="183" y="157" type="line"/>
    </contour>
  </outline>
</glyph>
<glyph name="E" format="1">
  <advance width="902"/>
  <unicode hex="0045"/>
  <outline>
    <contour>
      <point x="590" y="6" type="line" smooth="yes"/>
      <point x="622" y="6"/>
      <point x="652" y="42"/>
      <point x="658" y="85" type="curve"/>
      <point x="658" y="85" type="line"/>
      <point x="663" y="128"/>
      <point x="642" y="164"/>
      <point x="610" y="164" type="curve" smooth="yes"/>
      <point x="184" y="164" type="line"/>
      <point x="218" y="431" type="line"/>
      <point x="471" y="431" type="line" smooth="yes"/>
      <point x="503" y="431"/>
      <point x="533" y="467"/>
      <point x="538" y="510" type="curve"/>
      <point x="538" y="510" type="line"/>
      <point x="544" y="553"/>
      <point x="523" y="589"/>
      <point x="491" y="589" type="curve" smooth="yes"/>
      <point x="239" y="589" type="line"/>
      <point x="271" y="836" type="line"/>
      <point x="698" y="836" type="line" smooth="yes"/>
      <point x="729" y="836"/>
      <point x="760" y="872"/>
      <point x="765" y="915" type="curve"/>
      <point x="765" y="915" type="line"/>
      <point x="771" y="958"/>
      <point x="750" y="994"/>
      <point x="718" y="994" type="curve" smooth="yes"/>
      <point x="220" y="1000" type="line" smooth="yes"/>
      <point x="166" y="1000"/>
      <point x="119" y="973"/>
      <point x="114" y="939" type="curve" smooth="yes"/>
      <point x="0" y="61" type="line" smooth="yes"/>
      <point x="-4" y="27"/>
      <point x="36" y="0"/>
      <point x="90" y="0" type="curve" smooth="yes"/>
    </contour>
  </outline>
</glyph>
<glyph name="Latin_Capital_Letter_E" format="1">
  <advance width="898"/>
  <unicode hex="0045"/>
  <outline>
    <contour>
      <point x="585" y="0" type="line" smooth="yes"/>
      <point x="616" y="0"/>
      <point x="647" y="35"/>
      <point x="652" y="79" type="curve"/>
      <point x="652" y="79" type="line"/>
      <point x="658" y="122"/>
      <point x="637" y="157"/>
      <point x="605" y="157" type="curve" smooth="yes"/>
      <point x="183" y="157" type="line"/>
      <point x="218" y="431" type="line"/>
      <point x="471" y="431" type="line" smooth="yes"/>
      <point x="503" y="431"/>
      <point x="533" y="467"/>
      <point x="538" y="510" type="curve"/>
      <point x="538" y="510" type="line"/>
      <point x="544" y="553"/>
      <point x="523" y="589"/>
      <point x="491" y="589" type="curve" smooth="yes"/>
      <point x="239" y="589" type="line"/>
      <point x="272" y="843" type="line"/>
      <point x="694" y="843" type="line" smooth="yes"/>
      <point x="726" y="843"/>
      <point x="756" y="878"/>
      <point x="762" y="921" type="curve"/>
      <point x="762" y="921" type="line"/>
      <point x="768" y="965"/>
      <point x="746" y="1000"/>
      <point x="715" y="1000" type="curve" smooth="yes"/>
      <point x="220" y="1000" type="line" smooth="yes"/>
      <point x="166" y="1000"/>
      <point x="119" y="973"/>
      <point x="114" y="939" type="curve" smooth="yes"/>
      <point x="0" y="61" type="line" smooth="yes"/>
      <point x="-4" y="27"/>
      <point x="36" y="0"/>
      <point x="90" y="0" type="curve" smooth="yes"/>
    </contour>
  </outline>
</glyph>
<glyph name="F" format="1">
  <advance width="882"/>
  <unicode hex="0046"/>
  <outline>
    <contour>
      <point x="170" y="17" type="curve" smooth="yes"/>
      <point x="224" y="431" type="line"/>
      <point x="471" y="431" type="line" smooth="yes"/>
      <point x="484" y="431"/>
      <point x="499" y="467"/>
      <point x="504" y="510" type="curve" smooth="yes"/>
      <point x="510" y="553"/>
      <point x="504" y="589"/>
      <point x="492" y="589" type="curve" smooth="yes"/>
      <point x="244" y="589" type="line"/>
      <point x="277" y="843" type="line"/>
      <point x="712" y="843" type="line" smooth="yes"/>
      <point x="724" y="843"/>
      <point x="739" y="878"/>
      <point x="745" y="921" type="curve" smooth="yes"/>
      <point x="751" y="965"/>
      <point x="745" y="1000"/>
      <point x="732" y="1000" type="curve" smooth="yes"/>
      <point x="226" y="1000" type="line" smooth="yes"/>
      <point x="172" y="1000"/>
      <point x="126" y="989"/>
      <point x="125" y="976" type="curve"/>
      <point x="0" y="17" type="line" smooth="yes"/>
      <point x="-1" y="5"/>
      <point x="35" y="-5"/>
      <point x="82" y="-5" type="curve" smooth="yes"/>
      <point x="129" y="-5"/>
      <point x="169" y="5"/>
    </contour>
  </outline>
</glyph>
<glyph name="G" format="1">
  <advance width="1023"/>
  <unicode hex="0047"/>
  <outline>
    <contour>
      <point x="534" y="549" type="line" smooth="yes"/>
      <point x="502" y="549"/>
      <point x="472" y="513"/>
      <point x="466" y="470" type="curve" smooth="yes"/>
      <point x="461" y="427"/>
      <point x="482" y="391"/>
      <point x="513" y="391" type="curve" smooth="yes"/>
      <point x="695" y="391" type="line"/>
      <point x="649" y="261"/>
      <point x="537" y="157"/>
      <point x="419" y="157" type="curve" smooth="yes"/>
      <point x="389" y="157" type="line" smooth="yes"/>
      <point x="251" y="157"/>
      <point x="172" y="298"/>
      <point x="195" y="472" type="curve" smooth="yes"/>
      <point x="202" y="528" type="line" smooth="yes"/>
      <point x="223" y="694"/>
      <point x="348" y="843"/>
      <point x="478" y="843" type="curve" smooth="yes"/>
      <point x="508" y="843" type="line" smooth="yes"/>
      <point x="583" y="843"/>
      <point x="642" y="808"/>
      <point x="679" y="751" type="curve"/>
      <point x="697" y="729"/>
      <point x="741" y="736"/>
      <point x="777" y="767" type="curve" smooth="yes"/>
      <point x="814" y="797"/>
      <point x="828" y="840"/>
      <point x="811" y="862" type="curve" smooth="yes"/>
      <point x="745" y="947"/>
      <point x="646" y="1000"/>
      <point x="528" y="1000" type="curve" smooth="yes"/>
      <point x="498" y="1000" type="line" smooth="yes"/>
      <point x="263" y="1000"/>
      <point x="46" y="788"/>
      <point x="12" y="528" type="curve" smooth="yes"/>
      <point x="4" y="472" type="line" smooth="yes"/>
      <point x="-29" y="212"/>
      <point x="133" y="0"/>
      <point x="368" y="0" type="curve" smooth="yes"/>
      <point x="398" y="0" type="line" smooth="yes"/>
      <point x="633" y="0"/>
      <point x="850" y="210"/>
      <point x="886" y="470" type="curve" smooth="yes"/>
      <point x="894" y="513"/>
      <point x="873" y="549"/>
      <point x="841" y="549" type="curve" smooth="yes"/>
    </contour>
  </outline>
</glyph>
<glyph name="H" format="1">
  <advance width="1008"/>
  <unicode hex="0048"/>
  <outline>
    <contour>
      <point x="224" y="431" type="line"/>
      <point x="631" y="431" type="line"/>
      <point x="577" y="17" type="line" smooth="yes"/>
      <point x="575" y="5"/>
      <point x="612" y="-5"/>
      <point x="659" y="-5" type="curve" smooth="yes"/>
      <point x="706" y="-5"/>
      <point x="745" y="5"/>
      <point x="747" y="17" type="curve" smooth="yes"/>
      <point x="873" y="983" type="line" smooth="yes"/>
      <point x="874" y="995"/>
      <point x="837" y="1005"/>
      <point x="790" y="1005" type="curve" smooth="yes"/>
      <point x="743" y="1005"/>
      <point x="704" y="995"/>
      <point x="703" y="983" type="curve" smooth="yes"/>
      <point x="651" y="589" type="line"/>
      <point x="244" y="589" type="line"/>
      <point x="296" y="983" type="line" smooth="yes"/>
      <point x="297" y="995"/>
      <point x="260" y="1005"/>
      <point x="213" y="1005" type="curve" smooth="yes"/>
      <point x="167" y="1005"/>
      <point x="127" y="995"/>
      <point x="126" y="983" type="curve" smooth="yes"/>
      <point x="0" y="17" type="line" smooth="yes"/>
      <point x="-1" y="5"/>
      <point x="35" y="-5"/>
      <point x="82" y="-5" type="curve" smooth="yes"/>
      <point x="129" y="-5"/>
      <point x="169" y="5"/>
      <point x="170" y="17" type="curve" smooth="yes"/>
    </contour>
  </outline>
</glyph>
<glyph name="I" format="1">
  <advance width="424"/>
  <unicode hex="0049"/>
  <outline>
    <contour>
      <point x="289" y="955" type="line" smooth="yes"/>
      <point x="292" y="983"/>
      <point x="257" y="1005"/>
      <point x="210" y="1005" type="curve" smooth="yes"/>
      <point x="163" y="1005"/>
      <point x="122" y="983"/>
      <point x="119" y="955" type="curve" smooth="yes"/>
      <point x="0" y="45" type="line" smooth="yes"/>
      <point x="-3" y="17"/>
      <point x="32" y="-5"/>
      <point x="79" y="-5" type="curve" smooth="yes"/>
      <point x="126" y="-5"/>
      <point x="167" y="17"/>
      <point x="170" y="45" type="curve" smooth="yes"/>
    </contour>
  </outline>
</glyph>
<glyph name="Latin_Capital_Letter_I" format="1">
  <advance width="423"/>
  <unicode hex="0049"/>
  <outline>
    <contour>
      <point x="288" y="952" type="line" smooth="yes"/>
      <point x="291" y="981"/>
      <point x="257" y="1005"/>
      <point x="210" y="1005" type="curve" smooth="yes"/>
      <point x="163" y="1005"/>
      <point x="121" y="981"/>
      <point x="118" y="952" type="curve" smooth="yes"/>
      <point x="0" y="48" type="line" smooth="yes"/>
      <point x="-4" y="19"/>
      <point x="31" y="-5"/>
      <point x="78" y="-5" type="curve" smooth="yes"/>
      <point x="125" y="-5"/>
      <point x="166" y="19"/>
      <point x="170" y="48" type="curve" smooth="yes"/>
    </contour>
  </outline>
</glyph>
<glyph name="J" format="1">
  <advance width="661"/>
  <unicode hex="004A"/>
  <outline>
    <contour>
      <point x="249" y="163" type="line"/>
      <point x="248" y="159"/>
      <point x="233" y="155"/>
      <point x="209" y="153" type="curve" smooth="yes"/>
      <point x="186" y="152"/>
      <point x="161" y="153"/>
      <point x="143" y="156" type="curve"/>
      <point x="124" y="180"/>
      <point x="78" y="174"/>
      <point x="41" y="143" type="curve" smooth="yes"/>
      <point x="4" y="113"/>
      <point x="-11" y="68"/>
      <point x="8" y="44" type="curve"/>
      <point x="70" y="-5"/>
      <point x="164" y="-19"/>
      <point x="256" y="8" type="curve" smooth="yes"/>
      <point x="348" y="35"/>
      <point x="410" y="93"/>
      <point x="419" y="163" type="curve" smooth="yes"/>
      <point x="525" y="983" type="line" smooth="yes"/>
      <point x="527" y="995"/>
      <point x="490" y="1005"/>
      <point x="443" y="1005" type="curve" smooth="yes"/>
      <point x="396" y="1005"/>
      <point x="357" y="995"/>
      <point x="355" y="983" type="curve" smooth="yes"/>
    </contour>
  </outline>
</glyph>
<glyph name="K" format="1">
  <advance width="916"/>
  <unicode hex="004B"/>
  <outline>
    <contour>
      <point x="210" y="348" type="line"/>
      <point x="277" y="416" type="line"/>
      <point x="502" y="25" type="line"/>
      <point x="513" y="0"/>
      <point x="558" y="-8"/>
      <point x="603" y="7" type="curve" smooth="yes"/>
      <point x="648" y="21"/>
      <point x="676" y="53"/>
      <point x="666" y="77" type="curve"/>
      <point x="395" y="536" type="line"/>
      <point x="774" y="919" type="line"/>
      <point x="792" y="943"/>
      <point x="775" y="975"/>
      <point x="734" y="991" type="curve" smooth="yes"/>
      <point x="694" y="1008"/>
      <point x="646" y="1002"/>
      <point x="628" y="978" type="curve"/>
      <point x="239" y="575" type="line"/>
      <point x="289" y="955" type="line" smooth="yes"/>
      <point x="292" y="983"/>
      <point x="257" y="1005"/>
      <point x="210" y="1005" type="curve" smooth="yes"/>
      <point x="163" y="1005"/>
      <point x="122" y="983"/>
      <point x="119" y="955" type="curve" smooth="yes"/>
      <point x="0" y="45" type="line" smooth="yes"/>
      <point x="-3" y="17"/>
      <point x="32" y="-5"/>
      <point x="79" y="-5" type="curve" smooth="yes"/>
      <point x="126" y="-5"/>
      <point x="167" y="17"/>
      <point x="170" y="45" type="curve" smooth="yes"/>
    </contour>
  </outline>
</glyph>
<glyph name="Latin_Capital_Letter_K" format="1">
  <advance width="786"/>
  <unicode hex="004B"/>
  <outline>
    <contour>
      <point x="198" y="258" type="line"/>
      <point x="310" y="389" type="line"/>
      <point x="502" y="28" type="line" smooth="yes"/>
      <point x="516" y="1"/>
      <point x="564" y="-12"/>
      <point x="609" y="-1" type="curve" smooth="yes"/>
      <point x="654" y="11"/>
      <point x="679" y="42"/>
      <point x="664" y="69" type="curve" smooth="yes"/>
      <point x="423" y="521" type="line"/>
      <point x="775" y="930" type="line" smooth="yes"/>
      <point x="790" y="947"/>
      <point x="790" y="966"/>
      <point x="774" y="982" type="curve" smooth="yes"/>
      <point x="758" y="998"/>
      <point x="731" y="1006"/>
      <point x="699" y="1004" type="curve" smooth="yes"/>
      <point x="668" y="1003"/>
      <point x="641" y="991"/>
      <point x="626" y="974" type="curve" smooth="yes"/>
      <point x="231" y="514" type="line"/>
      <point x="288" y="952" type="line" smooth="yes"/>
      <point x="291" y="981"/>
      <point x="257" y="1005"/>
      <point x="210" y="1005" type="curve" smooth="yes"/>
      <point x="163" y="1005"/>
      <point x="121" y="981"/>
      <point x="118" y="952" type="curve" smooth="yes"/>
      <point x="0" y="48" type="line" smooth="yes"/>
      <point x="-4" y="19"/>
      <point x="31" y="-5"/>
      <point x="78" y="-5" type="curve" smooth="yes"/>
      <point x="125" y="-5"/>
      <point x="166" y="19"/>
      <point x="170" y="48" type="curve" smooth="yes"/>
    </contour>
  </outline>
</glyph>
<glyph name="L" format="1">
  <advance width="771"/>
  <unicode hex="004C"/>
  <outline>
    <contour>
      <point x="571" y="0" type="line" smooth="yes"/>
      <point x="601" y="0"/>
      <point x="629" y="35"/>
      <point x="635" y="79" type="curve" smooth="yes"/>
      <point x="640" y="122"/>
      <point x="621" y="157"/>
      <point x="592" y="157" type="curve" smooth="yes"/>
      <point x="183" y="157" type="line"/>
      <point x="287" y="955" type="line" smooth="yes"/>
      <point x="291" y="983"/>
      <point x="255" y="1005"/>
      <point x="208" y="1005" type="curve" smooth="yes"/>
      <point x="162" y="1005"/>
      <point x="121" y="983"/>
      <point x="117" y="955" type="curve" smooth="yes"/>
      <point x="0" y="57" type="line" smooth="yes"/>
      <point x="-4" y="25"/>
      <point x="37" y="0"/>
      <point x="91" y="0" type="curve" smooth="yes"/>
    </contour>
  </outline>
</glyph>
<glyph name="Latin_Capital_Letter_M" format="1">
  <advance width="1264"/>
  <unicode hex="004D"/>
  <outline>
    <contour>
      <point x="468" y="45" type="line" smooth="yes"/>
      <point x="473" y="16"/>
      <point x="509" y="-4"/>
      <point x="556" y="-5" type="curve" smooth="yes"/>
      <point x="603" y="-5"/>
      <point x="646" y="15"/>
      <point x="659" y="43" type="curve" smooth="yes"/>
      <point x="919" y="661" type="line"/>
      <point x="958" y="42" type="line" smooth="yes"/>
      <point x="960" y="13"/>
      <point x="1000" y="-8"/>
      <point x="1047" y="-4" type="curve" smooth="yes"/>
      <point x="1094" y="-1"/>
      <point x="1131" y="26"/>
      <point x="1129" y="55" type="curve" smooth="yes"/>
      <point x="1063" y="951" type="line" smooth="yes"/>
      <point x="1060" y="981"/>
      <point x="1025" y="1003"/>
      <point x="977" y="1005" type="curve" smooth="yes"/>
      <point x="929" y="1006"/>
      <point x="885" y="986"/>
      <point x="871" y="957" type="curve"/>
      <point x="588" y="268" type="line"/>
      <point x="495" y="955" type="line" smooth="yes"/>
      <point x="490" y="985"/>
      <point x="451" y="1006"/>
      <point x="402" y="1005" type="curve" smooth="yes"/>
      <point x="354" y="1004"/>
      <point x="311" y="982"/>
      <point x="301" y="951" type="curve" smooth="yes"/>
      <point x="2" y="55" type="line" smooth="yes"/>
      <point x="-5" y="36"/>
      <point x="5" y="18"/>
      <point x="28" y="6" type="curve" smooth="yes"/>
      <point x="52" y="-6"/>
      <point x="82" y="-8"/>
      <point x="112" y="-1" type="curve" smooth="yes"/>
      <point x="142" y="7"/>
      <point x="162" y="22"/>
      <point x="169" y="42" type="curve" smooth="yes"/>
      <point x="375" y="678" type="line"/>
    </contour>
  </outline>
</glyph>
<glyph name="M" format="1">
  <advance width="1264"/>
  <unicode hex="004D"/>
  <outline>
    <contour>
      <point x="470" y="38" type="line"/>
      <point x="480" y="12"/>
      <point x="514" y="-5"/>
      <point x="557" y="-5" type="curve" smooth="yes"/>
      <point x="601" y="-5"/>
      <point x="640" y="12"/>
      <point x="656" y="38" type="curve"/>
      <point x="919" y="662" type="line"/>
      <point x="959" y="37" type="line"/>
      <point x="963" y="18"/>
      <point x="982" y="4"/>
      <point x="1011" y="-2" type="curve" smooth="yes"/>
      <point x="1040" y="-8"/>
      <point x="1071" y="-4"/>
      <point x="1096" y="9" type="curve" smooth="yes"/>
      <point x="1120" y="22"/>
      <point x="1132" y="41"/>
      <point x="1128" y="60" type="curve"/>
      <point x="1062" y="957" type="line"/>
      <point x="1056" y="984"/>
      <point x="1022" y="1003"/>
      <point x="977" y="1005" type="curve" smooth="yes"/>
      <point x="932" y="1006"/>
      <point x="891" y="989"/>
      <point x="874" y="962" type="curve"/>
      <point x="587" y="266" type="line"/>
      <point x="492" y="962" type="line"/>
      <point x="482" y="989"/>
      <point x="445" y="1006"/>
      <point x="400" y="1005" type="curve" smooth="yes"/>
      <point x="354" y="1003"/>
      <point x="315" y="984"/>
      <point x="303" y="956" type="curve"/>
      <point x="3" y="59" type="line"/>
      <point x="-10" y="30"/>
      <point x="16" y="2"/>
      <point x="62" y="-4" type="curve" smooth="yes"/>
      <point x="107" y="-10"/>
      <point x="154" y="9"/>
      <point x="167" y="38" type="curve"/>
      <point x="375" y="680" type="line"/>
    </contour>
  </outline>
</glyph>
<glyph name="Latin_Capital_Letter_N" format="1">
  <advance width="885"/>
  <unicode hex="004E"/>
  <outline>
    <contour>
      <point x="251" y="668" type="line"/>
      <point x="577" y="34" type="line" smooth="yes"/>
      <point x="591" y="6"/>
      <point x="634" y="-9"/>
      <point x="681" y="-4" type="curve" smooth="yes"/>
      <point x="729" y="2"/>
      <point x="765" y="27"/>
      <point x="768" y="56" type="curve" smooth="yes"/>
      <point x="885" y="952" type="line" smooth="yes"/>
      <point x="889" y="981"/>
      <point x="854" y="1005"/>
      <point x="807" y="1005" type="curve" smooth="yes"/>
      <point x="760" y="1005"/>
      <point x="719" y="981"/>
      <point x="715" y="952" type="curve" smooth="yes"/>
      <point x="634" y="332" type="line"/>
      <point x="308" y="966" type="line" smooth="yes"/>
      <point x="294" y="994"/>
      <point x="251" y="1009"/>
      <point x="204" y="1004" type="curve" smooth="yes"/>
      <point x="156" y="998"/>
      <point x="120" y="973"/>
      <point x="117" y="944" type="curve" smooth="yes"/>
      <point x="0" y="48" type="line" smooth="yes"/>
      <point x="-4" y="19"/>
      <point x="31" y="-5"/>
      <point x="78" y="-5" type="curve" smooth="yes"/>
      <point x="125" y="-5"/>
      <point x="166" y="19"/>
      <point x="170" y="48" type="curve" smooth="yes"/>
    </contour>
  </outline>
</glyph>
<glyph name="N" format="1">
  <advance width="1028"/>
  <unicode hex="004E"/>
  <outline>
    <contour>
      <point x="258" y="693" type="line"/>
      <point x="573" y="16" type="line" smooth="yes"/>
      <point x="579" y="3"/>
      <point x="622" y="-6"/>
      <point x="674" y="-5" type="curve" smooth="yes"/>
      <point x="725" y="-4"/>
      <point x="766" y="7"/>
      <point x="768" y="20" type="curve" smooth="yes"/>
      <point x="893" y="983" type="line" smooth="yes"/>
      <point x="894" y="995"/>
      <point x="858" y="1005"/>
      <point x="811" y="1005" type="curve" smooth="yes"/>
      <point x="764" y="1005"/>
      <point x="724" y="995"/>
      <point x="723" y="983" type="curve" smooth="yes"/>
      <point x="635" y="307" type="line"/>
      <point x="320" y="984" type="line" smooth="yes"/>
      <point x="314" y="997"/>
      <point x="270" y="1006"/>
      <point x="219" y="1005" type="curve" smooth="yes"/>
      <point x="168" y="1004"/>
      <point x="127" y="993"/>
      <point x="125" y="980" type="curve" smooth="yes"/>
      <point x="0" y="17" type="line" smooth="yes"/>
      <point x="-1" y="5"/>
      <point x="35" y="-5"/>
      <point x="82" y="-5" type="curve" smooth="yes"/>
      <point x="129" y="-5"/>
      <point x="169" y="5"/>
      <point x="170" y="17" type="curve" smooth="yes"/>
    </contour>
  </outline>
</glyph>
<glyph name="Latin_Capital_Letter_O" format="1">
  <advance width="1031"/>
  <unicode hex="004F"/>
  <outline>
    <contour>
      <point x="194" y="472" type="curve" smooth="yes"/>
      <point x="201" y="528" type="line" smooth="yes"/>
      <point x="222" y="694"/>
      <point x="347" y="843"/>
      <point x="477" y="843" type="curve" smooth="yes"/>
      <point x="508" y="843" type="line" smooth="yes"/>
      <point x="646" y="843"/>
      <point x="725" y="702"/>
      <point x="702" y="528" type="curve" smooth="yes"/>
      <point x="695" y="472" type="line" smooth="yes"/>
      <point x="674" y="306"/>
      <point x="549" y="157"/>
      <point x="419" y="157" type="curve" smooth="yes"/>
      <point x="388" y="157" type="line" smooth="yes"/>
      <point x="250" y="157"/>
      <point x="171" y="298"/>
    </contour>
    <contour>
      <point x="4" y="472" type="line" smooth="yes"/>
      <point x="-29" y="212"/>
      <point x="133" y="0"/>
      <point x="368" y="0" type="curve" smooth="yes"/>
      <point x="398" y="0" type="line" smooth="yes"/>
      <point x="633" y="0"/>
      <point x="850" y="212"/>
      <point x="884" y="472" type="curve" smooth="yes"/>
      <point x="892" y="528" type="line" smooth="yes"/>
      <point x="925" y="788"/>
      <point x="763" y="1000"/>
      <point x="528" y="1000" type="curve" smooth="yes"/>
      <point x="498" y="1000" type="line" smooth="yes"/>
      <point x="263" y="1000"/>
      <point x="46" y="788"/>
      <point x="12" y="528" type="curve" smooth="yes"/>
    </contour>
  </outline>
</glyph>
<glyph name="Latin_Capital_Letter_P" format="1">
  <advance width="750"/>
  <unicode hex="0050"/>
  <outline>
    <contour>
      <point x="170" y="48" type="curve" smooth="yes"/>
      <point x="212" y="371" type="line"/>
      <point x="367" y="371" type="line" smooth="yes"/>
      <point x="554" y="371"/>
      <point x="724" y="509"/>
      <point x="746" y="679" type="curve"/>
      <point x="747" y="692" type="line"/>
      <point x="769" y="862"/>
      <point x="636" y="1000"/>
      <point x="448" y="1000" type="curve" smooth="yes"/>
      <point x="222" y="1000" type="line" smooth="yes"/>
      <point x="168" y="1000"/>
      <point x="120" y="973"/>
      <point x="116" y="939" type="curve" smooth="yes"/>
      <point x="0" y="48" type="line" smooth="yes"/>
      <point x="-4" y="19"/>
      <point x="31" y="-5"/>
      <point x="78" y="-5" type="curve" smooth="yes"/>
      <point x="125" y="-5"/>
      <point x="166" y="19"/>
    </contour>
    <contour>
      <point x="274" y="843" type="line"/>
      <point x="428" y="843" type="line" smooth="yes"/>
      <point x="514" y="843"/>
      <point x="575" y="775"/>
      <point x="565" y="692" type="curve" smooth="yes"/>
      <point x="563" y="679" type="line" smooth="yes"/>
      <point x="552" y="595"/>
      <point x="473" y="529"/>
      <point x="387" y="529" type="curve" smooth="yes"/>
      <point x="233" y="529" type="line"/>
    </contour>
  </outline>
</glyph>
<glyph name="P" format="1">
  <advance width="880"/>
  <unicode hex="0050"/>
  <outline>
    <contour>
      <point x="170" y="17" type="curve" smooth="yes"/>
      <point x="216" y="371" type="line"/>
      <point x="362" y="371" type="line" smooth="yes"/>
      <point x="549" y="371"/>
      <point x="718" y="509"/>
      <point x="741" y="679" type="curve"/>
      <point x="742" y="692" type="line"/>
      <point x="764" y="862"/>
      <point x="630" y="1000"/>
      <point x="443" y="1000" type="curve" smooth="yes"/>
      <point x="226" y="1000" type="line" smooth="yes"/>
      <point x="172" y="1000"/>
      <point x="126" y="989"/>
      <point x="125" y="976" type="curve"/>
      <point x="0" y="17" type="line" smooth="yes"/>
      <point x="-1" y="5"/>
      <point x="35" y="-5"/>
      <point x="82" y="-5" type="curve" smooth="yes"/>
      <point x="129" y="-5"/>
      <point x="169" y="5"/>
    </contour>
    <contour>
      <point x="277" y="843" type="line"/>
      <point x="423" y="843" type="line" smooth="yes"/>
      <point x="513" y="843"/>
      <point x="578" y="775"/>
      <point x="567" y="692" type="curve" smooth="yes"/>
      <point x="565" y="679" type="line" smooth="yes"/>
      <point x="555" y="595"/>
      <point x="473" y="529"/>
      <point x="382" y="529" type="curve" smooth="yes"/>
      <point x="237" y="529" type="line"/>
    </contour>
  </outline>
</glyph>
<glyph name="Latin_Capital_Letter_Q" format="1">
  <advance width="896"/>
  <unicode hex="0051"/>
  <outline>
    <contour>
      <point x="194" y="472" type="curve" smooth="yes"/>
      <point x="201" y="528" type="line" smooth="yes"/>
      <point x="223" y="694"/>
      <point x="347" y="843"/>
      <point x="477" y="843" type="curve" smooth="yes"/>
      <point x="508" y="843" type="line" smooth="yes"/>
      <point x="647" y="843"/>
      <point x="725" y="702"/>
      <point x="703" y="528" type="curve" smooth="yes"/>
      <point x="696" y="472" type="line" smooth="yes"/>
      <point x="674" y="306"/>
      <point x="549" y="157"/>
      <point x="419" y="157" type="curve" smooth="yes"/>
      <point x="388" y="157" type="line" smooth="yes"/>
      <point x="250" y="157"/>
      <point x="171" y="298"/>
    </contour>
    <contour>
      <point x="5" y="473" type="line" smooth="yes"/>
      <point x="-19" y="286"/>
      <point x="49" y="128"/>
      <point x="189" y="47" type="curve"/>
      <point x="626" y="-177" type="line"/>
      <point x="648" y="-197"/>
      <point x="688" y="-182"/>
      <point x="716" y="-146" type="curve"/>
      <point x="716" y="-146" type="line"/>
      <point x="744" y="-109"/>
      <point x="749" y="-63"/>
      <point x="728" y="-44" type="curve"/>
      <point x="552" y="30" type="line"/>
      <point x="722" y="98"/>
      <point x="858" y="270"/>
      <point x="885" y="472" type="curve" smooth="yes"/>
      <point x="892" y="528" type="line" smooth="yes"/>
      <point x="926" y="788"/>
      <point x="763" y="1000"/>
      <point x="529" y="1000" type="curve" smooth="yes"/>
      <point x="498" y="1000" type="line" smooth="yes"/>
      <point x="263" y="1000"/>
      <point x="46" y="788"/>
      <point x="12" y="528" type="curve" smooth="yes"/>
    </contour>
  </outline>
</glyph>
<glyph name="Q" format="1">
  <advance width="1031"/>
  <unicode hex="0051"/>
  <outline>
    <contour>
      <point x="194" y="472" type="curve" smooth="yes"/>
      <point x="201" y="528" type="line" smooth="yes"/>
      <point x="222" y="694"/>
      <point x="347" y="843"/>
      <point x="477" y="843" type="curve" smooth="yes"/>
      <point x="508" y="843" type="line" smooth="yes"/>
      <point x="646" y="843"/>
      <point x="725" y="702"/>
      <point x="702" y="528" type="curve" smooth="yes"/>
      <point x="695" y="472" type="line" smooth="yes"/>
      <point x="674" y="306"/>
      <point x="549" y="157"/>
      <point x="419" y="157" type="curve" smooth="yes"/>
      <point x="388" y="157" type="line" smooth="yes"/>
      <point x="250" y="157"/>
      <point x="171" y="298"/>
    </contour>
    <contour>
      <point x="4" y="472" type="line" smooth="yes"/>
      <point x="-29" y="212"/>
      <point x="133" y="0"/>
      <point x="368" y="0" type="curve" smooth="yes"/>
      <point x="398" y="0" type="line" smooth="yes"/>
      <point x="399" y="0"/>
      <point x="400" y="0"/>
      <point x="400" y="0" type="curve"/>
      <point x="622" y="-175" type="line" smooth="yes"/>
      <point x="644" y="-193"/>
      <point x="687" y="-178"/>
      <point x="717" y="-142" type="curve"/>
      <point x="717" y="-142" type="line"/>
      <point x="747" y="-107"/>
      <point x="754" y="-63"/>
      <point x="732" y="-46" type="curve"/>
      <point x="579" y="42" type="line"/>
      <point x="736" y="116"/>
      <point x="860" y="281"/>
      <point x="884" y="472" type="curve" smooth="yes"/>
      <point x="892" y="528" type="line" smooth="yes"/>
      <point x="925" y="788"/>
      <point x="763" y="1000"/>
      <point x="528" y="1000" type="curve" smooth="yes"/>
      <point x="498" y="1000" type="line" smooth="yes"/>
      <point x="263" y="1000"/>
      <point x="46" y="788"/>
      <point x="12" y="528" type="curve" smooth="yes"/>
    </contour>
  </outline>
</glyph>
<glyph name="Latin_Capital_Letter_R" format="1">
  <advance width="750"/>
  <unicode hex="0052"/>
  <outline>
    <contour>
      <point x="212" y="371" type="line"/>
      <point x="365" y="371" type="line"/>
      <point x="496" y="32" type="line" smooth="yes"/>
      <point x="506" y="4"/>
      <point x="552" y="-11"/>
      <point x="598" y="-2" type="curve" smooth="yes"/>
      <point x="644" y="7"/>
      <point x="672" y="37"/>
      <point x="662" y="65" type="curve" smooth="yes"/>
      <point x="530" y="407" type="line"/>
      <point x="644" y="459"/>
      <point x="730" y="561"/>
      <point x="746" y="679" type="curve"/>
      <point x="747" y="692" type="line"/>
      <point x="769" y="862"/>
      <point x="636" y="1000"/>
      <point x="448" y="1000" type="curve" smooth="yes"/>
      <point x="222" y="1000" type="line" smooth="yes"/>
      <point x="168" y="1000"/>
      <point x="120" y="973"/>
      <point x="116" y="939" type="curve" smooth="yes"/>
      <point x="0" y="48" type="line" smooth="yes"/>
      <point x="-4" y="19"/>
      <point x="31" y="-5"/>
      <point x="78" y="-5" type="curve" smooth="yes"/>
      <point x="125" y="-5"/>
      <point x="166" y="19"/>
      <point x="170" y="48" type="curve" smooth="yes"/>
    </contour>
    <contour>
      <point x="274" y="843" type="line"/>
      <point x="428" y="843" type="line" smooth="yes"/>
      <point x="514" y="843"/>
      <point x="575" y="775"/>
      <point x="565" y="692" type="curve" smooth="yes"/>
      <point x="563" y="679" type="line" smooth="yes"/>
      <point x="552" y="595"/>
      <point x="473" y="529"/>
      <point x="387" y="529" type="curve" smooth="yes"/>
      <point x="233" y="529" type="line"/>
    </contour>
  </outline>
</glyph>
<glyph name="R" format="1">
  <advance width="944"/>
  <unicode hex="0052"/>
  <outline>
    <contour>
      <point x="212" y="371" type="line"/>
      <point x="403" y="371" type="line"/>
      <point x="560" y="22" type="line"/>
      <point x="580" y="-4"/>
      <point x="631" y="-12"/>
      <point x="674" y="2" type="curve" smooth="yes"/>
      <point x="716" y="17"/>
      <point x="735" y="50"/>
      <point x="714" y="75" type="curve"/>
      <point x="569" y="399" type="line"/>
      <point x="692" y="447"/>
      <point x="788" y="555"/>
      <point x="804" y="679" type="curve" smooth="yes"/>
      <point x="806" y="692" type="line" smooth="yes"/>
      <point x="828" y="862"/>
      <point x="694" y="1000"/>
      <point x="507" y="1000" type="curve" smooth="yes"/>
      <point x="222" y="1000" type="line" smooth="yes"/>
      <point x="168" y="1000"/>
      <point x="120" y="973"/>
      <point x="116" y="939" type="curve" smooth="yes"/>
      <point x="0" y="48" type="line" smooth="yes"/>
      <point x="-4" y="19"/>
      <point x="31" y="-5"/>
      <point x="78" y="-5" type="curve" smooth="yes"/>
      <point x="125" y="-5"/>
      <point x="166" y="19"/>
      <point x="170" y="48" type="curve" smooth="yes"/>
    </contour>
    <contour>
      <point x="274" y="843" type="line"/>
      <point x="487" y="843" type="line" smooth="yes"/>
      <point x="579" y="843"/>
      <point x="647" y="775"/>
      <point x="636" y="692" type="curve" smooth="yes"/>
      <point x="634" y="679" type="line" smooth="yes"/>
      <point x="623" y="595"/>
      <point x="539" y="529"/>
      <point x="446" y="529" type="curve" smooth="yes"/>
      <point x="233" y="529" type="line"/>
    </contour>
  </outline>
</glyph>
<glyph name="S" format="1">
  <advance width="824"/>
  <unicode hex="0053"/>
  <outline>
    <contour>
      <point x="686" y="310" type="curve" smooth="yes"/>
      <point x="709" y="483"/>
      <point x="565" y="567"/>
      <point x="407" y="621" type="curve" smooth="yes"/>
      <point x="355" y="640"/>
      <point x="263" y="674"/>
      <point x="270" y="736" type="curve" smooth="yes"/>
      <point x="277" y="797"/>
      <point x="340" y="847"/>
      <point x="410" y="847" type="curve" smooth="yes"/>
      <point x="461" y="847"/>
      <point x="504" y="837"/>
      <point x="538" y="815" type="curve"/>
      <point x="555" y="795"/>
      <point x="598" y="803"/>
      <point x="634" y="833" type="curve" smooth="yes"/>
      <point x="671" y="864"/>
      <point x="688" y="905"/>
      <point x="672" y="926" type="curve"/>
      <point x="610" y="978"/>
      <point x="529" y="1005"/>
      <point x="430" y="1005" type="curve" smooth="yes"/>
      <point x="261" y="1005"/>
      <point x="108" y="884"/>
      <point x="88" y="736" type="curve" smooth="yes"/>
      <point x="69" y="587"/>
      <point x="203" y="516"/>
      <point x="339" y="470" type="curve" smooth="yes"/>
      <point x="412" y="444"/>
      <point x="512" y="396"/>
      <point x="501" y="310" type="curve" smooth="yes"/>
      <point x="490" y="223"/>
      <point x="402" y="153"/>
      <point x="305" y="153" type="curve" smooth="yes"/>
      <point x="238" y="153"/>
      <point x="183" y="168"/>
      <point x="140" y="198" type="curve"/>
      <point x="123" y="218"/>
      <point x="80" y="210"/>
      <point x="43" y="180" type="curve" smooth="yes"/>
      <point x="7" y="150"/>
      <point x="-10" y="109"/>
      <point x="6" y="88" type="curve"/>
      <point x="78" y="26"/>
      <point x="171" y="-5"/>
      <point x="284" y="-5" type="curve" smooth="yes"/>
      <point x="483" y="-5"/>
      <point x="663" y="136"/>
    </contour>
  </outline>
</glyph>
<glyph name="T" format="1">
  <advance width="958"/>
  <unicode hex="0054"/>
  <outline>
    <contour>
      <point x="486" y="836" type="line"/>
      <point x="754" y="836" type="line" smooth="yes"/>
      <point x="786" y="836"/>
      <point x="816" y="872"/>
      <point x="822" y="915" type="curve"/>
      <point x="822" y="915" type="line"/>
      <point x="827" y="958"/>
      <point x="806" y="994"/>
      <point x="775" y="994" type="curve" smooth="yes"/>
      <point x="69" y="994" type="line" smooth="yes"/>
      <point x="37" y="994"/>
      <point x="7" y="958"/>
      <point x="1" y="915" type="curve"/>
      <point x="1" y="915" type="line"/>
      <point x="-5" y="872"/>
      <point x="16" y="836"/>
      <point x="48" y="836" type="curve" smooth="yes"/>
      <point x="316" y="836" type="line"/>
      <point x="214" y="48" type="line" smooth="yes"/>
      <point x="210" y="19"/>
      <point x="245" y="-5"/>
      <point x="292" y="-5" type="curve" smooth="yes"/>
      <point x="339" y="-5"/>
      <point x="380" y="19"/>
      <point x="384" y="48" type="curve" smooth="yes"/>
    </contour>
  </outline>
</glyph>
<glyph name="Latin_Capital_Letter_U" format="1">
  <advance width="1039"/>
  <unicode hex="0055"/>
  <outline>
    <contour>
      <point x="376" y="0" type="line" smooth="yes"/>
      <point x="599" y="0"/>
      <point x="807" y="212"/>
      <point x="841" y="472" type="curve" smooth="yes"/>
      <point x="903" y="952" type="line" smooth="yes"/>
      <point x="907" y="981"/>
      <point x="872" y="1005"/>
      <point x="825" y="1005" type="curve" smooth="yes"/>
      <point x="778" y="1005"/>
      <point x="737" y="981"/>
      <point x="733" y="952" type="curve" smooth="yes"/>
      <point x="671" y="472" type="line" smooth="yes"/>
      <point x="649" y="308"/>
      <point x="526" y="157"/>
      <point x="396" y="157" type="curve" smooth="yes"/>
      <point x="367" y="157" type="line" smooth="yes"/>
      <point x="226" y="157"/>
      <point x="152" y="298"/>
      <point x="175" y="472" type="curve" smooth="yes"/>
      <point x="237" y="952" type="line" smooth="yes"/>
      <point x="241" y="981"/>
      <point x="206" y="1005"/>
      <point x="159" y="1005" type="curve" smooth="yes"/>
      <point x="112" y="1005"/>
      <point x="71" y="981"/>
      <point x="67" y="952" type="curve" smooth="yes"/>
      <point x="5" y="472" type="line" smooth="yes"/>
      <point x="-29" y="212"/>
      <point x="124" y="0"/>
      <point x="347" y="0" type="curve" smooth="yes"/>
    </contour>
  </outline>
</glyph>
<glyph name="U" format="1">
  <advance width="981"/>
  <unicode hex="0055"/>
  <outline>
    <contour>
      <point x="344" y="0" type="line" smooth="yes"/>
      <point x="551" y="0"/>
      <point x="745" y="212"/>
      <point x="779" y="472" type="curve" smooth="yes"/>
      <point x="846" y="983" type="line" smooth="yes"/>
      <point x="847" y="995"/>
      <point x="811" y="1005"/>
      <point x="764" y="1005" type="curve" smooth="yes"/>
      <point x="717" y="1005"/>
      <point x="677" y="995"/>
      <point x="676" y="983" type="curve" smooth="yes"/>
      <point x="609" y="472" type="line" smooth="yes"/>
      <point x="588" y="310"/>
      <point x="478" y="157"/>
      <point x="365" y="157" type="curve" smooth="yes"/>
      <point x="338" y="157" type="line" smooth="yes"/>
      <point x="209" y="157"/>
      <point x="152" y="298"/>
      <point x="175" y="472" type="curve" smooth="yes"/>
      <point x="241" y="983" type="line" smooth="yes"/>
      <point x="243" y="995"/>
      <point x="206" y="1005"/>
      <point x="159" y="1005" type="curve" smooth="yes"/>
      <point x="112" y="1005"/>
      <point x="73" y="995"/>
      <point x="71" y="983" type="curve" smooth="yes"/>
      <point x="5" y="472" type="line" smooth="yes"/>
      <point x="-29" y="212"/>
      <point x="111" y="0"/>
      <point x="317" y="0" type="curve" smooth="yes"/>
    </contour>
  </outline>
</glyph>
<glyph name="Latin_Capital_Letter_V" format="1">
  <advance width="993"/>
  <unicode hex="0056"/>
  <outline>
    <contour>
      <point x="188" y="58" type="line" smooth="yes"/>
      <point x="196" y="21"/>
      <point x="244" y="-5"/>
      <point x="305" y="-5" type="curve" smooth="yes"/>
      <point x="366" y="-5"/>
      <point x="420" y="21"/>
      <point x="438" y="58" type="curve" smooth="yes"/>
      <point x="854" y="940" type="line" smooth="yes"/>
      <point x="868" y="969"/>
      <point x="842" y="997"/>
      <point x="797" y="1004" type="curve" smooth="yes"/>
      <point x="752" y="1010"/>
      <point x="705" y="991"/>
      <point x="691" y="963" type="curve" smooth="yes"/>
      <point x="331" y="202" type="line"/>
      <point x="170" y="963" type="line" smooth="yes"/>
      <point x="164" y="991"/>
      <point x="121" y="1010"/>
      <point x="74" y="1004" type="curve" smooth="yes"/>
      <point x="28" y="997"/>
      <point x="-5" y="969"/>
      <point x="1" y="940" type="curve" smooth="yes"/>
    </contour>
  </outline>
</glyph>
<glyph name="V" format="1">
  <advance width="977"/>
  <unicode hex="0056"/>
  <outline>
    <contour>
      <point x="200" y="16" type="line"/>
      <point x="207" y="4"/>
      <point x="246" y="-5"/>
      <point x="294" y="-5" type="curve" smooth="yes"/>
      <point x="342" y="-5"/>
      <point x="383" y="4"/>
      <point x="393" y="16" type="curve"/>
      <point x="841" y="967" type="line" smooth="yes"/>
      <point x="846" y="978"/>
      <point x="814" y="992"/>
      <point x="768" y="998" type="curve" smooth="yes"/>
      <point x="723" y="1005"/>
      <point x="682" y="1000"/>
      <point x="677" y="989" type="curve" smooth="yes"/>
      <point x="327" y="244" type="line"/>
      <point x="170" y="989" type="line"/>
      <point x="167" y="1000"/>
      <point x="127" y="1005"/>
      <point x="81" y="998" type="curve" smooth="yes"/>
      <point x="34" y="992"/>
      <point x="-2" y="978"/>
      <point x="0" y="967" type="curve" smooth="yes"/>
    </contour>
  </outline>
</glyph>
<glyph name="W" format="1">
  <advance width="1352"/>
  <unicode hex="0057"/>
  <outline>
    <contour>
      <point x="125" y="16" type="line"/>
      <point x="130" y="4"/>
      <point x="168" y="-5"/>
      <point x="215" y="-5" type="curve" smooth="yes"/>
      <point x="263" y="-5"/>
      <point x="303" y="4"/>
      <point x="311" y="16" type="curve"/>
      <point x="574" y="705" type="line"/>
      <point x="657" y="16" type="line"/>
      <point x="662" y="4"/>
      <point x="700" y="-5"/>
      <point x="747" y="-5" type="curve" smooth="yes"/>
      <point x="795" y="-5"/>
      <point x="835" y="4"/>
      <point x="843" y="16" type="curve"/>
      <point x="1216" y="970" type="line"/>
      <point x="1221" y="981"/>
      <point x="1187" y="994"/>
      <point x="1142" y="999" type="curve" smooth="yes"/>
      <point x="1096" y="1004"/>
      <point x="1055" y="998"/>
      <point x="1051" y="987" type="curve" smooth="yes"/>
      <point x="787" y="294" type="line"/>
      <point x="703" y="984" type="line"/>
      <point x="698" y="996"/>
      <point x="660" y="1005"/>
      <point x="613" y="1005" type="curve" smooth="yes"/>
      <point x="565" y="1005"/>
      <point x="525" y="996"/>
      <point x="517" y="984" type="curve"/>
      <point x="254" y="294" type="line"/>
      <point x="170" y="987" type="line" smooth="yes"/>
      <point x="169" y="998"/>
      <point x="129" y="1004"/>
      <point x="82" y="999" type="curve" smooth="yes"/>
      <point x="35" y="994"/>
      <point x="-1" y="981"/>
      <point x="0" y="970" type="curve" smooth="yes"/>
    </contour>
  </outline>
</glyph>
<glyph name="Latin_Capital_Letter_X" format="1">
  <advance width="975"/>
  <unicode hex="0058"/>
  <outline>
    <contour>
      <point x="401" y="351" type="line"/>
      <point x="555" y="29" type="line" smooth="yes"/>
      <point x="569" y="2"/>
      <point x="616" y="-12"/>
      <point x="661" y="-1" type="curve" smooth="yes"/>
      <point x="706" y="9"/>
      <point x="732" y="40"/>
      <point x="719" y="67" type="curve" smooth="yes"/>
      <point x="511" y="500" type="line"/>
      <point x="832" y="933" type="line" smooth="yes"/>
      <point x="852" y="960"/>
      <point x="834" y="991"/>
      <point x="791" y="1001" type="curve" smooth="yes"/>
      <point x="749" y="1012"/>
      <point x="698" y="998"/>
      <point x="678" y="971" type="curve" smooth="yes"/>
      <point x="439" y="649" type="line"/>
      <point x="285" y="971" type="line" smooth="yes"/>
      <point x="271" y="998"/>
      <point x="224" y="1012"/>
      <point x="179" y="1001" type="curve" smooth="yes"/>
      <point x="134" y="991"/>
      <point x="108" y="960"/>
      <point x="121" y="933" type="curve" smooth="yes"/>
      <point x="329" y="500" type="line"/>
      <point x="8" y="67" type="line" smooth="yes"/>
      <point x="-12" y="40"/>
      <point x="6" y="9"/>
      <point x="49" y="-1" type="curve" smooth="yes"/>
      <point x="91" y="-12"/>
      <point x="142" y="2"/>
      <point x="162" y="29" type="curve" smooth="yes"/>
    </contour>
  </outline>
</glyph>
<glyph name="X" format="1">
  <advance width="944"/>
  <unicode hex="0058"/>
  <outline>
    <contour>
      <point x="383" y="334" type="line"/>
      <point x="519" y="7" type="line" smooth="yes"/>
      <point x="524" y="-4"/>
      <point x="565" y="-5"/>
      <point x="611" y="3" type="curve" smooth="yes"/>
      <point x="658" y="12"/>
      <point x="692" y="29"/>
      <point x="687" y="39" type="curve"/>
      <point x="495" y="500" type="line"/>
      <point x="807" y="961" type="line" smooth="yes"/>
      <point x="814" y="971"/>
      <point x="785" y="988"/>
      <point x="740" y="997" type="curve" smooth="yes"/>
      <point x="696" y="1005"/>
      <point x="655" y="1004"/>
      <point x="647" y="993" type="curve" smooth="yes"/>
      <point x="426" y="666" type="line"/>
      <point x="289" y="993" type="line" smooth="yes"/>
      <point x="285" y="1004"/>
      <point x="243" y="1005"/>
      <point x="197" y="997" type="curve" smooth="yes"/>
      <point x="150" y="988"/>
      <point x="116" y="971"/>
      <point x="121" y="961" type="curve"/>
      <point x="313" y="500" type="line"/>
      <point x="1" y="39" type="line" smooth="yes"/>
      <point x="-6" y="29"/>
      <point x="24" y="12"/>
      <point x="68" y="3" type="curve" smooth="yes"/>
      <point x="112" y="-5"/>
      <point x="154" y="-4"/>
      <point x="161" y="7" type="curve" smooth="yes"/>
    </contour>
  </outline>
</glyph>
<glyph name="Latin_Capital_Letter_Y" format="1">
  <advance width="948"/>
  <unicode hex="0059"/>
  <outline>
    <contour>
      <point x="261" y="489" type="line"/>
      <point x="204" y="48" type="line" smooth="yes"/>
      <point x="200" y="19"/>
      <point x="235" y="-5"/>
      <point x="282" y="-5" type="curve" smooth="yes"/>
      <point x="329" y="-5"/>
      <point x="370" y="19"/>
      <point x="374" y="48" type="curve" smooth="yes"/>
      <point x="431" y="489" type="line"/>
      <point x="802" y="930" type="line" smooth="yes"/>
      <point x="825" y="957"/>
      <point x="810" y="988"/>
      <point x="768" y="1000" type="curve" smooth="yes"/>
      <point x="727" y="1012"/>
      <point x="675" y="1000"/>
      <point x="653" y="973" type="curve" smooth="yes"/>
      <point x="365" y="631" type="line"/>
      <point x="166" y="973" type="line" smooth="yes"/>
      <point x="150" y="1000"/>
      <point x="102" y="1012"/>
      <point x="57" y="1000" type="curve" smooth="yes"/>
      <point x="13" y="988"/>
      <point x="-11" y="957"/>
      <point x="5" y="930" type="curve" smooth="yes"/>
    </contour>
  </outline>
</glyph>
<glyph name="Y" format="1">
  <advance width="903"/>
  <unicode hex="0059"/>
  <outline>
    <contour>
      <point x="240" y="491" type="line"/>
      <point x="182" y="45" type="line" smooth="yes"/>
      <point x="179" y="17"/>
      <point x="214" y="-5"/>
      <point x="261" y="-5" type="curve" smooth="yes"/>
      <point x="308" y="-5"/>
      <point x="349" y="17"/>
      <point x="352" y="45" type="curve" smooth="yes"/>
      <point x="410" y="491" type="line"/>
      <point x="759" y="921" type="line" smooth="yes"/>
      <point x="779" y="945"/>
      <point x="761" y="977"/>
      <point x="721" y="992" type="curve" smooth="yes"/>
      <point x="680" y="1008"/>
      <point x="632" y="1001"/>
      <point x="612" y="977" type="curve" smooth="yes"/>
      <point x="345" y="638" type="line"/>
      <point x="165" y="977" type="line" smooth="yes"/>
      <point x="153" y="1001"/>
      <point x="106" y="1008"/>
      <point x="61" y="992" type="curve" smooth="yes"/>
      <point x="17" y="977"/>
      <point x="-9" y="946"/>
      <point x="3" y="922" type="curve" smooth="yes"/>
    </contour>
  </outline>
</glyph>
<glyph name="Latin_Capital_Letter_Z" format="1">
  <advance width="784"/>
  <unicode hex="005A"/>
  <outline>
    <contour>
      <point x="575" y="843" type="line"/>
      <point x="29" y="165" type="line" smooth="yes"/>
      <point x="5" y="136"/>
      <point x="-5" y="96"/>
      <point x="2" y="59" type="curve"/>
      <point x="2" y="59" type="line"/>
      <point x="9" y="22"/>
      <point x="31" y="0"/>
      <point x="60" y="0" type="curve" smooth="yes"/>
      <point x="608" y="0" type="line" smooth="yes"/>
      <point x="640" y="0"/>
      <point x="670" y="35"/>
      <point x="676" y="79" type="curve"/>
      <point x="676" y="79" type="line"/>
      <point x="681" y="122"/>
      <point x="660" y="157"/>
      <point x="628" y="157" type="curve" smooth="yes"/>
      <point x="209" y="157" type="line"/>
      <point x="755" y="835" type="line" smooth="yes"/>
      <point x="778" y="864"/>
      <point x="789" y="904"/>
      <point x="782" y="941" type="curve"/>
      <point x="782" y="941" type="line"/>
      <point x="775" y="978"/>
      <point x="753" y="1000"/>
      <point x="724" y="1000" type="curve" smooth="yes"/>
      <point x="176" y="1000" type="line" smooth="yes"/>
      <point x="144" y="1000"/>
      <point x="114" y="965"/>
      <point x="108" y="921" type="curve"/>
      <point x="108" y="921" type="line"/>
      <point x="103" y="878"/>
      <point x="124" y="843"/>
      <point x="155" y="843" type="curve" smooth="yes"/>
    </contour>
  </outline>
</glyph>
<glyph name="Z" format="1">
  <advance width="927"/>
  <unicode hex="005A"/>
  <outline>
    <contour>
      <point x="578" y="836" type="line"/>
      <point x="23" y="175" type="line"/>
      <point x="2" y="142"/>
      <point x="-5" y="101"/>
      <point x="4" y="65" type="curve"/>
      <point x="4" y="65" type="line"/>
      <point x="13" y="30"/>
      <point x="36" y="9"/>
      <point x="65" y="9" type="curve" smooth="yes"/>
      <point x="617" y="6" type="line" smooth="yes"/>
      <point x="649" y="6"/>
      <point x="679" y="42"/>
      <point x="685" y="85" type="curve"/>
      <point x="685" y="85" type="line"/>
      <point x="690" y="128"/>
      <point x="669" y="164"/>
      <point x="637" y="164" type="curve" smooth="yes"/>
      <point x="213" y="164" type="line"/>
      <point x="768" y="825" type="line"/>
      <point x="790" y="858"/>
      <point x="797" y="899"/>
      <point x="788" y="935" type="curve"/>
      <point x="788" y="935" type="line"/>
      <point x="779" y="970"/>
      <point x="756" y="991"/>
      <point x="726" y="991" type="curve" smooth="yes"/>
      <point x="175" y="994" type="line" smooth="yes"/>
      <point x="143" y="994"/>
      <point x="113" y="958"/>
      <point x="107" y="915" type="curve"/>
      <point x="107" y="915" type="line"/>
      <point x="101" y="872"/>
      <point x="122" y="836"/>
      <point x="154" y="836" type="curve" smooth="yes"/>
    </contour>
  </outline>
</glyph>
<glyph name="bracketleft" format="1">
  <advance width="636"/>
  <unicode hex="005B"/>
  <outline>
    <contour>
      <point x="301" y="-100" type="line" smooth="yes"/>
      <point x="330" y="-100"/>
      <point x="358" y="-65"/>
      <point x="364" y="-21" type="curve" smooth="yes"/>
      <point x="370" y="22"/>
      <point x="350" y="57"/>
      <point x="321" y="57" type="curve" smooth="yes"/>
      <point x="165" y="57" type="line"/>
      <point x="280" y="943" type="line"/>
      <point x="436" y="943" type="line" smooth="yes"/>
      <point x="466" y="943"/>
      <point x="494" y="978"/>
      <point x="500" y="1021" type="curve" smooth="yes"/>
      <point x="505" y="1065"/>
      <point x="486" y="1100"/>
      <point x="457" y="1100" type="curve" smooth="yes"/>
      <point x="247" y="1100" type="line" smooth="yes"/>
      <point x="193" y="1100"/>
      <point x="146" y="1075"/>
      <point x="142" y="1043" type="curve" smooth="yes"/>
      <point x="0" y="-43" type="line" smooth="yes"/>
      <point x="-4" y="-75"/>
      <point x="37" y="-100"/>
      <point x="91" y="-100" type="curve" smooth="yes"/>
    </contour>
  </outline>
</glyph>
<glyph name="backslash" format="1">
  <advance width="523"/>
  <unicode hex="005C"/>
  <outline>
    <contour>
      <point x="0" y="1047" type="curve" smooth="yes"/>
      <point x="223" y="-98" type="line"/>
      <point x="226" y="-110"/>
      <point x="264" y="-107"/>
      <point x="310" y="-93" type="curve" smooth="yes"/>
      <point x="355" y="-79"/>
      <point x="390" y="-58"/>
      <point x="388" y="-47" type="curve" smooth="yes"/>
      <point x="165" y="1098" type="line"/>
      <point x="162" y="1110"/>
      <point x="124" y="1107"/>
      <point x="78" y="1093" type="curve" smooth="yes"/>
      <point x="33" y="1079"/>
      <point x="-2" y="1058"/>
    </contour>
  </outline>
</glyph>
<glyph name="bracketright" format="1">
  <advance width="641"/>
  <unicode hex="005D"/>
  <outline>
    <contour>
      <point x="15" y="-100" type="curve" smooth="yes"/>
      <point x="255" y="-100" type="line" smooth="yes"/>
      <point x="309" y="-100"/>
      <point x="354" y="-89"/>
      <point x="356" y="-76" type="curve" smooth="yes"/>
      <point x="506" y="1076" type="line" smooth="yes"/>
      <point x="508" y="1089"/>
      <point x="465" y="1100"/>
      <point x="411" y="1100" type="curve" smooth="yes"/>
      <point x="171" y="1100" type="line" smooth="yes"/>
      <point x="158" y="1100"/>
      <point x="143" y="1065"/>
      <point x="138" y="1021" type="curve" smooth="yes"/>
      <point x="132" y="978"/>
      <point x="138" y="943"/>
      <point x="150" y="943" type="curve" smooth="yes"/>
      <point x="337" y="943" type="line"/>
      <point x="222" y="57" type="line"/>
      <point x="35" y="57" type="line" smooth="yes"/>
      <point x="23" y="57"/>
      <point x="8" y="22"/>
      <point x="2" y="-21" type="curve" smooth="yes"/>
      <point x="-3" y="-65"/>
      <point x="2" y="-100"/>
    </contour>
  </outline>
</glyph>
<glyph name="asciicircum" format="1">
  <advance width="697"/>
  <unicode hex="005E"/>
  <outline>
    <contour>
      <point x="2" y="746" type="line"/>
      <point x="-1" y="743"/>
      <point x="-1" y="736"/>
      <point x="4" y="728" type="curve" smooth="yes"/>
      <point x="17" y="705"/>
      <point x="53" y="675"/>
      <point x="86" y="660" type="curve" smooth="yes"/>
      <point x="106" y="650"/>
      <point x="119" y="649"/>
      <point x="124" y="654" type="curve"/>
      <point x="294" y="843" type="line"/>
      <point x="415" y="654" type="line" smooth="yes"/>
      <point x="418" y="649"/>
      <point x="433" y="650"/>
      <point x="455" y="660" type="curve" smooth="yes"/>
      <point x="492" y="675"/>
      <point x="536" y="705"/>
      <point x="554" y="728" type="curve"/>
      <point x="561" y="736"/>
      <point x="563" y="743"/>
      <point x="561" y="746" type="curve" smooth="yes"/>
      <point x="409" y="985" type="line"/>
      <point x="401" y="996"/>
      <point x="363" y="1005"/>
      <point x="315" y="1005" type="curve" smooth="yes"/>
      <point x="268" y="1005"/>
      <point x="227" y="996"/>
      <point x="217" y="985" type="curve" smooth="yes"/>
    </contour>
  </outline>
</glyph>
<glyph name="underscore" format="1">
  <advance width="962"/>
  <unicode hex="005F"/>
  <outline>
    <contour>
      <point x="762" y="-199" type="line" smooth="yes"/>
      <point x="792" y="-199"/>
      <point x="820" y="-163"/>
      <point x="826" y="-120" type="curve" smooth="yes"/>
      <point x="832" y="-77"/>
      <point x="812" y="-41"/>
      <point x="783" y="-41" type="curve" smooth="yes"/>
      <point x="64" y="-41" type="line" smooth="yes"/>
      <point x="35" y="-41"/>
      <point x="7" y="-77"/>
      <point x="1" y="-120" type="curve" smooth="yes"/>
      <point x="-5" y="-163"/>
      <point x="15" y="-199"/>
      <point x="44" y="-199" type="curve" smooth="yes"/>
    </contour>
  </outline>
</glyph>
<glyph name="grave" format="1">
  <advance width="393"/>
  <unicode hex="0060"/>
  <outline>
    <contour>
      <point x="137" y="995" type="line" smooth="yes"/>
      <point x="126" y="1009"/>
      <point x="103" y="1008"/>
      <point x="75" y="993" type="curve" smooth="yes"/>
      <point x="48" y="978"/>
      <point x="24" y="952"/>
      <point x="10" y="924" type="curve" smooth="yes"/>
      <point x="-4" y="896"/>
      <point x="-3" y="874"/>
      <point x="12" y="864" type="curve" smooth="yes"/>
      <point x="168" y="758" type="line" smooth="yes"/>
      <point x="182" y="749"/>
      <point x="210" y="760"/>
      <point x="232" y="783" type="curve" smooth="yes"/>
      <point x="255" y="806"/>
      <point x="264" y="834"/>
      <point x="253" y="847" type="curve" smooth="yes"/>
    </contour>
  </outline>
</glyph>
<glyph name="b" format="1">
  <advance width="824"/>
  <unicode hex="0062"/>
  <outline>
    <contour>
      <point x="210" y="325" type="curve" smooth="yes"/>
      <point x="223" y="420"/>
      <point x="300" y="497"/>
      <point x="383" y="497" type="curve" smooth="yes"/>
      <point x="466" y="497"/>
      <point x="523" y="420"/>
      <point x="511" y="325" type="curve" smooth="yes"/>
      <point x="498" y="230"/>
      <point x="421" y="153"/>
      <point x="338" y="153" type="curve" smooth="yes"/>
      <point x="255" y="153"/>
      <point x="198" y="230"/>
    </contour>
    <contour>
      <point x="245" y="594" type="curve"/>
      <point x="296" y="983" type="line" smooth="yes"/>
      <point x="297" y="995"/>
      <point x="260" y="1005"/>
      <point x="213" y="1005" type="curve" smooth="yes"/>
      <point x="167" y="1005"/>
      <point x="127" y="995"/>
      <point x="126" y="983" type="curve" smooth="yes"/>
      <point x="0" y="17" type="line" smooth="yes"/>
      <point x="-1" y="5"/>
      <point x="35" y="-5"/>
      <point x="82" y="-5" type="curve" smooth="yes"/>
      <point x="129" y="-5"/>
      <point x="169" y="5"/>
      <point x="170" y="17" type="curve" smooth="yes"/>
      <point x="175" y="56" type="line"/>
      <point x="213" y="18"/>
      <point x="262" y="-5"/>
      <point x="318" y="-5" type="curve" smooth="yes"/>
      <point x="497" y="-5"/>
      <point x="662" y="143"/>
      <point x="685" y="325" type="curve" smooth="yes"/>
      <point x="709" y="507"/>
      <point x="583" y="655"/>
      <point x="403" y="655" type="curve" smooth="yes"/>
      <point x="347" y="655"/>
      <point x="293" y="632"/>
    </contour>
  </outline>
</glyph>
<glyph name="d" format="1">
  <advance width="869"/>
  <unicode hex="0064"/>
  <outline>
    <contour>
      <point x="478" y="325" type="curve" smooth="yes"/>
      <point x="466" y="230"/>
      <point x="388" y="153"/>
      <point x="305" y="153" type="curve" smooth="yes"/>
      <point x="222" y="153"/>
      <point x="165" y="230"/>
      <point x="177" y="325" type="curve" smooth="yes"/>
      <point x="190" y="420"/>
      <point x="267" y="497"/>
      <point x="350" y="497" type="curve" smooth="yes"/>
      <point x="433" y="497"/>
      <point x="491" y="420"/>
    </contour>
    <contour>
      <point x="513" y="594" type="line"/>
      <point x="476" y="632"/>
      <point x="427" y="655"/>
      <point x="371" y="655" type="curve" smooth="yes"/>
      <point x="191" y="655"/>
      <point x="26" y="507"/>
      <point x="3" y="325" type="curve" smooth="yes"/>
      <point x="-21" y="143"/>
      <point x="105" y="-5"/>
      <point x="285" y="-5" type="curve" smooth="yes"/>
      <point x="341" y="-5"/>
      <point x="396" y="18"/>
      <point x="443" y="56" type="curve"/>
      <point x="438" y="17" type="line" smooth="yes"/>
      <point x="437" y="5"/>
      <point x="473" y="-5"/>
      <point x="520" y="-5" type="curve" smooth="yes"/>
      <point x="567" y="-5"/>
      <point x="607" y="5"/>
      <point x="608" y="17" type="curve" smooth="yes"/>
      <point x="734" y="983" type="line" smooth="yes"/>
      <point x="735" y="995"/>
      <point x="698" y="1005"/>
      <point x="651" y="1005" type="curve" smooth="yes"/>
      <point x="605" y="1005"/>
      <point x="565" y="995"/>
      <point x="564" y="983" type="curve" smooth="yes"/>
    </contour>
  </outline>
</glyph>
<glyph name="f" format="1">
  <advance width="648"/>
  <unicode hex="0066"/>
  <outline>
    <contour>
      <point x="92" y="493" type="line"/>
      <point x="31" y="17" type="line" smooth="yes"/>
      <point x="29" y="5"/>
      <point x="66" y="-5"/>
      <point x="113" y="-5" type="curve" smooth="yes"/>
      <point x="160" y="-5"/>
      <point x="199" y="5"/>
      <point x="201" y="17" type="curve" smooth="yes"/>
      <point x="262" y="493" type="line"/>
      <point x="372" y="493" type="line" smooth="yes"/>
      <point x="385" y="493"/>
      <point x="400" y="528"/>
      <point x="406" y="571" type="curve" smooth="yes"/>
      <point x="411" y="615"/>
      <point x="406" y="650"/>
      <point x="393" y="650" type="curve" smooth="yes"/>
      <point x="283" y="650" type="line"/>
      <point x="298" y="769" type="line" smooth="yes"/>
      <point x="302" y="795"/>
      <point x="319" y="817"/>
      <point x="347" y="833" type="curve" smooth="yes"/>
      <point x="375" y="848"/>
      <point x="406" y="852"/>
      <point x="436" y="844" type="curve"/>
      <point x="447" y="840"/>
      <point x="472" y="870"/>
      <point x="492" y="911" type="curve" smooth="yes"/>
      <point x="512" y="952"/>
      <point x="519" y="989"/>
      <point x="508" y="993" type="curve"/>
      <point x="426" y="1017"/>
      <point x="341" y="1006"/>
      <point x="263" y="960" type="curve" smooth="yes"/>
      <point x="186" y="914"/>
      <point x="139" y="847"/>
      <point x="128" y="769" type="curve" smooth="yes"/>
      <point x="113" y="650" type="line"/>
      <point x="35" y="650" type="line" smooth="yes"/>
      <point x="23" y="650"/>
      <point x="8" y="615"/>
      <point x="2" y="571" type="curve" smooth="yes"/>
      <point x="-3" y="528"/>
      <point x="2" y="493"/>
      <point x="15" y="493" type="curve" smooth="yes"/>
    </contour>
  </outline>
</glyph>
<glyph name="h" format="1">
  <advance width="766"/>
  <unicode hex="0068"/>
  <outline>
    <contour>
      <point x="0" y="17" type="line" smooth="yes"/>
      <point x="-1" y="5"/>
      <point x="35" y="-5"/>
      <point x="82" y="-5" type="curve" smooth="yes"/>
      <point x="129" y="-5"/>
      <point x="169" y="5"/>
      <point x="170" y="17" type="curve" smooth="yes"/>
      <point x="227" y="455" type="line"/>
      <point x="227" y="455"/>
      <point x="309" y="514"/>
      <point x="402" y="514" type="curve" smooth="yes"/>
      <point x="438" y="514"/>
      <point x="463" y="487"/>
      <point x="459" y="455" type="curve" smooth="yes"/>
      <point x="402" y="17" type="line" smooth="yes"/>
      <point x="401" y="5"/>
      <point x="437" y="-5"/>
      <point x="484" y="-5" type="curve" smooth="yes"/>
      <point x="531" y="-5"/>
      <point x="571" y="5"/>
      <point x="572" y="17" type="curve" smooth="yes"/>
      <point x="629" y="455" type="line" smooth="yes"/>
      <point x="643" y="563"/>
      <point x="557" y="650"/>
      <point x="438" y="650" type="curve" smooth="yes"/>
      <point x="369" y="650"/>
      <point x="302" y="628"/>
      <point x="246" y="599" type="curve"/>
      <point x="296" y="983" type="line" smooth="yes"/>
      <point x="297" y="995"/>
      <point x="260" y="1005"/>
      <point x="213" y="1005" type="curve" smooth="yes"/>
      <point x="167" y="1005"/>
      <point x="127" y="995"/>
      <point x="126" y="983" type="curve" smooth="yes"/>
    </contour>
  </outline>
</glyph>
<glyph name="i" format="1">
  <advance width="419"/>
  <unicode hex="0069"/>
  <outline>
    <contour>
      <point x="250" y="633" type="line" smooth="yes"/>
      <point x="252" y="645"/>
      <point x="215" y="655"/>
      <point x="168" y="655" type="curve" smooth="yes"/>
      <point x="121" y="655"/>
      <point x="82" y="645"/>
      <point x="80" y="633" type="curve" smooth="yes"/>
      <point x="0" y="17" type="line" smooth="yes"/>
      <point x="-1" y="5"/>
      <point x="35" y="-5"/>
      <point x="82" y="-5" type="curve" smooth="yes"/>
      <point x="129" y="-5"/>
      <point x="169" y="5"/>
      <point x="170" y="17" type="curve" smooth="yes"/>
    </contour>
    <contour>
      <point x="284" y="891" type="line" smooth="yes"/>
      <point x="285" y="902"/>
      <point x="248" y="912"/>
      <point x="201" y="912" type="curve" smooth="yes"/>
      <point x="154" y="912"/>
      <point x="115" y="902"/>
      <point x="114" y="891" type="curve" smooth="yes"/>
      <point x="99" y="776" type="line" smooth="yes"/>
      <point x="97" y="764"/>
      <point x="134" y="755"/>
      <point x="181" y="755" type="curve" smooth="yes"/>
      <point x="228" y="755"/>
      <point x="267" y="764"/>
      <point x="269" y="776" type="curve" smooth="yes"/>
    </contour>
  </outline>
</glyph>
<glyph name="j" format="1">
  <advance width="660"/>
  <unicode hex="006A"/>
  <outline>
    <contour>
      <point x="492" y="633" type="line" smooth="yes"/>
      <point x="493" y="645"/>
      <point x="456" y="655"/>
      <point x="409" y="655" type="curve" smooth="yes"/>
      <point x="362" y="655"/>
      <point x="323" y="645"/>
      <point x="322" y="633" type="curve" smooth="yes"/>
      <point x="222" y="-135" type="line"/>
      <point x="221" y="-140"/>
      <point x="209" y="-145"/>
      <point x="189" y="-147" type="curve" smooth="yes"/>
      <point x="170" y="-148"/>
      <point x="149" y="-147"/>
      <point x="135" y="-144" type="curve"/>
      <point x="127" y="-136"/>
      <point x="92" y="-153"/>
      <point x="55" y="-183" type="curve" smooth="yes"/>
      <point x="19" y="-214"/>
      <point x="-5" y="-245"/>
      <point x="1" y="-255" type="curve"/>
      <point x="58" y="-305"/>
      <point x="148" y="-319"/>
      <point x="235" y="-292" type="curve" smooth="yes"/>
      <point x="323" y="-265"/>
      <point x="383" y="-205"/>
      <point x="392" y="-135" type="curve" smooth="yes"/>
    </contour>
    <contour>
      <point x="525" y="891" type="line"/>
      <point x="527" y="902"/>
      <point x="490" y="912"/>
      <point x="443" y="912" type="curve" smooth="yes"/>
      <point x="396" y="912"/>
      <point x="357" y="902"/>
      <point x="355" y="891" type="curve"/>
      <point x="340" y="776" type="line" smooth="yes"/>
      <point x="339" y="764"/>
      <point x="375" y="755"/>
      <point x="422" y="755" type="curve" smooth="yes"/>
      <point x="469" y="755"/>
      <point x="509" y="764"/>
      <point x="510" y="776" type="curve" smooth="yes"/>
    </contour>
  </outline>
</glyph>
<glyph name="k" format="1">
  <advance width="798"/>
  <unicode hex="006B"/>
  <outline>
    <contour>
      <point x="0" y="17" type="line" smooth="yes"/>
      <point x="-1" y="5"/>
      <point x="35" y="-5"/>
      <point x="82" y="-5" type="curve" smooth="yes"/>
      <point x="129" y="-5"/>
      <point x="169" y="5"/>
      <point x="170" y="17" type="curve" smooth="yes"/>
      <point x="192" y="189" type="line"/>
      <point x="279" y="253" type="line"/>
      <point x="462" y="-11" type="line"/>
      <point x="469" y="-20"/>
      <point x="505" y="-4"/>
      <point x="543" y="24" type="curve" smooth="yes"/>
      <point x="581" y="53"/>
      <point x="607" y="83"/>
      <point x="600" y="93" type="curve" smooth="yes"/>
      <point x="417" y="356" type="line"/>
      <point x="658" y="537" type="line" smooth="yes"/>
      <point x="665" y="542"/>
      <point x="663" y="557"/>
      <point x="653" y="580" type="curve" smooth="yes"/>
      <point x="643" y="602"/>
      <point x="627" y="624"/>
      <point x="610" y="641" type="curve" smooth="yes"/>
      <point x="593" y="658"/>
      <point x="579" y="665"/>
      <point x="572" y="660" type="curve" smooth="yes"/>
      <point x="219" y="397" type="line"/>
      <point x="296" y="983" type="line" smooth="yes"/>
      <point x="297" y="995"/>
      <point x="260" y="1005"/>
      <point x="213" y="1005" type="curve" smooth="yes"/>
      <point x="167" y="1005"/>
      <point x="127" y="995"/>
      <point x="126" y="983" type="curve" smooth="yes"/>
    </contour>
  </outline>
</glyph>
<glyph name="l" format="1">
  <advance width="431"/>
  <unicode hex="006C"/>
  <outline>
    <contour>
      <point x="296" y="983" type="line" smooth="yes"/>
      <point x="297" y="995"/>
      <point x="260" y="1005"/>
      <point x="213" y="1005" type="curve" smooth="yes"/>
      <point x="167" y="1005"/>
      <point x="127" y="995"/>
      <point x="126" y="983" type="curve" smooth="yes"/>
      <point x="0" y="17" type="line" smooth="yes"/>
      <point x="-1" y="5"/>
      <point x="35" y="-5"/>
      <point x="82" y="-5" type="curve" smooth="yes"/>
      <point x="129" y="-5"/>
      <point x="169" y="5"/>
      <point x="170" y="17" type="curve" smooth="yes"/>
    </contour>
  </outline>
</glyph>
<glyph name="m" format="1">
  <advance width="1168"/>
  <unicode hex="006D"/>
  <outline>
    <contour>
      <point x="0" y="17" type="line" smooth="yes"/>
      <point x="-1" y="5"/>
      <point x="35" y="-5"/>
      <point x="82" y="-5" type="curve" smooth="yes"/>
      <point x="129" y="-5"/>
      <point x="169" y="5"/>
      <point x="170" y="17" type="curve" smooth="yes"/>
      <point x="227" y="455" type="line"/>
      <point x="227" y="455"/>
      <point x="309" y="514"/>
      <point x="402" y="514" type="curve" smooth="yes"/>
      <point x="438" y="514"/>
      <point x="463" y="487"/>
      <point x="459" y="455" type="curve" smooth="yes"/>
      <point x="402" y="17" type="line" smooth="yes"/>
      <point x="401" y="5"/>
      <point x="437" y="-5"/>
      <point x="484" y="-5" type="curve" smooth="yes"/>
      <point x="531" y="-5"/>
      <point x="571" y="5"/>
      <point x="572" y="17" type="curve" smooth="yes"/>
      <point x="629" y="455" type="line"/>
      <point x="629" y="455"/>
      <point x="711" y="514"/>
      <point x="804" y="514" type="curve" smooth="yes"/>
      <point x="840" y="514"/>
      <point x="865" y="487"/>
      <point x="861" y="455" type="curve" smooth="yes"/>
      <point x="804" y="17" type="line" smooth="yes"/>
      <point x="803" y="5"/>
      <point x="839" y="-5"/>
      <point x="886" y="-5" type="curve" smooth="yes"/>
      <point x="933" y="-5"/>
      <point x="973" y="5"/>
      <point x="974" y="17" type="curve" smooth="yes"/>
      <point x="1031" y="455" type="line" smooth="yes"/>
      <point x="1045" y="563"/>
      <point x="959" y="650"/>
      <point x="840" y="650" type="curve" smooth="yes"/>
      <point x="750" y="650"/>
      <point x="665" y="614"/>
      <point x="602" y="571" type="curve"/>
      <point x="568" y="619"/>
      <point x="509" y="650"/>
      <point x="438" y="650" type="curve" smooth="yes"/>
      <point x="369" y="650"/>
      <point x="302" y="628"/>
      <point x="246" y="599" type="curve"/>
      <point x="250" y="633" type="line" smooth="yes"/>
      <point x="252" y="645"/>
      <point x="215" y="655"/>
      <point x="168" y="655" type="curve" smooth="yes"/>
      <point x="121" y="655"/>
      <point x="82" y="645"/>
      <point x="80" y="633" type="curve" smooth="yes"/>
    </contour>
  </outline>
</glyph>
<glyph name="n" format="1">
  <advance width="766"/>
  <unicode hex="006E"/>
  <outline>
    <contour>
      <point x="0" y="17" type="line" smooth="yes"/>
      <point x="-1" y="5"/>
      <point x="35" y="-5"/>
      <point x="82" y="-5" type="curve" smooth="yes"/>
      <point x="129" y="-5"/>
      <point x="169" y="5"/>
      <point x="170" y="17" type="curve" smooth="yes"/>
      <point x="227" y="455" type="line"/>
      <point x="227" y="455"/>
      <point x="309" y="514"/>
      <point x="402" y="514" type="curve" smooth="yes"/>
      <point x="438" y="514"/>
      <point x="463" y="487"/>
      <point x="459" y="455" type="curve" smooth="yes"/>
      <point x="402" y="17" type="line" smooth="yes"/>
      <point x="401" y="5"/>
      <point x="437" y="-5"/>
      <point x="484" y="-5" type="curve" smooth="yes"/>
      <point x="531" y="-5"/>
      <point x="571" y="5"/>
      <point x="572" y="17" type="curve" smooth="yes"/>
      <point x="629" y="455" type="line" smooth="yes"/>
      <point x="643" y="563"/>
      <point x="557" y="650"/>
      <point x="438" y="650" type="curve" smooth="yes"/>
      <point x="369" y="650"/>
      <point x="302" y="628"/>
      <point x="246" y="599" type="curve"/>
      <point x="250" y="633" type="line" smooth="yes"/>
      <point x="252" y="645"/>
      <point x="215" y="655"/>
      <point x="168" y="655" type="curve" smooth="yes"/>
      <point x="121" y="655"/>
      <point x="82" y="645"/>
      <point x="80" y="633" type="curve" smooth="yes"/>
    </contour>
  </outline>
</glyph>
<glyph name="p" format="1">
  <advance width="863"/>
  <unicode hex="0070"/>
  <outline>
    <contour>
      <point x="249" y="325" type="curve" smooth="yes"/>
      <point x="262" y="420"/>
      <point x="339" y="497"/>
      <point x="422" y="497" type="curve" smooth="yes"/>
      <point x="505" y="497"/>
      <point x="562" y="420"/>
      <point x="550" y="325" type="curve" smooth="yes"/>
      <point x="537" y="230"/>
      <point x="460" y="153"/>
      <point x="377" y="153" type="curve" smooth="yes"/>
      <point x="294" y="153"/>
      <point x="237" y="230"/>
    </contour>
    <contour>
      <point x="214" y="56" type="line"/>
      <point x="252" y="18"/>
      <point x="301" y="-5"/>
      <point x="357" y="-5" type="curve" smooth="yes"/>
      <point x="536" y="-5"/>
      <point x="701" y="143"/>
      <point x="724" y="325" type="curve" smooth="yes"/>
      <point x="748" y="507"/>
      <point x="622" y="655"/>
      <point x="442" y="655" type="curve" smooth="yes"/>
      <point x="386" y="655"/>
      <point x="332" y="632"/>
      <point x="284" y="594" type="curve"/>
      <point x="289" y="633" type="line" smooth="yes"/>
      <point x="291" y="645"/>
      <point x="254" y="655"/>
      <point x="207" y="655" type="curve" smooth="yes"/>
      <point x="160" y="655"/>
      <point x="121" y="645"/>
      <point x="119" y="633" type="curve" smooth="yes"/>
      <point x="0" y="-283" type="line" smooth="yes"/>
      <point x="-1" y="-295"/>
      <point x="35" y="-305"/>
      <point x="82" y="-305" type="curve" smooth="yes"/>
      <point x="129" y="-305"/>
      <point x="169" y="-295"/>
      <point x="170" y="-283" type="curve" smooth="yes"/>
    </contour>
  </outline>
</glyph>
<glyph name="s" format="1">
  <advance width="709"/>
  <unicode hex="0073"/>
  <outline>
    <contour>
      <point x="524" y="199" type="curve" smooth="yes"/>
      <point x="539" y="312"/>
      <point x="414" y="365"/>
      <point x="311" y="400" type="curve" smooth="yes"/>
      <point x="288" y="408"/>
      <point x="225" y="425"/>
      <point x="228" y="451" type="curve" smooth="yes"/>
      <point x="231" y="476"/>
      <point x="261" y="497"/>
      <point x="296" y="497" type="curve" smooth="yes"/>
      <point x="365" y="497"/>
      <point x="420" y="478"/>
      <point x="476" y="445" type="curve" smooth="yes"/>
      <point x="486" y="439"/>
      <point x="515" y="466"/>
      <point x="541" y="504" type="curve" smooth="yes"/>
      <point x="567" y="542"/>
      <point x="580" y="578"/>
      <point x="570" y="584" type="curve" smooth="yes"/>
      <point x="492" y="631"/>
      <point x="414" y="655"/>
      <point x="317" y="655" type="curve" smooth="yes"/>
      <point x="187" y="655"/>
      <point x="70" y="563"/>
      <point x="55" y="451" type="curve" smooth="yes"/>
      <point x="41" y="338"/>
      <point x="140" y="285"/>
      <point x="243" y="250" type="curve" smooth="yes"/>
      <point x="265" y="242"/>
      <point x="354" y="225"/>
      <point x="351" y="199" type="curve" smooth="yes"/>
      <point x="347" y="174"/>
      <point x="298" y="153"/>
      <point x="242" y="153" type="curve" smooth="yes"/>
      <point x="183" y="153"/>
      <point x="141" y="179"/>
      <point x="94" y="205" type="curve" smooth="yes"/>
      <point x="84" y="210"/>
      <point x="55" y="183"/>
      <point x="30" y="144" type="curve" smooth="yes"/>
      <point x="5" y="105"/>
      <point x="-7" y="69"/>
      <point x="4" y="63" type="curve" smooth="yes"/>
      <point x="72" y="26"/>
      <point x="136" y="-5"/>
      <point x="221" y="-5" type="curve" smooth="yes"/>
      <point x="374" y="-5"/>
      <point x="509" y="87"/>
    </contour>
  </outline>
</glyph>
<glyph name="t" format="1">
  <advance width="543"/>
  <unicode hex="0074"/>
  <outline>
    <contour>
      <point x="113" y="650" type="line"/>
      <point x="35" y="650" type="line" smooth="yes"/>
      <point x="23" y="650"/>
      <point x="8" y="615"/>
      <point x="2" y="571" type="curve" smooth="yes"/>
      <point x="-3" y="528"/>
      <point x="2" y="493"/>
      <point x="15" y="493" type="curve" smooth="yes"/>
      <point x="92" y="493" type="line"/>
      <point x="52" y="183" type="line" smooth="yes"/>
      <point x="44" y="121"/>
      <point x="66" y="68"/>
      <point x="116" y="31" type="curve" smooth="yes"/>
      <point x="165" y="-5"/>
      <point x="228" y="-15"/>
      <point x="294" y="5" type="curve" smooth="yes"/>
      <point x="306" y="9"/>
      <point x="309" y="45"/>
      <point x="300" y="87" type="curve" smooth="yes"/>
      <point x="290" y="128"/>
      <point x="273" y="158"/>
      <point x="261" y="154" type="curve"/>
      <point x="250" y="151"/>
      <point x="240" y="152"/>
      <point x="232" y="158" type="curve" smooth="yes"/>
      <point x="224" y="164"/>
      <point x="221" y="173"/>
      <point x="222" y="183" type="curve" smooth="yes"/>
      <point x="262" y="493" type="line"/>
      <point x="372" y="493" type="line" smooth="yes"/>
      <point x="385" y="493"/>
      <point x="400" y="528"/>
      <point x="406" y="571" type="curve" smooth="yes"/>
      <point x="411" y="615"/>
      <point x="406" y="650"/>
      <point x="393" y="650" type="curve" smooth="yes"/>
      <point x="283" y="650" type="line"/>
      <point x="306" y="828" type="line" smooth="yes"/>
      <point x="308" y="840"/>
      <point x="271" y="850"/>
      <point x="224" y="850" type="curve" smooth="yes"/>
      <point x="177" y="850"/>
      <point x="138" y="840"/>
      <point x="136" y="828" type="curve" smooth="yes"/>
    </contour>
  </outline>
</glyph>
<glyph name="u" format="1">
  <advance width="766"/>
  <unicode hex="0075"/>
  <outline>
    <contour>
      <point x="630" y="633" type="line" smooth="yes"/>
      <point x="632" y="645"/>
      <point x="595" y="655"/>
      <point x="548" y="655" type="curve" smooth="yes"/>
      <point x="501" y="655"/>
      <point x="462" y="645"/>
      <point x="460" y="633" type="curve" smooth="yes"/>
      <point x="403" y="195" type="line"/>
      <point x="403" y="195"/>
      <point x="321" y="137"/>
      <point x="229" y="137" type="curve" smooth="yes"/>
      <point x="193" y="137"/>
      <point x="167" y="163"/>
      <point x="171" y="195" type="curve" smooth="yes"/>
      <point x="228" y="633" type="line" smooth="yes"/>
      <point x="230" y="645"/>
      <point x="193" y="655"/>
      <point x="146" y="655" type="curve" smooth="yes"/>
      <point x="99" y="655"/>
      <point x="60" y="645"/>
      <point x="58" y="633" type="curve" smooth="yes"/>
      <point x="1" y="195" type="line" smooth="yes"/>
      <point x="-13" y="87"/>
      <point x="73" y="0"/>
      <point x="193" y="0" type="curve" smooth="yes"/>
      <point x="262" y="0"/>
      <point x="329" y="22"/>
      <point x="385" y="51" type="curve"/>
      <point x="380" y="17" type="line"/>
      <point x="379" y="5"/>
      <point x="416" y="-5"/>
      <point x="463" y="-5" type="curve" smooth="yes"/>
      <point x="509" y="-5"/>
      <point x="549" y="5"/>
      <point x="550" y="17" type="curve" smooth="yes"/>
    </contour>
  </outline>
</glyph>
<glyph name="v" format="1">
  <advance width="750"/>
  <unicode hex="0076"/>
  <outline>
    <contour>
      <point x="132" y="15" type="line"/>
      <point x="139" y="3"/>
      <point x="176" y="-5"/>
      <point x="222" y="-5" type="curve" smooth="yes"/>
      <point x="267" y="-5"/>
      <point x="307" y="3"/>
      <point x="316" y="14" type="curve"/>
      <point x="614" y="621" type="line" smooth="yes"/>
      <point x="620" y="632"/>
      <point x="588" y="647"/>
      <point x="543" y="653" type="curve" smooth="yes"/>
      <point x="498" y="659"/>
      <point x="456" y="655"/>
      <point x="451" y="644" type="curve" smooth="yes"/>
      <point x="253" y="221" type="line"/>
      <point x="170" y="644" type="line"/>
      <point x="167" y="655"/>
      <point x="127" y="659"/>
      <point x="80" y="653" type="curve" smooth="yes"/>
      <point x="34" y="647"/>
      <point x="-2" y="633"/>
      <point x="0" y="621" type="curve" smooth="yes"/>
    </contour>
  </outline>
</glyph>
<glyph name="x" format="1">
  <advance width="830"/>
  <unicode hex="0078"/>
  <outline>
    <contour>
      <point x="332" y="205" type="line"/>
      <point x="445" y="13" type="line" smooth="yes"/>
      <point x="452" y="1"/>
      <point x="495" y="-6"/>
      <point x="542" y="-4" type="curve" smooth="yes"/>
      <point x="588" y="-2"/>
      <point x="620" y="9"/>
      <point x="614" y="20" type="curve" smooth="yes"/>
      <point x="434" y="325" type="line"/>
      <point x="693" y="630" type="line" smooth="yes"/>
      <point x="703" y="641"/>
      <point x="673" y="652"/>
      <point x="627" y="654" type="curve" smooth="yes"/>
      <point x="581" y="656"/>
      <point x="536" y="649"/>
      <point x="526" y="637" type="curve" smooth="yes"/>
      <point x="363" y="445" type="line"/>
      <point x="250" y="637" type="line" smooth="yes"/>
      <point x="243" y="649"/>
      <point x="200" y="656"/>
      <point x="153" y="654" type="curve" smooth="yes"/>
      <point x="107" y="652"/>
      <point x="74" y="641"/>
      <point x="81" y="630" type="curve" smooth="yes"/>
      <point x="261" y="325" type="line"/>
      <point x="2" y="20" type="line"/>
      <point x="-5" y="13"/>
      <point x="5" y="5"/>
      <point x="28" y="0" type="curve" smooth="yes"/>
      <point x="51" y="-5"/>
      <point x="82" y="-6"/>
      <point x="111" y="-3" type="curve" smooth="yes"/>
      <point x="141" y="-1"/>
      <point x="162" y="5"/>
      <point x="168" y="13" type="curve"/>
    </contour>
  </outline>
</glyph>
<glyph name="y" format="1">
  <advance width="780"/>
  <unicode hex="0079"/>
  <outline>
    <contour>
      <point x="1" y="-262" type="line" smooth="yes"/>
      <point x="-5" y="-273"/>
      <point x="25" y="-290"/>
      <point x="69" y="-301" type="curve" smooth="yes"/>
      <point x="112" y="-311"/>
      <point x="153" y="-311"/>
      <point x="158" y="-299" type="curve"/>
      <point x="644" y="612" type="line" smooth="yes"/>
      <point x="648" y="619"/>
      <point x="637" y="629"/>
      <point x="613" y="638" type="curve"/>
      <point x="590" y="648"/>
      <point x="562" y="655"/>
      <point x="535" y="657" type="curve" smooth="yes"/>
      <point x="507" y="660"/>
      <point x="490" y="657"/>
      <point x="486" y="649" type="curve" smooth="yes"/>
      <point x="300" y="300" type="line"/>
      <point x="204" y="649" type="line" smooth="yes"/>
      <point x="201" y="661"/>
      <point x="161" y="661"/>
      <point x="115" y="651" type="curve" smooth="yes"/>
      <point x="69" y="640"/>
      <point x="34" y="623"/>
      <point x="37" y="612" type="curve" smooth="yes"/>
      <point x="182" y="79" type="line"/>
    </contour>
  </outline>
</glyph>
<glyph name="z" format="1">
  <advance width="816"/>
  <unicode hex="007A"/>
  <outline>
    <contour>
      <point x="582" y="0" type="line" smooth="yes"/>
      <point x="595" y="0"/>
      <point x="610" y="35"/>
      <point x="616" y="79" type="curve" smooth="yes"/>
      <point x="621" y="122"/>
      <point x="616" y="157"/>
      <point x="603" y="157" type="curve" smooth="yes"/>
      <point x="254" y="157" type="line"/>
      <point x="649" y="480" type="line" smooth="yes"/>
      <point x="663" y="491"/>
      <point x="676" y="531"/>
      <point x="680" y="575" type="curve" smooth="yes"/>
      <point x="684" y="618"/>
      <point x="677" y="650"/>
      <point x="665" y="650" type="curve" smooth="yes"/>
      <point x="99" y="650" type="line" smooth="yes"/>
      <point x="86" y="650"/>
      <point x="71" y="615"/>
      <point x="65" y="571" type="curve" smooth="yes"/>
      <point x="60" y="528"/>
      <point x="66" y="493"/>
      <point x="78" y="493" type="curve" smooth="yes"/>
      <point x="427" y="493" type="line"/>
      <point x="32" y="170" type="line" smooth="yes"/>
      <point x="18" y="159"/>
      <point x="5" y="119"/>
      <point x="1" y="75" type="curve" smooth="yes"/>
      <point x="-3" y="32"/>
      <point x="4" y="0"/>
      <point x="16" y="0" type="curve" smooth="yes"/>
    </contour>
  </outline>
</glyph>
<glyph name="braceleft" format="1">
  <advance width="656"/>
  <unicode hex="007B"/>
  <outline>
    <contour>
      <point x="162" y="500" type="curve"/>
      <point x="227" y="529"/>
      <point x="283" y="583"/>
      <point x="293" y="660" type="curve" smooth="yes"/>
      <point x="313" y="816" type="line" smooth="yes"/>
      <point x="322" y="886"/>
      <point x="386" y="943"/>
      <point x="456" y="943" type="curve" smooth="yes"/>
      <point x="486" y="943"/>
      <point x="514" y="978"/>
      <point x="520" y="1021" type="curve" smooth="yes"/>
      <point x="526" y="1065"/>
      <point x="506" y="1100"/>
      <point x="477" y="1100" type="curve" smooth="yes"/>
      <point x="320" y="1100"/>
      <point x="196" y="961"/>
      <point x="177" y="816" type="curve" smooth="yes"/>
      <point x="157" y="660" type="line" smooth="yes"/>
      <point x="151" y="615"/>
      <point x="110" y="579"/>
      <point x="64" y="579" type="curve" smooth="yes"/>
      <point x="35" y="579"/>
      <point x="7" y="543"/>
      <point x="1" y="500" type="curve" smooth="yes"/>
      <point x="-5" y="457"/>
      <point x="15" y="421"/>
      <point x="44" y="421" type="curve" smooth="yes"/>
      <point x="89" y="421"/>
      <point x="121" y="385"/>
      <point x="115" y="340" type="curve" smooth="yes"/>
      <point x="95" y="184" type="line" smooth="yes"/>
      <point x="76" y="39"/>
      <point x="164" y="-100"/>
      <point x="321" y="-100" type="curve" smooth="yes"/>
      <point x="350" y="-100"/>
      <point x="379" y="-65"/>
      <point x="384" y="-21" type="curve" smooth="yes"/>
      <point x="390" y="22"/>
      <point x="371" y="57"/>
      <point x="341" y="57" type="curve" smooth="yes"/>
      <point x="271" y="57"/>
      <point x="222" y="114"/>
      <point x="231" y="184" type="curve" smooth="yes"/>
      <point x="251" y="340" type="line" smooth="yes"/>
      <point x="261" y="417"/>
      <point x="220" y="471"/>
    </contour>
  </outline>
</glyph>
<glyph name="bar" format="1">
  <advance width="457"/>
  <unicode hex="007C"/>
  <outline>
    <contour>
      <point x="322" y="1083" type="line" smooth="yes"/>
      <point x="323" y="1095"/>
      <point x="286" y="1105"/>
      <point x="239" y="1105" type="curve" smooth="yes"/>
      <point x="193" y="1105"/>
      <point x="153" y="1095"/>
      <point x="152" y="1083" type="curve" smooth="yes"/>
      <point x="0" y="-83" type="line" smooth="yes"/>
      <point x="-1" y="-95"/>
      <point x="35" y="-105"/>
      <point x="82" y="-105" type="curve" smooth="yes"/>
      <point x="129" y="-105"/>
      <point x="169" y="-95"/>
      <point x="170" y="-83" type="curve" smooth="yes"/>
    </contour>
  </outline>
</glyph>
<glyph name="braceright" format="1">
  <advance width="659"/>
  <unicode hex="007D"/>
  <outline>
    <contour>
      <point x="385" y="500" type="curve"/>
      <point x="305" y="467"/>
      <point x="237" y="402"/>
      <point x="225" y="309" type="curve" smooth="yes"/>
      <point x="213" y="214" type="line" smooth="yes"/>
      <point x="202" y="128"/>
      <point x="122" y="57"/>
      <point x="35" y="57" type="curve" smooth="yes"/>
      <point x="23" y="57"/>
      <point x="8" y="22"/>
      <point x="2" y="-21" type="curve" smooth="yes"/>
      <point x="-3" y="-65"/>
      <point x="2" y="-100"/>
      <point x="15" y="-100" type="curve" smooth="yes"/>
      <point x="189" y="-100"/>
      <point x="328" y="53"/>
      <point x="349" y="214" type="curve" smooth="yes"/>
      <point x="361" y="309" type="line" smooth="yes"/>
      <point x="369" y="371"/>
      <point x="426" y="421"/>
      <point x="488" y="421" type="curve" smooth="yes"/>
      <point x="501" y="421"/>
      <point x="516" y="457"/>
      <point x="521" y="500" type="curve" smooth="yes"/>
      <point x="527" y="543"/>
      <point x="521" y="579"/>
      <point x="508" y="579" type="curve" smooth="yes"/>
      <point x="447" y="579"/>
      <point x="403" y="629"/>
      <point x="411" y="691" type="curve" smooth="yes"/>
      <point x="423" y="786" type="line" smooth="yes"/>
      <point x="444" y="947"/>
      <point x="345" y="1100"/>
      <point x="171" y="1100" type="curve" smooth="yes"/>
      <point x="158" y="1100"/>
      <point x="143" y="1065"/>
      <point x="138" y="1021" type="curve" smooth="yes"/>
      <point x="132" y="978"/>
      <point x="138" y="943"/>
      <point x="150" y="943" type="curve" smooth="yes"/>
      <point x="237" y="943"/>
      <point x="299" y="872"/>
      <point x="287" y="786" type="curve" smooth="yes"/>
      <point x="275" y="691" type="line" smooth="yes"/>
      <point x="263" y="598"/>
      <point x="314" y="533"/>
    </contour>
  </outline>
</glyph>
<glyph name="asciitilde" format="1">
  <advance width="692"/>
  <unicode hex="007E"/>
  <outline>
    <contour>
      <point x="116" y="451" type="curve" smooth="yes"/>
      <point x="151" y="503"/>
      <point x="210" y="456"/>
      <point x="233" y="443" type="curve" smooth="yes"/>
      <point x="324" y="389"/>
      <point x="474" y="381"/>
      <point x="555" y="501" type="curve" smooth="yes"/>
      <point x="559" y="507"/>
      <point x="553" y="518"/>
      <point x="536" y="532" type="curve" smooth="yes"/>
      <point x="520" y="546"/>
      <point x="499" y="558"/>
      <point x="479" y="566" type="curve" smooth="yes"/>
      <point x="459" y="574"/>
      <point x="445" y="575"/>
      <point x="441" y="569" type="curve" smooth="yes"/>
      <point x="406" y="517"/>
      <point x="346" y="564"/>
      <point x="324" y="577" type="curve" smooth="yes"/>
      <point x="233" y="631"/>
      <point x="83" y="639"/>
      <point x="1" y="519" type="curve" smooth="yes"/>
      <point x="-5" y="510"/>
      <point x="16" y="488"/>
      <point x="47" y="469" type="curve" smooth="yes"/>
      <point x="79" y="450"/>
      <point x="110" y="442"/>
    </contour>
  </outline>
</glyph>
<glyph name="exclamdown" format="1">
  <advance width="443"/>
  <unicode hex="00A1"/>
  <outline>
    <contour>
      <point x="291" y="856" type="curve" smooth="yes"/>
      <point x="307" y="982" type="line" smooth="yes"/>
      <point x="309" y="995"/>
      <point x="269" y="1005"/>
      <point x="219" y="1005" type="curve" smooth="yes"/>
      <point x="169" y="1005"/>
      <point x="127" y="995"/>
      <point x="125" y="982" type="curve" smooth="yes"/>
      <point x="109" y="856" type="line" smooth="yes"/>
      <point x="107" y="844"/>
      <point x="147" y="833"/>
      <point x="197" y="833" type="curve" smooth="yes"/>
      <point x="247" y="833"/>
      <point x="289" y="844"/>
    </contour>
    <contour>
      <point x="182" y="18" type="curve" smooth="yes"/>
      <point x="257" y="684" type="line" smooth="yes"/>
      <point x="258" y="695"/>
      <point x="224" y="703"/>
      <point x="180" y="703" type="curve" smooth="yes"/>
      <point x="136" y="703"/>
      <point x="100" y="695"/>
      <point x="98" y="684" type="curve" smooth="yes"/>
      <point x="0" y="18" type="line" smooth="yes"/>
      <point x="-2" y="5"/>
      <point x="38" y="-5"/>
      <point x="88" y="-5" type="curve" smooth="yes"/>
      <point x="138" y="-5"/>
      <point x="180" y="5"/>
    </contour>
  </outline>
</glyph>
<glyph name="dieresis" format="1">
  <advance width="631"/>
  <unicode hex="00A8"/>
  <outline>
    <contour>
      <point x="185" y="983" type="line" smooth="yes"/>
      <point x="186" y="995"/>
      <point x="150" y="1005"/>
      <point x="103" y="1005" type="curve" smooth="yes"/>
      <point x="56" y="1005"/>
      <point x="16" y="995"/>
      <point x="15" y="983" type="curve" smooth="yes"/>
      <point x="0" y="869" type="line" smooth="yes"/>
      <point x="-1" y="857"/>
      <point x="35" y="847"/>
      <point x="82" y="847" type="curve" smooth="yes"/>
      <point x="129" y="847"/>
      <point x="169" y="857"/>
      <point x="170" y="869" type="curve" smooth="yes"/>
    </contour>
    <contour>
      <point x="495" y="983" type="line" smooth="yes"/>
      <point x="497" y="995"/>
      <point x="460" y="1005"/>
      <point x="413" y="1005" type="curve" smooth="yes"/>
      <point x="366" y="1005"/>
      <point x="327" y="995"/>
      <point x="325" y="983" type="curve" smooth="yes"/>
      <point x="310" y="869" type="line" smooth="yes"/>
      <point x="309" y="857"/>
      <point x="346" y="847"/>
      <point x="393" y="847" type="curve" smooth="yes"/>
      <point x="439" y="847"/>
      <point x="479" y="857"/>
      <point x="480" y="869" type="curve" smooth="yes"/>
    </contour>
  </outline>
</glyph>
<glyph name="macron" format="1">
  <advance width="640"/>
  <unicode hex="00AF"/>
  <outline>
    <contour>
      <point x="469" y="818" type="line" smooth="yes"/>
      <point x="482" y="818"/>
      <point x="497" y="853"/>
      <point x="502" y="896" type="curve" smooth="yes"/>
      <point x="508" y="940"/>
      <point x="502" y="975"/>
      <point x="489" y="975" type="curve" smooth="yes"/>
      <point x="35" y="975" type="line" smooth="yes"/>
      <point x="23" y="975"/>
      <point x="8" y="940"/>
      <point x="2" y="896" type="curve" smooth="yes"/>
      <point x="-3" y="853"/>
      <point x="2" y="818"/>
      <point x="15" y="818" type="curve" smooth="yes"/>
    </contour>
  </outline>
</glyph>
<glyph name="acute" format="1">
  <advance width="389"/>
  <unicode hex="00B4"/>
  <outline>
    <contour>
      <point x="158" y="1003" type="curve" smooth="yes"/>
      <point x="2" y="854" type="line"/>
      <point x="-4" y="849"/>
      <point x="4" y="825"/>
      <point x="21" y="801" type="curve" smooth="yes"/>
      <point x="38" y="777"/>
      <point x="57" y="761"/>
      <point x="64" y="765" type="curve" smooth="yes"/>
      <point x="249" y="872" type="line"/>
      <point x="257" y="876"/>
      <point x="254" y="892"/>
      <point x="243" y="916" type="curve" smooth="yes"/>
      <point x="232" y="940"/>
      <point x="215" y="964"/>
      <point x="196" y="983" type="curve" smooth="yes"/>
      <point x="178" y="1001"/>
      <point x="164" y="1009"/>
    </contour>
  </outline>
</glyph>
<glyph name="periodcentered" format="1">
  <advance width="333"/>
  <unicode hex="00B7"/>
  <outline>
    <contour>
      <point x="197" y="537" type="line" smooth="yes"/>
      <point x="201" y="567"/>
      <point x="162" y="591"/>
      <point x="110" y="591" type="curve" smooth="yes"/>
      <point x="59" y="591"/>
      <point x="14" y="567"/>
      <point x="10" y="537" type="curve" smooth="yes"/>
      <point x="0" y="463" type="line" smooth="yes"/>
      <point x="-4" y="433"/>
      <point x="35" y="409"/>
      <point x="87" y="409" type="curve" smooth="yes"/>
      <point x="138" y="409"/>
      <point x="183" y="433"/>
      <point x="187" y="463" type="curve" smooth="yes"/>
    </contour>
  </outline>
</glyph>
<glyph name="Agrave" format="1">
  <advance width="993"/>
  <unicode hex="00C0"/>
  <outline>
    <contour>
      <point x="351" y="399" type="line"/>
      <point x="527" y="769" type="line"/>
      <point x="606" y="399" type="line"/>
    </contour>
    <contour>
      <point x="687" y="15" type="line" smooth="yes"/>
      <point x="690" y="3"/>
      <point x="730" y="-6"/>
      <point x="777" y="-5" type="curve" smooth="yes"/>
      <point x="824" y="-4"/>
      <point x="860" y="7"/>
      <point x="857" y="18" type="curve"/>
      <point x="652" y="982" type="line" smooth="yes"/>
      <point x="649" y="995"/>
      <point x="608" y="1005"/>
      <point x="557" y="1005" type="curve" smooth="yes"/>
      <point x="506" y="1005"/>
      <point x="463" y="995"/>
      <point x="457" y="982" type="curve" smooth="yes"/>
      <point x="1" y="18" type="line"/>
      <point x="-5" y="7"/>
      <point x="28" y="-4"/>
      <point x="75" y="-5" type="curve" smooth="yes"/>
      <point x="122" y="-6"/>
      <point x="164" y="3"/>
      <point x="169" y="15" type="curve"/>
      <point x="277" y="241" type="line"/>
      <point x="639" y="241" type="line"/>
    </contour>
    <contour>
      <point x="519" y="1321" type="line" smooth="yes"/>
      <point x="514" y="1327"/>
      <point x="498" y="1320"/>
      <point x="475" y="1301" type="curve" smooth="yes"/>
      <point x="452" y="1283"/>
      <point x="429" y="1258"/>
      <point x="411" y="1234" type="curve" smooth="yes"/>
      <point x="394" y="1211"/>
      <point x="387" y="1195"/>
      <point x="394" y="1190" type="curve" smooth="yes"/>
      <point x="551" y="1084" type="line" smooth="yes"/>
      <point x="557" y="1080"/>
      <point x="580" y="1095"/>
      <point x="603" y="1119" type="curve" smooth="yes"/>
      <point x="626" y="1144"/>
      <point x="641" y="1167"/>
      <point x="636" y="1173" type="curve" smooth="yes"/>
    </contour>
  </outline>
</glyph>
<glyph name="Aacute" format="1">
  <advance width="993"/>
  <unicode hex="00C1"/>
  <outline>
    <contour>
      <point x="348" y="399" type="line"/>
      <point x="520" y="746" type="line"/>
      <point x="602" y="399" type="line"/>
    </contour>
    <contour>
      <point x="688" y="34" type="line" smooth="yes"/>
      <point x="694" y="8"/>
      <point x="737" y="-9"/>
      <point x="784" y="-4" type="curve" smooth="yes"/>
      <point x="831" y="2"/>
      <point x="863" y="28"/>
      <point x="857" y="55" type="curve" smooth="yes"/>
      <point x="644" y="960" type="line" smooth="yes"/>
      <point x="637" y="986"/>
      <point x="601" y="1005"/>
      <point x="554" y="1005" type="curve" smooth="yes"/>
      <point x="507" y="1005"/>
      <point x="465" y="986"/>
      <point x="452" y="960" type="curve" smooth="yes"/>
      <point x="3" y="55" type="line" smooth="yes"/>
      <point x="-10" y="28"/>
      <point x="16" y="2"/>
      <point x="61" y="-4" type="curve" smooth="yes"/>
      <point x="107" y="-9"/>
      <point x="154" y="8"/>
      <point x="167" y="34" type="curve" smooth="yes"/>
      <point x="270" y="241" type="line"/>
      <point x="639" y="241" type="line"/>
    </contour>
    <contour>
      <point x="500" y="1321" type="curve" smooth="yes"/>
      <point x="364" y="1173" type="line" smooth="yes"/>
      <point x="352" y="1160"/>
      <point x="357" y="1132"/>
      <point x="377" y="1109" type="curve" smooth="yes"/>
      <point x="396" y="1086"/>
      <point x="422" y="1075"/>
      <point x="437" y="1084" type="curve" smooth="yes"/>
      <point x="608" y="1190" type="line" smooth="yes"/>
      <point x="624" y="1200"/>
      <point x="628" y="1223"/>
      <point x="617" y="1250" type="curve" smooth="yes"/>
      <point x="607" y="1278"/>
      <point x="586" y="1304"/>
      <point x="561" y="1319" type="curve" smooth="yes"/>
      <point x="535" y="1334"/>
      <point x="513" y="1335"/>
    </contour>
  </outline>
</glyph>
<glyph name="Acircumflex" format="1">
  <advance width="993"/>
  <unicode hex="00C2"/>
  <outline>
    <contour>
      <point x="351" y="399" type="line"/>
      <point x="527" y="769" type="line"/>
      <point x="606" y="399" type="line"/>
    </contour>
    <contour>
      <point x="687" y="15" type="line" smooth="yes"/>
      <point x="690" y="3"/>
      <point x="730" y="-6"/>
      <point x="777" y="-5" type="curve" smooth="yes"/>
      <point x="824" y="-4"/>
      <point x="860" y="7"/>
      <point x="857" y="18" type="curve"/>
      <point x="652" y="982" type="line" smooth="yes"/>
      <point x="649" y="995"/>
      <point x="608" y="1005"/>
      <point x="557" y="1005" type="curve" smooth="yes"/>
      <point x="506" y="1005"/>
      <point x="463" y="995"/>
      <point x="457" y="982" type="curve" smooth="yes"/>
      <point x="1" y="18" type="line"/>
      <point x="-5" y="7"/>
      <point x="28" y="-4"/>
      <point x="75" y="-5" type="curve" smooth="yes"/>
      <point x="122" y="-6"/>
      <point x="164" y="3"/>
      <point x="169" y="15" type="curve"/>
      <point x="277" y="241" type="line"/>
      <point x="639" y="241" type="line"/>
    </contour>
    <contour>
      <point x="350" y="1179" type="line"/>
      <point x="347" y="1175"/>
      <point x="347" y="1169"/>
      <point x="352" y="1160" type="curve" smooth="yes"/>
      <point x="365" y="1137"/>
      <point x="401" y="1106"/>
      <point x="433" y="1091" type="curve" smooth="yes"/>
      <point x="452" y="1081"/>
      <point x="466" y="1080"/>
      <point x="471" y="1085" type="curve" smooth="yes"/>
      <point x="583" y="1199" type="line"/>
      <point x="665" y="1085" type="line"/>
      <point x="668" y="1080"/>
      <point x="682" y="1081"/>
      <point x="704" y="1091" type="curve" smooth="yes"/>
      <point x="740" y="1106"/>
      <point x="784" y="1137"/>
      <point x="802" y="1160" type="curve"/>
      <point x="810" y="1169"/>
      <point x="812" y="1175"/>
      <point x="809" y="1179" type="curve" smooth="yes"/>
      <point x="696" y="1337" type="line" smooth="yes"/>
      <point x="688" y="1348"/>
      <point x="650" y="1356"/>
      <point x="603" y="1356" type="curve" smooth="yes"/>
      <point x="556" y="1356"/>
      <point x="516" y="1348"/>
      <point x="505" y="1337" type="curve" smooth="yes"/>
    </contour>
  </outline>
</glyph>
<glyph name="Atilde" format="1">
  <advance width="993"/>
  <unicode hex="00C3"/>
  <outline>
    <contour>
      <point x="348" y="399" type="line"/>
      <point x="520" y="746" type="line"/>
      <point x="602" y="399" type="line"/>
    </contour>
    <contour>
      <point x="688" y="34" type="line" smooth="yes"/>
      <point x="694" y="8"/>
      <point x="737" y="-9"/>
      <point x="784" y="-4" type="curve" smooth="yes"/>
      <point x="831" y="2"/>
      <point x="863" y="28"/>
      <point x="857" y="55" type="curve" smooth="yes"/>
      <point x="644" y="960" type="line" smooth="yes"/>
      <point x="637" y="986"/>
      <point x="601" y="1005"/>
      <point x="554" y="1005" type="curve" smooth="yes"/>
      <point x="507" y="1005"/>
      <point x="465" y="986"/>
      <point x="452" y="960" type="curve" smooth="yes"/>
      <point x="3" y="55" type="line" smooth="yes"/>
      <point x="-10" y="28"/>
      <point x="16" y="2"/>
      <point x="61" y="-4" type="curve" smooth="yes"/>
      <point x="107" y="-9"/>
      <point x="154" y="8"/>
      <point x="167" y="34" type="curve" smooth="yes"/>
      <point x="270" y="241" type="line"/>
      <point x="639" y="241" type="line"/>
    </contour>
    <contour>
      <point x="307" y="1129" type="curve" smooth="yes"/>
      <point x="329" y="1169"/>
      <point x="379" y="1133"/>
      <point x="397" y="1123" type="curve" smooth="yes"/>
      <point x="475" y="1080"/>
      <point x="593" y="1075"/>
      <point x="645" y="1169" type="curve" smooth="yes"/>
      <point x="651" y="1180"/>
      <point x="647" y="1195"/>
      <point x="634" y="1209" type="curve" smooth="yes"/>
      <point x="622" y="1223"/>
      <point x="604" y="1233"/>
      <point x="585" y="1236" type="curve" smooth="yes"/>
      <point x="566" y="1239"/>
      <point x="552" y="1235"/>
      <point x="546" y="1223" type="curve" smooth="yes"/>
      <point x="524" y="1184"/>
      <point x="474" y="1220"/>
      <point x="456" y="1230" type="curve" smooth="yes"/>
      <point x="379" y="1273"/>
      <point x="260" y="1278"/>
      <point x="209" y="1183" type="curve"/>
      <point x="199" y="1167"/>
      <point x="214" y="1141"/>
      <point x="241" y="1126" type="curve" smooth="yes"/>
      <point x="269" y="1111"/>
      <point x="298" y="1113"/>
    </contour>
  </outline>
</glyph>
<glyph name="Adieresis" format="1">
  <advance width="993"/>
  <unicode hex="00C4"/>
  <outline>
    <contour>
      <point x="348" y="399" type="line"/>
      <point x="520" y="746" type="line"/>
      <point x="602" y="399" type="line"/>
    </contour>
    <contour>
      <point x="688" y="34" type="line" smooth="yes"/>
      <point x="694" y="8"/>
      <point x="737" y="-9"/>
      <point x="784" y="-4" type="curve" smooth="yes"/>
      <point x="831" y="2"/>
      <point x="863" y="28"/>
      <point x="857" y="55" type="curve" smooth="yes"/>
      <point x="644" y="960" type="line" smooth="yes"/>
      <point x="637" y="986"/>
      <point x="601" y="1005"/>
      <point x="554" y="1005" type="curve" smooth="yes"/>
      <point x="507" y="1005"/>
      <point x="465" y="986"/>
      <point x="452" y="960" type="curve" smooth="yes"/>
      <point x="3" y="55" type="line" smooth="yes"/>
      <point x="-10" y="28"/>
      <point x="16" y="2"/>
      <point x="61" y="-4" type="curve" smooth="yes"/>
      <point x="107" y="-9"/>
      <point x="154" y="8"/>
      <point x="167" y="34" type="curve" smooth="yes"/>
      <point x="270" y="241" type="line"/>
      <point x="639" y="241" type="line"/>
    </contour>
    <contour>
      <point x="357" y="1183" type="line" smooth="yes"/>
      <point x="357" y="1210"/>
      <point x="319" y="1232"/>
      <point x="272" y="1232" type="curve" smooth="yes"/>
      <point x="225" y="1232"/>
      <point x="187" y="1210"/>
      <point x="187" y="1183" type="curve" smooth="yes"/>
      <point x="187" y="1124" type="line" smooth="yes"/>
      <point x="187" y="1097"/>
      <point x="225" y="1075"/>
      <point x="272" y="1075" type="curve" smooth="yes"/>
      <point x="319" y="1075"/>
      <point x="357" y="1097"/>
      <point x="357" y="1124" type="curve" smooth="yes"/>
    </contour>
    <contour>
      <point x="667" y="1183" type="line" smooth="yes"/>
      <point x="667" y="1210"/>
      <point x="629" y="1232"/>
      <point x="582" y="1232" type="curve" smooth="yes"/>
      <point x="535" y="1232"/>
      <point x="497" y="1210"/>
      <point x="497" y="1183" type="curve" smooth="yes"/>
      <point x="497" y="1124" type="line" smooth="yes"/>
      <point x="497" y="1097"/>
      <point x="535" y="1075"/>
      <point x="582" y="1075" type="curve" smooth="yes"/>
      <point x="629" y="1075"/>
      <point x="667" y="1097"/>
      <point x="667" y="1124" type="curve" smooth="yes"/>
    </contour>
  </outline>
</glyph>
<glyph name="Aring" format="1">
  <advance width="993"/>
  <unicode hex="00C5"/>
  <outline>
    <contour>
      <point x="348" y="399" type="line"/>
      <point x="520" y="746" type="line"/>
      <point x="602" y="399" type="line"/>
    </contour>
    <contour>
      <point x="688" y="34" type="line" smooth="yes"/>
      <point x="694" y="8"/>
      <point x="737" y="-9"/>
      <point x="784" y="-4" type="curve" smooth="yes"/>
      <point x="831" y="2"/>
      <point x="863" y="28"/>
      <point x="857" y="55" type="curve" smooth="yes"/>
      <point x="644" y="960" type="line" smooth="yes"/>
      <point x="637" y="986"/>
      <point x="601" y="1005"/>
      <point x="554" y="1005" type="curve" smooth="yes"/>
      <point x="507" y="1005"/>
      <point x="465" y="986"/>
      <point x="452" y="960" type="curve" smooth="yes"/>
      <point x="3" y="55" type="line" smooth="yes"/>
      <point x="-10" y="28"/>
      <point x="16" y="2"/>
      <point x="61" y="-4" type="curve" smooth="yes"/>
      <point x="107" y="-9"/>
      <point x="154" y="8"/>
      <point x="167" y="34" type="curve" smooth="yes"/>
      <point x="270" y="241" type="line"/>
      <point x="639" y="241" type="line"/>
    </contour>
    <contour>
      <point x="356" y="1264" type="curve" smooth="yes"/>
      <point x="356" y="1303"/>
      <point x="388" y="1334"/>
      <point x="427" y="1334" type="curve" smooth="yes"/>
      <point x="466" y="1334"/>
      <point x="498" y="1303"/>
      <point x="498" y="1264" type="curve" smooth="yes"/>
      <point x="498" y="1225"/>
      <point x="466" y="1193"/>
      <point x="427" y="1193" type="curve" smooth="yes"/>
      <point x="388" y="1193"/>
      <point x="356" y="1225"/>
    </contour>
    <contour>
      <point x="223" y="1264" type="curve" smooth="yes"/>
      <point x="223" y="1159"/>
      <point x="314" y="1075"/>
      <point x="427" y="1075" type="curve" smooth="yes"/>
      <point x="539" y="1075"/>
      <point x="631" y="1159"/>
      <point x="631" y="1264" type="curve" smooth="yes"/>
      <point x="631" y="1368"/>
      <point x="539" y="1452"/>
      <point x="427" y="1452" type="curve" smooth="yes"/>
      <point x="314" y="1452"/>
      <point x="223" y="1368"/>
    </contour>
  </outline>
</glyph>
<glyph name="Egrave" format="1">
  <advance width="881"/>
  <unicode hex="00C8"/>
  <outline>
    <contour>
      <point x="601" y="0" type="line" smooth="yes"/>
      <point x="614" y="0"/>
      <point x="629" y="35"/>
      <point x="634" y="79" type="curve" smooth="yes"/>
      <point x="640" y="122"/>
      <point x="634" y="157"/>
      <point x="622" y="157" type="curve" smooth="yes"/>
      <point x="187" y="157" type="line"/>
      <point x="223" y="431" type="line"/>
      <point x="470" y="431" type="line" smooth="yes"/>
      <point x="483" y="431"/>
      <point x="498" y="467"/>
      <point x="503" y="510" type="curve" smooth="yes"/>
      <point x="509" y="553"/>
      <point x="503" y="589"/>
      <point x="490" y="589" type="curve" smooth="yes"/>
      <point x="243" y="589" type="line"/>
      <point x="276" y="843" type="line"/>
      <point x="711" y="843" type="line" smooth="yes"/>
      <point x="723" y="843"/>
      <point x="738" y="878"/>
      <point x="744" y="921" type="curve" smooth="yes"/>
      <point x="750" y="965"/>
      <point x="744" y="1000"/>
      <point x="731" y="1000" type="curve" smooth="yes"/>
      <point x="225" y="1000" type="line" smooth="yes"/>
      <point x="171" y="1000"/>
      <point x="125" y="989"/>
      <point x="124" y="976" type="curve"/>
      <point x="0" y="24" type="line" smooth="yes"/>
      <point x="-2" y="11"/>
      <point x="41" y="0"/>
      <point x="95" y="0" type="curve" smooth="yes"/>
    </contour>
    <contour>
      <point x="402" y="1316" type="line"/>
      <point x="398" y="1322"/>
      <point x="382" y="1315"/>
      <point x="359" y="1297" type="curve" smooth="yes"/>
      <point x="335" y="1278"/>
      <point x="312" y="1254"/>
      <point x="295" y="1230" type="curve" smooth="yes"/>
      <point x="277" y="1206"/>
      <point x="271" y="1190"/>
      <point x="277" y="1186" type="curve" smooth="yes"/>
      <point x="434" y="1079" type="line"/>
      <point x="441" y="1075"/>
      <point x="464" y="1091"/>
      <point x="487" y="1115" type="curve" smooth="yes"/>
      <point x="510" y="1139"/>
      <point x="524" y="1162"/>
      <point x="520" y="1168" type="curve"/>
    </contour>
  </outline>
</glyph>
<glyph name="Eacute" format="1">
  <advance width="876"/>
  <unicode hex="00C9"/>
  <outline>
    <contour>
      <point x="567" y="0" type="line" smooth="yes"/>
      <point x="596" y="0"/>
      <point x="625" y="35"/>
      <point x="630" y="79" type="curve" smooth="yes"/>
      <point x="636" y="122"/>
      <point x="617" y="157"/>
      <point x="587" y="157" type="curve" smooth="yes"/>
      <point x="183" y="157" type="line"/>
      <point x="219" y="431" type="line"/>
      <point x="466" y="431" type="line" smooth="yes"/>
      <point x="496" y="431"/>
      <point x="524" y="467"/>
      <point x="530" y="510" type="curve" smooth="yes"/>
      <point x="535" y="553"/>
      <point x="516" y="589"/>
      <point x="487" y="589" type="curve" smooth="yes"/>
      <point x="239" y="589" type="line"/>
      <point x="272" y="843" type="line"/>
      <point x="676" y="843" type="line" smooth="yes"/>
      <point x="706" y="843"/>
      <point x="734" y="878"/>
      <point x="740" y="921" type="curve" smooth="yes"/>
      <point x="746" y="965"/>
      <point x="726" y="1000"/>
      <point x="697" y="1000" type="curve" smooth="yes"/>
      <point x="221" y="1000" type="line" smooth="yes"/>
      <point x="167" y="1000"/>
      <point x="120" y="975"/>
      <point x="116" y="943" type="curve" smooth="yes"/>
      <point x="0" y="57" type="line" smooth="yes"/>
      <point x="-4" y="25"/>
      <point x="37" y="0"/>
      <point x="91" y="0" type="curve" smooth="yes"/>
    </contour>
    <contour>
      <point x="444" y="1321" type="curve" smooth="yes"/>
      <point x="308" y="1173" type="line" smooth="yes"/>
      <point x="296" y="1160"/>
      <point x="302" y="1132"/>
      <point x="321" y="1109" type="curve" smooth="yes"/>
      <point x="340" y="1086"/>
      <point x="366" y="1075"/>
      <point x="381" y="1084" type="curve" smooth="yes"/>
      <point x="552" y="1190" type="line" smooth="yes"/>
      <point x="568" y="1200"/>
      <point x="572" y="1223"/>
      <point x="561" y="1250" type="curve" smooth="yes"/>
      <point x="551" y="1278"/>
      <point x="530" y="1304"/>
      <point x="505" y="1319" type="curve" smooth="yes"/>
      <point x="479" y="1334"/>
      <point x="457" y="1335"/>
    </contour>
  </outline>
</glyph>
<glyph name="Ecircumflex" format="1">
  <advance width="876"/>
  <unicode hex="00CA"/>
  <outline>
    <contour>
      <point x="567" y="0" type="line" smooth="yes"/>
      <point x="596" y="0"/>
      <point x="625" y="35"/>
      <point x="630" y="79" type="curve" smooth="yes"/>
      <point x="636" y="122"/>
      <point x="617" y="157"/>
      <point x="587" y="157" type="curve" smooth="yes"/>
      <point x="183" y="157" type="line"/>
      <point x="219" y="431" type="line"/>
      <point x="466" y="431" type="line" smooth="yes"/>
      <point x="496" y="431"/>
      <point x="524" y="467"/>
      <point x="530" y="510" type="curve" smooth="yes"/>
      <point x="535" y="553"/>
      <point x="516" y="589"/>
      <point x="487" y="589" type="curve" smooth="yes"/>
      <point x="239" y="589" type="line"/>
      <point x="272" y="843" type="line"/>
      <point x="676" y="843" type="line" smooth="yes"/>
      <point x="706" y="843"/>
      <point x="734" y="878"/>
      <point x="740" y="921" type="curve" smooth="yes"/>
      <point x="746" y="965"/>
      <point x="726" y="1000"/>
      <point x="697" y="1000" type="curve" smooth="yes"/>
      <point x="221" y="1000" type="line" smooth="yes"/>
      <point x="167" y="1000"/>
      <point x="120" y="975"/>
      <point x="116" y="943" type="curve" smooth="yes"/>
      <point x="0" y="57" type="line" smooth="yes"/>
      <point x="-4" y="25"/>
      <point x="37" y="0"/>
      <point x="91" y="0" type="curve" smooth="yes"/>
    </contour>
    <contour>
      <point x="153" y="1195" type="line" smooth="yes"/>
      <point x="145" y="1187"/>
      <point x="142" y="1173"/>
      <point x="146" y="1157" type="curve" smooth="yes"/>
      <point x="154" y="1123"/>
      <point x="192" y="1088"/>
      <point x="229" y="1079" type="curve"/>
      <point x="250" y="1075"/>
      <point x="266" y="1079"/>
      <point x="275" y="1089" type="curve" smooth="yes"/>
      <point x="371" y="1192" type="line"/>
      <point x="467" y="1089" type="line" smooth="yes"/>
      <point x="476" y="1079"/>
      <point x="492" y="1075"/>
      <point x="512" y="1079" type="curve" smooth="yes"/>
      <point x="550" y="1088"/>
      <point x="588" y="1123"/>
      <point x="596" y="1157" type="curve" smooth="yes"/>
      <point x="600" y="1173"/>
      <point x="597" y="1187"/>
      <point x="589" y="1195" type="curve" smooth="yes"/>
      <point x="457" y="1337" type="line" smooth="yes"/>
      <point x="440" y="1355"/>
      <point x="408" y="1367"/>
      <point x="371" y="1367" type="curve" smooth="yes"/>
      <point x="334" y="1367"/>
      <point x="301" y="1355"/>
      <point x="285" y="1337" type="curve" smooth="yes"/>
    </contour>
  </outline>
</glyph>
<glyph name="Edieresis" format="1">
  <advance width="881"/>
  <unicode hex="00CB"/>
  <outline>
    <contour>
      <point x="601" y="0" type="line" smooth="yes"/>
      <point x="614" y="0"/>
      <point x="629" y="35"/>
      <point x="634" y="79" type="curve" smooth="yes"/>
      <point x="640" y="122"/>
      <point x="634" y="157"/>
      <point x="622" y="157" type="curve" smooth="yes"/>
      <point x="187" y="157" type="line"/>
      <point x="223" y="431" type="line"/>
      <point x="470" y="431" type="line" smooth="yes"/>
      <point x="483" y="431"/>
      <point x="498" y="467"/>
      <point x="503" y="510" type="curve" smooth="yes"/>
      <point x="509" y="553"/>
      <point x="503" y="589"/>
      <point x="490" y="589" type="curve" smooth="yes"/>
      <point x="243" y="589" type="line"/>
      <point x="276" y="843" type="line"/>
      <point x="711" y="843" type="line" smooth="yes"/>
      <point x="723" y="843"/>
      <point x="738" y="878"/>
      <point x="744" y="921" type="curve" smooth="yes"/>
      <point x="750" y="965"/>
      <point x="744" y="1000"/>
      <point x="731" y="1000" type="curve" smooth="yes"/>
      <point x="225" y="1000" type="line" smooth="yes"/>
      <point x="171" y="1000"/>
      <point x="125" y="989"/>
      <point x="124" y="976" type="curve"/>
      <point x="0" y="24" type="line" smooth="yes"/>
      <point x="-2" y="11"/>
      <point x="41" y="0"/>
      <point x="95" y="0" type="curve" smooth="yes"/>
    </contour>
    <contour>
      <point x="398" y="1211" type="line" smooth="yes"/>
      <point x="399" y="1223"/>
      <point x="362" y="1232"/>
      <point x="316" y="1232" type="curve" smooth="yes"/>
      <point x="269" y="1232"/>
      <point x="229" y="1223"/>
      <point x="228" y="1211" type="curve" smooth="yes"/>
      <point x="213" y="1096" type="line"/>
      <point x="211" y="1085"/>
      <point x="248" y="1075"/>
      <point x="295" y="1075" type="curve" smooth="yes"/>
      <point x="342" y="1075"/>
      <point x="381" y="1085"/>
      <point x="383" y="1096" type="curve"/>
    </contour>
    <contour>
      <point x="708" y="1211" type="line" smooth="yes"/>
      <point x="710" y="1223"/>
      <point x="673" y="1232"/>
      <point x="626" y="1232" type="curve" smooth="yes"/>
      <point x="579" y="1232"/>
      <point x="540" y="1223"/>
      <point x="538" y="1211" type="curve" smooth="yes"/>
      <point x="523" y="1096" type="line" smooth="yes"/>
      <point x="522" y="1085"/>
      <point x="558" y="1075"/>
      <point x="605" y="1075" type="curve" smooth="yes"/>
      <point x="652" y="1075"/>
      <point x="692" y="1085"/>
      <point x="693" y="1096" type="curve" smooth="yes"/>
    </contour>
  </outline>
</glyph>
